<svg xmlns="http://www.w3.org/2000/svg" xml:space="preserve" style="enable-background:new 0 0 377 143" viewBox="0 0 377 143"><path fill="currentColor" d="M33.4 35.1c1.4 1.3 2.2 3 2.6 5.1.2 1.4-.1 3.1-.8 5-3.1 11.1-5.5 24.4-7.3 39.9-.8 7.2-1.3 14.6-1.4 22.1 0 3.2 0 6.7.2 10.6v.1h-.1c-2.7-.3-5.5-2.9-6.9-7-.4-1.4-.7-3.2-1.1-5.3-1.6-10.3-1.4-23.3.5-38.9 1.3-9.5 3-17.2 5.1-23-5.4 2.3-7.5 4.1-10.5 7.3-1 .9-2.3 2.6-3.9 5.2-2.3 4-3.5 8.1-3.6 12.2v.2h-.1c-1.2-.3-2.4-1.2-3.5-2.8-.7-1.1-1-2.1-1.2-3l-.1-.4c-.4-2.8-.1-6.1 1-9.8 1.7-5 5.4-9.2 11-12.5 4.5-2.5 9.3-4.1 14.5-4.9 3.7-.5 5.6-.5 5.6-.1zM82.5 30.2c2.4 1.6 3.9 4.1 4.4 7.4 1.4 8.9-4 24.4-16.1 46.6-.4.5-.6 1-.5 1.4-.1 2.6-.1 4.2 0 4.8l.1.5c.2 1.6 1 2.3 2.2 2.1 2.9-.4 7.8-5.6 14.6-15.5 1.3-1.9 2.4-3.8 3.2-5.6.3-.2.4-.4.5-.4.3 0 .5.3.7 1.1.4 2.7-.3 6.7-2.3 12.1-1 2.8-2.7 6-4.9 9.5-2 2.9-3.3 4.8-4.2 5.6-3.5 3.7-6.6 5.8-9.3 6.2l-.7.1c-2.5.4-4.8-.2-6.9-1.6-1.5-1.2-2.3-2.5-2.5-3.6-.1 0-.2-.6-.5-1.8-.3-1.7-.4-4.1-.4-7-2.3 3.3-3.7 5.2-4.3 5.6-3.8 4-7.6 6.3-11.3 6.9-3.5.5-6.3-.2-8.5-2.2-.9-.8-1.5-2.3-1.9-4.4-1-6.3-.3-17.1 1.9-32.3 2-12 4.4-20.7 7.1-26.2 1.1-1.9 2-3 2.8-3.3.6-.3 1.2-.4 1.8-.5 2.5-.4 5.2.1 8 1.4 2.5 1.4 4 3.7 4.5 6.9 1.1 7-3 18.6-12.2 35L44 86c-.1 2.5-.1 4.1 0 4.9.2 1.4.8 2.2 1.8 2.4.3.1.6.1.9 0h.2c2.6-.4 6.6-3.6 12-9.6.9-1.2 1.4-1.8 1.4-1.8C62.1 58.5 66.5 37 71.4 30c.7-.9 1.7-1.4 3-1.6 2.6-.3 5.3.3 8.1 1.8zM54 53.9c1.2-4.9 1.6-8.5 1.3-10.9-.2-1.3-.6-1.9-1.2-1.8H54c-1.2.2-2.8 3.9-5 11.3-1.5 5.5-2.7 12-3.7 19.7 5-7.5 7.1-12.9 8.7-18.3zm27.4-8.8c.7-3.8.8-6.6.5-8.4l-.1-.6c-.2-1-.5-1.5-.9-1.5 0-.1-.1 0-.1 0-1.4.2-3.3 5-5.6 14.3-1.3 5.5-2.5 12.3-3.5 20.5 4.3-6.7 8-14.7 9.7-24.3z"/><path fill="currentColor" d="M119.3 48.1v.1c-1.1 4.5-2.2 10.6-3.1 18.4-.7 7-.9 11.4-.6 13.3.3 1.6.8 2.4 1.8 2.2 1.4-.2 3.7-2.6 6.7-7.3 1.9-3.2 3.5-5.9 4.5-7.9.5-.8 1.4-1.2 1.7.5l.1.4c.4 2.5-.4 6.5-2.2 11.9-.6 1.7-1.5 3.6-2.7 5.6-3 4.9-6.2 7.6-9.5 8.2l-.5.1c-4.5.7-9.2-1.2-9.8-5.4l-.1-.4c-.1-.9-.2-1.5-.2-1.8-.5 1.4-1.6 3.3-3.1 5.8-1.8 2.3-3.1 3.7-3.9 4.1-1 .7-2.2 1.2-3.6 1.4-3.2.5-5.7-1.1-7.4-4.7-.6-1.2-1-2.6-1.3-4.5V88c-.7-4.2-.3-10.7 1.1-19.5 1.1-7.6 2.1-12.1 3-13.7 1.1-2.1 2.7-3.3 4.7-3.6l.3-.1c1.2-.2 2.7-.1 4.4.3v.1c-1.6 7-2.8 14.9-3.6 23.6-.3 4.3-.3 7-.1 8.3.2 1.5.7 2.4 1.4 2.7.2.1.4.1.7.1 1.4-.2 3.1-2.1 5-5.5 2.2-4.4 2.9-6.8 3.7-13.8 1-6.4 1.9-11.7 2.8-16 1.5-1.9 3.3-3 5.2-3.3 1.5-.5 3-.2 4.6.5z"/><path fill="currentColor" d="M143.4 41.3c6.4-1 10.8.5 13.3 4.4.7 1.1 1.1 2.4 1.3 3.7.4 2.4 0 5.1-1.3 8-1.6 2.9-3.5 4.5-5.7 4.9l-.4.1c-2.3.3-4.4-.8-6.3-3.5-.2-.3-.3-.5-.3-.6 5.5-3.4 8.2-5.8 8-7.2-.1-.9-1.6-1.2-4.4-1.2l-.8.1c-2.8.4-5.9 2.2-9.2 5.4-2.5 2.6-3.6 4.9-3.2 7 .3 2.1 2.3 3.5 5.9 4.2 1.9.5 4.1 1.4 6.3 2.6 4.1 2.5 6.5 5.6 7.1 9.3.6 4-.7 7.5-4.1 10.5-2.3 1.8-5.2 3-8.7 3.5-4.8.7-8.5-.3-11.1-3.1-.8-.9-1.3-2-1.5-3.1-.3-2.2.2-4.4 1.7-6.5.9-1.2 2-1.8 3.4-2 1.6-.2 3.3.4 5.3 1.9-1 1.4-1.4 2.5-1.3 3.4.2 1.3 1.5 1.8 4 1.7l.5-.1c2.3-.3 4-1.2 5.3-2.6.4-.6.6-1.2.5-1.9-.3-2.1-4.1-4-11.4-5.6-6.9-2-10.8-5.8-11.7-11.6-.7-4.2.5-8.4 3.3-12.6 4-5.1 9-8.1 15.1-9l.4-.1z"/><path fill="currentColor" d="M172.8 16.9c3.9-.5 5.9-.4 5.9.1-.9 2.2-1.7 4.4-2.4 6.6h.1c5-.1 8.5-.2 10.5-.6l.8-.1c2-.3 3.4-.9 4.3-1.7.1 0 .1 0 .2.1.2 1.4-.1 4.2-1.1 8.5-.5 1.6-1 2.3-1.6 2.4-.8.4-1.8.7-3.2.9-2.5.4-6.7.4-12.7.2-1.9 7.2-3.3 15.3-4.4 24.6-.7 7.2-.8 11.9-.5 14 .2 1.3.6 2 1.2 2.2H170.5c2-.3 5.4-4.8 10.2-13.5.7-1.5 1.2-2.3 1.7-2.3h.1c.4-.1.7.4.9 1.3.4 2.7-.4 6.9-2.3 12.5-.8 2.1-1.9 4.3-3.4 6.6-3.3 4.6-4.9 5.8-8.5 6.8-6 .9-9.7-1.7-10.4-6.3l-.1-.8c-.8-5.4-.4-14.6 1.3-27.9.8-5.8 1.9-11.4 3.2-17.1-.5 0-1.2.1-2 .2l-.7.1h-.2c0 .1-.2.1-.2.1l-.3.1c-3.8.6-6.3 2.1-7.4 4.5-.2.5-.3.8-.3.9h-.1c-.1-.4-.2-.6-.2-.8l-.2-1.4c-.7-4.5.9-7.9 4.9-10.2 2-1.1 4.6-1.9 7.7-2.4l1.8-.3c.6-1.8 1.6-3.6 2.9-5.7.4-.8 1.5-1.3 3.3-1.6h.6z"/><path fill="currentColor" d="M193.5 37.2c-.7 3.6-1.2 6.2-1.5 8 .9-1.5 2-3 3.2-4.5 2.7-3.2 5.6-5.1 8.8-5.6 3.1-.5 5.3.7 6.6 3.4.3.6.5 1.2.6 1.7l.1.3c.8 5.3-2.7 11.5-9.3 14.6 0-.1 0-.1-.1 0 1.1-3.5 1.5-6.3 1.2-8.1-.5-1.9-1.3-2.8-2.4-2.6h-.2c-1.8.3-4 3.1-6.4 8.4-3.5 8.2-4.9 16.8-4.4 20.1 0 .7.1 1.7.3 3v.2c.3 2.1.9 4.1 1.7 5.8-.3.2-.9.4-1.7.6l-.8.1c-2.7.4-5.1-.2-7.3-1.7-1-1-1.6-1.9-1.7-2.6-.1 0-.2-.4-.3-1.3-.9-5.6.3-17.4 3.6-35.1.3-1.3.4-2.1.5-2.2 1.5-1.8 3.2-2.9 5-3.2 1.4-.3 2.9 0 4.5.7zM235.7 32.2c0-.6.8-1.6 2.7-2.8.9-.5 1.8-.9 2.6-1h.1c1.4-.2 3 0 4.6.6 0 .1-.3 1.6-.9 4.4-1 5-1.9 10.8-2.6 17.5-.4 5.2-.5 8.5-.3 9.9.2 1.2.6 1.9 1.2 2.1.2.1.3.1.5.1h.1c1.9-.3 5-4.1 9.2-11.4 1.3-2.4 2.1-3.8 2.3-4.2.3-.2.5-.4.6-.4.4-.1.7.4.9 1.3.4 2.7-.3 6.9-2.3 12.5-.8 2.1-2.1 4.5-3.8 7.2-2.7 3.7-5.4 5.8-8.2 6.2l-.5.1c-3.4.5-6.3-.2-8.4-2.2-.8-.8-1.2-1.8-1.4-2.8v-.2h-.1c-.8 1.6-1.6 3.1-2.5 4.5-1.5 2-3.5 3.1-5.9 3.5-1.9.3-5.2-.1-10.1-1-2.5-1-4.1-3.4-4.7-7.1l-.1-.8c-.7-4.7.1-10.7 2.6-17.9 1-2.8 2.4-5.9 4.3-9.2 4.1-5.9 6.6-8.8 11.1-10.8 1.2-.7 2.3-1.1 3.2-1.3 2.5-.3 4.5.7 5.8 3.2zm-15.8 36.3c.3 1.9.9 2.8 1.7 2.7h.3c2-.3 4.5-3.9 7.4-10.7 1.6-4 2.8-8 3.6-11.8.5-2.9.6-5.1.4-6.6-.2-1.5-.8-2.3-1.9-2.4h-.4c-1.1.2-2.5 1-4.1 2.4-1.2 1.2-2.2 2.7-3 4.2-1.4 2.9-2.5 6-3.2 9.3-1 5.3-1.2 9.6-.8 12.6v.3z"/><path fill="currentColor" d="M265.2 2.6c2.7-.4 4.6-.4 5.7 0 0 .1 0 .1.1.2-.9 2.3-1.7 4.5-2.4 6.7 6.7-.2 11.5-.5 14.5-1 2.7-.4 4.6-1 5.6-1.8h.1c.1.1.2.2.2.3v.3c.3 2 0 4.5-1 7.4-1.2 2.9-2.6 3.5-5.7 4l-.5.1c-3.4.5-8.7.6-16 .4-1.9 7.3-3.4 15.9-4.5 25.7-.6 6.7-.7 11-.4 12.9.2 1.2.6 2 1.2 2.2.1 0 .2.1.4.1h.2c2-.3 5.5-4.9 10.4-13.8.1-.3.4-1.7.6-4.3 1.2-7.5 2.1-13 2.9-16.7 1.5-1.9 3.3-3 5.1-3.3h.2c1.4-.2 2.9 0 4.4.7v.1c-1.6 7-2.7 14.8-3.6 23.2-.3 4.5-.3 7.3-.2 8.5.3 1.7.8 2.4 1.8 2.3 2.1-.3 5.6-5 10.5-14 .5-1.3 1.1-1.9 1.6-2 .4.1.7.5.8 1.3.8 5.3-2.5 14-5.9 19.2-2.7 4-5.6 6.3-8.7 6.7-3.8.6-6.8-.3-8.9-2.6-1.2-1.4-1.5-4.4-1.4-5.6v-.1h-.1c-3.1 7.1-7.2 11-12.3 11.8-3.6.6-6.4-.7-8.5-3.7-.4-.8-.6-1.6-.8-2.6l-.1-.9c-.8-5.1-.4-13.9 1.1-26.4.9-6.8 2.1-13 3.4-18.7-1.5.2-2.3.2-2.7.3-4.5.7-7.2 2.4-8.2 4.9-.1.3-.1.5-.1.5h-.1c-.1-.3-.1-.6-.1-.8l-.2-1.3c-.8-5.3 1.5-9.1 6.9-11.2 1.7-.6 3.5-1.1 5.4-1.4l2-.3c.7-1.9 1.7-3.9 2.8-5.6.4-.8 1.5-1.4 3.3-1.6l1.2-.1z"/><path fill="currentColor" d="M308.4 17.2c3.6-.6 7.7.6 12.3 3.5l1.5 1.5c1.4 1.8 2.4 4.2 2.8 7.3.5 3 .4 6.6-.1 10.8h.1c1.2.1 2.3.1 3.4 0 2.6-.4 4.5-1.7 5.7-3.8.3-.6.6-.9.8-.9h.1c.3 0 .5.1.6.5l.1.4c.3 1.9-.5 4.3-2.4 7.1-2 2.4-4.4 3.8-7.3 4.3-.9.1-1.7.1-2.2.2-2.4 9.6-7.3 15-14.8 16.2-4.5.7-8.7-.2-12.6-2.7-3.5-2.5-5.5-5.9-6.2-10.2-1-6.5.4-13.8 4.3-21.7 3.7-6.8 8.8-11.5 13.4-12.2l.5-.3zm-2 38c.7.2 1.2.2 1.6.2h.3c1.3-.2 3-1.9 5.1-5.1.8-1.4 1.4-2.6 1.9-3.8v-.1c-2.3-.7-3.6-2.2-3.9-4.3v-.2c-.3-1.7.1-3.4 1-5.1 1.1-1.5 2.1-2.3 3.1-2.5.5-.1.8.3 1.1 1 .4.6.9 1.2 1.4 1.6.3-2.8.3-5.1 0-6.9l-.1-.8c-.4-2.6-1.3-4.4-2.8-5.4-.8-.5-1.6-.6-2.4-.5-1.6.2-3.2 1.1-4.9 2.5-2.8 2.7-4.9 6.9-5.9 11s-1.2 7.7-.8 10.8c.7 4.2 2.4 6.7 5.3 7.6z"/><path fill="currentColor" d="M343.2 14c-.6 2.9-1.2 5.5-1.6 7.9v.1h.1c3.5-6.4 7.2-9.8 10.9-10.4l.3-.1c1.7-.3 3.4 0 5.1.9 2 1.4 3.3 4.2 3.9 8.3.7 4.6.4 10.9-.9 18.9-.3 2.5-.4 4.2-.3 5 .4.4.7.5 1.1.5 1.9-.3 5-3.9 9.3-10.8 1.1-2 1.9-3.5 2.5-4.7.3-.5.6-.7.9-.7.4-.1.7.4.9 1.3.8 5-2.4 13.6-5.5 18.7-2.9 4.3-5.9 6.7-9 7.2-4.2.7-7.4-.3-9.5-3-.4-.7-.7-1.6-.8-2.7-.6-3.8-.2-10.8 1.1-21 .4-3.3.6-5.5.4-6.5v-.1c-.1-.9-.6-1.4-1.4-1.6h-.6c-4.2.6-8.6 11.8-10.4 21-.7 3.4-.8 6.5-.3 9.3l.2 1.4c.3 2.1.9 4.1 1.8 5.8 0 .2-.8.4-2.1.7-3.5.5-6.3-.1-8.4-2.1-.9-.8-1.5-2-1.7-3.6-.9-5.8.4-18.1 3.9-36.7 0-.2.5-.8 1.5-1.8 1.3-1 2.5-1.6 3.8-1.8 1.7-.3 3.3-.1 4.8.6zM122.2 107.1c1.2.6 1.9 1.5 2.1 2.8.2 1.2-.1 2.4-.8 3.7-.6.9-1.1 1.6-1.5 2-.8.9-1.5 1.5-2.1 1.9-1.5 1.1-2.8 1.7-4.1 1.9h-.1c-2.1.3-3.7-.5-4.9-2.6h.5c2-.3 4.5-1.4 7.5-3.1 1-.6 1.8-1.3 2.6-2 .4-.4.5-.8.5-1v-.1c-.1-.4-.7-.5-1.9-.4-.1 0-.3 0-.6.1h-.1c-2.7.4-5.3 1.3-7.8 2.8-.8.5-1.6 1.1-2.2 1.7-1.1 1.1-1.7 2.2-1.9 3.5v.9c.3 1.8 2.1 3.2 5.4 4.4 2.8 1 4 1.7 5.9 3 1.1.9 1.9 1.8 2.3 2.8.4.7.6 1.3.7 2 .3 1.9-.4 3.7-2.2 5.3-1.7 1.6-3.8 2.5-6.2 2.9h-.1c-2.7.4-5.2 0-7.4-1.3-.8-.5-1.3-.9-1.5-1.2-.8-.8-1.2-1.7-1.3-2.5v-.3c-.1-.9.1-2 .8-3.2.5-.8 1-1.3 1.4-1.6.7-.5 1.3-.8 1.9-.9h.3c1-.2 2.1.1 3.4.9.8.5 1.2.9 1.4 1.1l.2.2s-.3.1-.9.2c-1.8.5-3.1 1.1-3.9 2.2-.3.4-.4.8-.3 1.2v.2c.1.6.6 1.1 1.5 1.5 1.2.4 2.4.5 3.6.3 1.5-.2 2.7-.8 3.6-1.8.7-.8.9-1.6.8-2.5v-.1c-.3-2-2.5-4-6.5-6-1.1-.6-2.2-1.2-3.3-1.9-2.3-1.6-3.6-3.4-3.9-5.2v-.1c-.2-1.5.2-3 1.2-4.6.6-.9 1.1-1.5 1.6-1.9 1.3-1.3 2.9-2.4 4.8-3.4 2.1-1 4.1-1.7 6.1-2 2.2-.4 3.9-.3 5.4.2zM132.8 117.3c0-.2.3-.6 1-1 .3-.2.6-.3 1-.4.5-.1 1.1 0 1.7.2 0 0-.1.6-.3 1.6-.4 1.8-.7 3.9-.9 6.4-.2 1.9-.2 3.1-.1 3.6.1.4.2.7.4.8h.2c.7-.1 1.8-1.5 3.3-4.2.5-.9.8-1.4.8-1.5.1-.1.2-.1.2-.1.1 0 .2.1.3.5.2 1-.1 2.5-.8 4.6-.3.8-.8 1.6-1.4 2.6-1 1.3-2 2.1-3 2.3h-.2c-1.2.2-2.3-.1-3.1-.8-.3-.3-.4-.6-.5-1v-.1c-.3.6-.6 1.1-.9 1.6-.6.7-1.3 1.1-2.1 1.3-.7.1-1.9 0-3.7-.4-.9-.4-1.5-1.2-1.7-2.6v-.3c-.3-1.7 0-3.9.9-6.5.4-1 .9-2.1 1.6-3.4 1.5-2.1 2.4-3.2 4-3.9.4-.3.8-.4 1.2-.5.8-.1 1.5.3 2.1 1.2zm-5.8 13.2c.1.7.3 1 .6 1h.1c.7-.1 1.6-1.4 2.7-3.9.6-1.5 1-2.9 1.3-4.3.2-1.1.2-1.9.1-2.4s-.3-.8-.7-.9h-.2c-.4.1-.9.4-1.5.9-.4.5-.8 1-1.1 1.5-.5 1.1-.9 2.2-1.2 3.4-.4 1.9-.5 3.5-.3 4.6l.2.1z"/><path fill="currentColor" d="M145.2 113.5c2.3-.4 3.9.2 4.8 1.6.3.4.4.9.5 1.3.1.9 0 1.9-.5 2.9-.6 1.1-1.3 1.6-2.1 1.8h-.1c-.8.1-1.6-.3-2.3-1.3-.1-.1-.1-.2-.1-.2 2-1.2 3-2.1 2.9-2.6 0-.3-.6-.4-1.6-.4h-.3c-1 .2-2.1.8-3.3 2-.9 1-1.3 1.8-1.2 2.5.1.8.8 1.3 2.2 1.5.7.2 1.5.5 2.3.9 1.5.9 2.4 2 2.6 3.4.2 1.5-.3 2.7-1.5 3.8-.8.7-1.9 1.1-3.2 1.3-1.7.3-3.1-.1-4.1-1.1-.3-.3-.5-.7-.5-1.1-.1-.8.1-1.6.6-2.4.3-.4.7-.7 1.2-.7.6-.1 1.2.1 1.9.7-.4.5-.5.9-.5 1.2.1.5.6.7 1.5.6h.2c.8-.1 1.5-.4 1.9-.9.2-.2.2-.4.2-.7-.1-.8-1.5-1.5-4.2-2.1-2.5-.7-3.9-2.1-4.3-4.2-.2-1.5.2-3.1 1.2-4.6 1.4-1.8 3.3-2.9 5.5-3.3l.3.1zM161.4 112.9c.4.5.7 1.1.8 1.9v.2c.3 1.7-.1 3-1.3 3.7-.4.3-.8.4-1.3.5-.8.1-1.5 0-2-.4-.1-.1-.1-.1-.1-.2.9-1 1.5-1.9 1.8-2.6.4-.8.5-1.3.5-1.6 0-.2-.2-.3-.4-.3-1 .2-1.9 1-2.9 2.4-1.1 1.7-1.8 3.4-2 5.2-.1.9-.1 1.6 0 2.2.2 1.1.7 1.8 1.6 2h.7c1.5-.2 3.3-1.7 5.4-4.5.8-1.1 1.3-2 1.6-2.5.2-.2.3-.3.4-.3.1 0 .2.1.2.2.1.5-.1 1.5-.5 2.9-.2.8-.6 1.5-1.1 2.4-.7 1.1-1.3 1.9-1.7 2.3-1.2 1.2-2.4 2-3.7 2.4-.3.1-.7.2-1 .3h-.3c-1.3.2-2.6 0-3.8-.7-1.1-.7-1.8-1.8-2.1-3.2-.3-2 .2-4.4 1.6-7.2.3-.6.9-1.6 1.7-2.8 1.6-2.1 3.2-3.2 4.6-3.5 1.3 0 2.3.3 3.3 1.2z"/><path fill="currentColor" d="M167.9 102.8c1.3-.2 2-.1 2 .1-1.1 2.5-2 6-2.8 10.4.9-1.8 2-2.8 3.2-3h.3c.6-.1 1.4 0 2.3.3.9.4 1.4 1.4 1.7 2.9l.1.4c.3 1.6.1 3.9-.4 6.9-.1.8-.1 1.4-.1 1.7.1.1.2.2.4.2h.1c.7-.1 1.8-1.4 3.4-4l1-1.7c.1-.1.2-.2.3-.2.1 0 .2.1.3.5.1.9-.1 2.4-.8 4.4-.3.7-.7 1.5-1.2 2.4-1 1.6-2.1 2.5-3.3 2.6h-.2c-2 .3-3.4-.7-3.6-2.1-.2-1.4-.1-4 .4-7.6.1-1.5.2-2.6.1-3.2-.1-.7-.4-1-.8-1-1.5.2-2.9 3.8-3.6 7.6-.3 1.9-.4 3.3-.2 4.2v.3c.2 1.1.4 2 .8 2.7-.1.1-.4.2-.7.2h-.2c-1.2.2-2.2-.1-3.1-.8-.3-.3-.6-.9-.7-1.6-.3-2.1-.1-5.8.5-10.9.8-4.9 1.7-8.4 2.8-10.5.3-.6.6-.9.9-1 .2-.1.4-.1.6-.2h.5z"/><path fill="currentColor" d="M186.8 108.9c0-.2.3-.6 1-1 .3-.2.6-.3 1-.4.5-.1 1.1 0 1.7.2 0 0-.1.6-.3 1.6-.4 1.8-.7 3.9-.9 6.4-.2 1.9-.2 3.1-.1 3.6.1.4.2.7.4.8h.2c.7-.1 1.8-1.5 3.3-4.2.5-.9.8-1.4.8-1.5.1-.1.2-.1.2-.1.1 0 .2.1.3.5.2 1-.1 2.5-.8 4.6-.3.8-.8 1.6-1.4 2.6-1 1.3-2 2.1-3 2.3h-.2c-1.2.2-2.3-.1-3.1-.8-.3-.3-.4-.6-.5-1v-.1c-.3.6-.6 1.1-.9 1.6-.6.7-1.3 1.1-2.1 1.3-.7.1-1.9 0-3.7-.4-.9-.4-1.5-1.2-1.7-2.6v-.3c-.3-1.7 0-3.9.9-6.5.4-1 .9-2.1 1.6-3.4 1.5-2.1 2.4-3.2 4-3.9.4-.3.8-.4 1.2-.5.9-.1 1.6.3 2.1 1.2zm-5.8 13.2c.1.7.3 1 .6 1h.1c.7-.1 1.6-1.4 2.7-3.9.6-1.5 1-2.9 1.3-4.3.2-1.1.2-1.9.1-2.4s-.3-.8-.7-.9h-.2c-.4.1-.9.4-1.5.9-.4.5-.8 1-1.1 1.5-.5 1.1-.9 2.2-1.2 3.4-.4 1.9-.5 3.5-.3 4.6l.2.1zM229.5 91.1c.5-.1.8-.1.8 0-.5.8-.9 1.5-1.1 2.2-1.3 3-2.4 7-3.4 12-1 5.6-1.2 10.3-.6 14l.1.4c.2 1.4.6 2.7 1.1 4h-.1c-.7 0-1.6-.4-2.8-1.1-.5-.3-.8-.6-1.1-.9-.7-.7-1.3-1.6-1.7-2.5-2-3.4-4-9.4-5.6-15.7-.1-.5-.2-.9-.3-1.4-.5 1.3-.9 2.4-1.1 3.3-.5 1.4-.8 3.3-1 5.7-.2 2.9-.2 4.9-.1 6l.4 2.6c0 .1.1.3.1.6-.3.1-2.1-1.4-2.7-2.2-.6-.8-1-1.5-1.2-2.1-.1-.5-.2-.9-.3-1.2v-.3c-.4-2.8 0-6.4 1.5-10.8.5-1.5 1.1-2.9 1.7-4.2-2.7.9-4.1 2.1-5.5 3.5-.4.4-.7.9-1.2 1.5-1.2 1.9-1.7 3.3-2 4.8 0 .2-.1.6-.1 1.2-1.3-.3-2-1.8-2.1-2.6-.1-.7-.1-1.6.1-2.8.5-2.4 1.8-4.4 4-5.9 1.2-.9 4.4-2.4 7.6-2.9l.5-.1c1.4-.2 2.1-.2 2.2-.1.1 0 .4.5.9 1.4.1.1.1.2.1.3 0 .4.1.7.1 1 .4 2.4 1.3 5.9 2.9 10.5.6 1.7 1.1 2.8 1.6 3.5 0-1.9.1-3.7.3-5.5.6-5.8 1.4-10.1 2.5-13.2.4-1.2.8-1.6 1.6-2 1.2-.6 2.5-1 3.9-1.2v.2z"/><path fill="currentColor" d="M236.6 101.2c0-.2.3-.6 1-1 .3-.2.6-.3 1-.4.5-.1 1.1 0 1.7.2 0 0-.1.6-.3 1.6-.4 1.8-.7 3.9-.9 6.4-.2 1.9-.2 3.1-.1 3.6.1.4.2.7.4.8h.2c.7-.1 1.8-1.5 3.3-4.2.5-.9.8-1.4.8-1.5.1-.1.2-.1.2-.1.1 0 .2.1.3.5.2 1-.1 2.5-.8 4.6-.3.8-.8 1.6-1.4 2.6-1 1.3-2 2.1-3 2.3h-.2c-1.2.2-2.3-.1-3.1-.8-.3-.3-.4-.6-.5-1v-.1c-.3.6-.6 1.1-.9 1.6-.6.7-1.3 1.1-2.1 1.3-.7.1-1.9 0-3.7-.4-.9-.4-1.5-1.2-1.7-2.6v-.3c-.3-1.7 0-3.9.9-6.5.4-1 .9-2.1 1.6-3.4 1.5-2.1 2.4-3.2 4-3.9.4-.3.8-.4 1.2-.5.9-.1 1.6.3 2.1 1.2zm-5.7 13.2c.1.7.3 1 .6 1h.1c.7-.1 1.6-1.4 2.7-3.9.6-1.5 1-2.9 1.3-4.3.2-1.1.2-1.9.1-2.4s-.3-.8-.7-.9h-.2c-.4.1-.9.4-1.5.9-.4.5-.8 1-1.1 1.5-.5 1.1-.9 2.2-1.2 3.4-.4 1.9-.5 3.5-.3 4.6l.2.1z"/><path fill="currentColor" d="M247.3 90.5c1.2-.1 1.9-.1 1.9 0 0 0-.1.4-.5 1.2-.6 1.8-1.3 4-1.8 6.7.5-.3 1-.5 1.5-.6s1.6.1 3.1.4c1.2.5 1.9 1.8 2.2 3.9.4 2.3.1 4.8-.7 7.5-.3.8-.7 1.6-1.2 2.5-.6.8-.9 1.2-1.2 1.4-.7.7-1.3 1-1.8 1.1h-.1c-.7.1-1.6-.1-2.6-.7.1.4.3.8.5 1.1-.1.1-.4.2-.7.2h-.1c-1.2.2-2.3-.1-3.1-.8-.3-.4-.5-.8-.6-1.2-.1-.2-.1-.4-.1-.6-.2-1-.1-2.9 0-5.6.4-4.5 1-8.3 1.9-11.5.4-1.5.9-2.8 1.4-3.9.1-.3.3-.6.7-1 .2-.1.5-.2.9-.3l.4.2zm-.9 21c.5-.2.8-.3 1-.4 1.1-.8 1.9-2.4 2.4-4.7.3-1.8.4-3.4.2-4.6l-.1-.3c-.1-.7-.3-1.2-.7-1.3h-.2c-.7.1-1.5 1.4-2.4 4-.9 2.8-1.3 4.9-1.1 6.5.2.6.5.9.9.8zM260 97c-.2 1.3-.4 2.3-.6 2.9.3-.5.7-1.1 1.1-1.6 1-1.2 2-1.8 3.2-2 1.1-.2 1.9.2 2.4 1.2.1.2.2.4.2.6v.1c.3 1.9-1 4.2-3.4 5.3.4-1.3.6-2.3.4-3-.2-.7-.5-1-.9-.9h-.1c-.7.1-1.4 1.1-2.3 3.1-1.3 3-1.8 6.1-1.6 7.3 0 .3.1.6.1 1.1v.1c.1.8.3 1.5.6 2.1-.1.1-.3.2-.6.2h-.3c-1 .2-1.9-.1-2.7-.6-.4-.4-.6-.7-.6-1 0 0-.1-.2-.1-.5-.3-2 .1-6.3 1.3-12.8.1-.5.2-.8.2-.8.5-.7 1.2-1.1 1.8-1.2.8.1 1.3.2 1.9.4zM272.9 94.2c1.3-.2 2.8.2 4.5 1.3l.6.6c.5.7.9 1.5 1 2.6.2 1.1.2 2.4 0 3.9h1.2c.9-.1 1.7-.6 2.1-1.4.1-.2.2-.3.3-.3.1 0 .2 0 .2.2v.1c.1.7-.2 1.6-.9 2.6-.7.9-1.6 1.4-2.7 1.6-.3 0-.6.1-.8.1-.9 3.5-2.7 5.5-5.4 5.9-1.6.3-3.2-.1-4.6-1-1.3-.9-2-2.1-2.3-3.7-.4-2.4.1-5 1.6-7.9 1.4-2.5 3.2-4.2 4.9-4.4l.3-.2zm-.7 13.9c.2.1.4.1.6.1h.1c.5-.1 1.1-.7 1.9-1.8.3-.5.5-1 .7-1.4-.8-.3-1.3-.8-1.4-1.6v-.1c-.1-.6 0-1.2.4-1.9.4-.6.8-.9 1.1-.9.2 0 .3.1.4.4.1.2.3.4.5.6.1-1 .1-1.8 0-2.5v-.3c-.1-.9-.5-1.6-1-2-.3-.2-.6-.2-.9-.2-.6.1-1.2.4-1.8.9-1 1-1.8 2.5-2.1 4-.3 1.5-.4 2.8-.3 3.9.1 1.5.7 2.4 1.8 2.8z"/><path fill="currentColor" d="M285.8 84.4c1.4-.2 2.1-.2 2.2.1l-.9 2.4c1.8 0 3.1-.1 3.8-.2h.3c.7-.1 1.2-.3 1.6-.6l.1.1c.1.5 0 1.5-.4 3.1-.2.6-.4.9-.6.9-.3.2-.7.3-1.2.3-.9.1-2.4.2-4.6.1-.7 2.6-1.2 5.6-1.6 8.9-.2 2.6-.3 4.3-.2 5.1.1.5.2.7.4.8H285c.7-.1 2-1.7 3.7-4.9.2-.5.5-.8.6-.8.1 0 .3.1.3.5.2 1-.1 2.5-.8 4.6-.3.8-.7 1.6-1.2 2.4-1.2 1.7-1.8 2.1-3.1 2.5-2.2.3-3.5-.6-3.8-2.3v-.3c-.3-2-.1-5.3.5-10.1.3-2.1.7-4.2 1.2-6.2-.2 0-.4 0-.7.1h-.6c-1.4.2-2.3.8-2.7 1.6-.1.2-.1.3-.1.3 0-.1-.1-.2-.1-.3l-.1-.5c-.3-1.6.3-2.9 1.8-3.7.7-.4 1.7-.7 2.8-.9l.7-.1c.2-.6.6-1.3 1-2.1.1-.3.5-.5 1.2-.6l.2-.2z"/><path fill="currentColor" d="M301.6 90c.2 0 .3 0 .3.2.3 1.1.5 1.9.5 2.3.1.7-.8 2.2-2.6 4.5-2.1 2.7-3.8 4.8-5 6.5.6-.3 1.3-.5 2-.6 1.2-.2 2.4-.1 3.8.3 1.1.4 1.9 1 2.4 1.8.4.7.6 1.3.7 2 .2 1 .1 1.8-.2 2.4l-.1.1s-.2-.2-.4-.5c-1.9-1.8-4.4-2.5-7.7-2-1.3.2-2.8.6-4.3 1.2-.7.1-1.4-.5-2.2-1.7-.1-.1-.1-.2-.1-.2 1.8-2.1 3.9-4.8 6.4-8 1.8-2.5 3-4.1 3.5-4.8-.3.1-.6.2-.9.2h-.2c-.3 0-1.1.1-2.6.2-.1 0-.2 0-.5.1-1.3.2-2.5.8-3.7 1.8-.2-.4-.4-.8-.4-1.1-.2-1.3.5-2.4 2.1-3.2.3-.1.7-.2 1.1-.3h.2c.2 0 1.3-.1 3-.2l.8-.1c.7-.1 2-.4 4-.9h.1z"/><path fill="currentColor" d="m310.3 81 .1.1c-1 2.3-1.8 5.4-2.6 9.3l-.2 1c1.2-2.1 2-2.7 3.1-2.9.6-.1 1.3.1 2.2.6 1 .6 1.5 1.4 1.7 2.3.3 2-1.1 4-4.1 6.1-.7.5-1 .7-1 .8 0 0 0 .1.1.4.1.9.6 1.8 1.4 2.5.5.4 1.1.6 1.6.5 1.1-.2 2.5-1.6 3.9-4.3.2-.3.5-.9 1.1-2 .1-.2.2-.2.3-.3.2 0 .3.2.4.5.3 2.2-1.2 5.6-2.3 7.6-.7.9-1.2 1.6-1.6 1.9-.4.3-.7.5-.9.5-1.4.2-2.8-.7-4.3-2.9-.8-1.3-1.3-2.6-1.5-3.8-.1-.8-.1-1.2 0-1.3 2.6-1.7 4.4-3.3 4.3-4.5-.1-.4-.4-.8-1.1-1.1h-.4c-1 .2-1.9 1.3-2.8 3.5-.3.9-.5 1.7-.7 2.4-.4 1.9-.4 3.5-.2 4.9v.3c.2 1 .5 1.9 1 2.6 0 .1-.3.1-.7.2-1.4.2-2.5-.1-3.3-.9-.3-.3-.5-.8-.6-1.5-.4-2.3-.1-6.1.6-11.4.9-5.3 1.9-8.8 3-10.5.1-.3.5-.5 1-.6.1 0 .2-.1.5-.1.8 0 1.5 0 2 .1z"/><path fill="currentColor" d="M327.2 85.7c.5-.1 1 0 1.6.2-.6 2.8-1.1 6.1-1.4 9.8-.3 3.4-.7 6.2-.9 8.5-.4 3.1-.9 5.6-1.3 7.4-.3 1.1-.7 2.1-1.3 3-1.2 2-2.7 3.1-4.4 3.3h-.2c-1.1.2-2.3 0-3.6-.6-.5-.3-.9-.6-1.1-.9-.8-1-1.3-2.2-1.5-3.6-.3-2.1 0-4 1.1-5.7 1-1.3 1.7-1.9 2.9-2.1 1.2-.2 2.4.1 3.5.8.6.5 1 1.1 1.1 1.6-3.7.6-5.4 2.3-4.9 5v.2c.2 1.1.6 1.9 1.3 2.5.3.2.6.3.9.2 1.1-.2 2.1-1.9 2.9-5 .4-1.8.8-4.7 1.2-8.7l.3-2.1c-.2.4-.5.9-1 1.6-.8 1.1-1.5 1.7-1.9 2-.4.2-.8.4-1.1.4h-.1c-1.6.2-2.7-1.2-3.1-3.3-.5-3 .6-9.4 1.1-11.3.4-1.3 1.1-2.1 2.1-2.2.5-.1 1.1 0 1.7.1-.4 1.8-.8 4-1.1 6.7-.2 2.6-.3 4.1-.2 4.7v.2c.1.6.3.9.7.9h.1c.7-.1 1.5-.9 2.4-2.5.8-1.4 1.3-2.9 1.4-4.3.3-2.2.7-4.2 1-6 .6-.7 1.2-1.1 1.9-1.2l-.1.4z"/></svg>