<svg xmlns="http://www.w3.org/2000/svg" xml:space="preserve" id="svg10724" x="0" y="0" style="enable-background:new 0 0 40 40" version="1.1" viewBox="0 0 40 40"><style>.st0{fill:none;stroke:currentColor;stroke-width:3;stroke-linecap:round;stroke-linejoin:round}</style><path d="M3.9 38.5c-1.8-13.6-4.8-36 1.7-37C12.5.4 17.1 4.6 17.2 8.3c.1 10.4-12 10.2-12 10.2.3 2.3 14.5-3.4 16.4 9 .7 4.7-1 12.1-14.1 10.9M29.6 27.2h8.8s0-8.8-6.3-8.8c-6.7 0-6.9 5.9-7 9.2-.1 3.5.6 10.4 7.6 10.5 2.3 0 5.7-3.7 5.7-6M25.8 12.5l11.6.6" class="st0"/></svg>