<svg xmlns="http://www.w3.org/2000/svg" xml:space="preserve" id="svg10724" x="0" y="0" style="enable-background:new 0 0 40 40" version="1.1" viewBox="0 0 40 40"><style>.st0{fill:none;stroke:currentColor;stroke-width:3;stroke-linecap:round;stroke-linejoin:round}</style><path d="M9.2 31.7C8 22.8 6 8.1 10.3 7.4c4.5-.7 6.5 2 6.6 4.5.1 6.8-6.9 6.7-6.9 6.7.2 1.5 7.6-2.2 8.9 5.9.5 3.1 1.2 7.9-7.3 7.1M26 20.1h5.8s0-5.8-4.1-5.8c-4.4 0-4.5 3.9-4.6 6-.1 2.3.4 11 5 11 1.5 0 3.7-2.4 3.7-3.9M23.5 9.6l7.6.4" class="st0"/><path id="path11212" d="M28.3 1.7c2.7-.1 5.1.6 6.3 1.5C38 6.1 38 8.7 38.4 14.1c.1 1.8.1 9.1.1 10.9-.1 4.5-.7 9.1-3 10.8-5.2 3.8-10.9 1.8-16.7 2.3-2.5.2-12.4 1.5-15-2.9-3.2-5.3-2-17.8-1.6-25.7 0-2.9 2.6-6.5 4.7-7.1 6.8-.8 10-1 15.9-.5" class="st0"/></svg>