<?xml version="1.0" encoding="UTF-8" standalone="no"?>
<svg
   preserveAspectRatio="xMidYMid"
   viewBox="0 0 40 40"
   version="1.1"
   id="svg10724"
   xmlns="http://www.w3.org/2000/svg"
   xmlns:svg="http://www.w3.org/2000/svg">
  <defs
     id="defs10728" />
  <path
     style="fill:none;stroke:currentColor;stroke-width:3;stroke-linecap:round;stroke-linejoin:round"
     d="M 1.7690487,11.690024 C 1.6459356,8.9640875 2.3640098,6.5605186 3.2999598,5.4184858 6.1360252,1.9579594 8.6845646,2.0239109 14.166906,1.6239459 15.961184,1.4930441 23.300002,1.477991 25.084042,1.503484 c 4.458588,0.063711 9.05047,0.7223588 10.783295,3.0491872 3.8487,5.1680158 1.773376,10.9378118 2.267084,16.7140568 0.214285,2.507069 1.467312,12.417996 -2.936328,15.042647 C 29.855447,39.49369 17.413409,38.31475 9.4821518,37.928067 6.6477807,37.789879 2.9807329,35.139425 2.3797335,33.109611 1.5527835,26.294201 1.3320721,23.077681 1.9112592,17.208668"
     id="path11212" />
  <path
     style="fill:none;stroke:currentColor;stroke-width:3;stroke-linecap:round;stroke-linejoin:round"
     d="m 19.11099,12.533258 c -3.550222,-0.401788 -7.131438,3.717812 -7.830228,6.143546 -2.0300121,7.046854 8.547434,13.40852 13.627608,8.033289 1.825874,-1.93192 3.66341,-5.174478 2.894502,-7.845074 -0.667521,-2.318455 -2.573224,-4.568479 -4.140981,-5.149733"
     id="path11214" />
  <path
     style="fill:none;stroke:currentColor;stroke-width:3;stroke-linecap:round;stroke-linejoin:round"
     d="m 29.166469,6.7736816 c -0.433575,-0.2826352 -1.038042,-0.5595513 -1.363597,0.00753 -0.271415,0.4727749 -0.321675,1.0925571 0.0502,1.5358887 2.469846,2.9444667 3.76865,-1.9692186 1.405423,-1.9349179"
     id="path11216" />
</svg>
