<svg xmlns="http://www.w3.org/2000/svg" xml:space="preserve" viewBox="0 0 370.769 127.939"><path d="M18.802 44.555c-3.292 0-6.723.555-10.361 1.698-3.327 1.075-6.203 2.495-8.63 4.228-.866.555-1.87 1.456-3.084 2.703-2.044 2.322-3.084 4.679-3.084 7.104v.243c0 2.946 1.664 6.065 4.99 9.288a57.554 57.554 0 0 0 4.852 3.95c5.995 4.193 8.976 7.97 8.976 11.298v.104c0 1.42-.624 2.668-1.906 3.777-1.768 1.317-3.847 1.975-6.273 1.975-1.94 0-3.847-.45-5.683-1.386-1.352-.901-2.045-1.837-2.045-2.842v-.277c0-.554.277-1.143.797-1.802 1.49-1.56 3.674-2.149 6.758-2.53 1.005-.034 1.525-.069 1.525-.104a3.555 3.555 0 0 0-.312-.45c-.173-.381-.797-1.11-1.94-2.183-1.872-1.525-3.64-2.288-5.268-2.288h-.45c-.971 0-2.046.312-3.224.936-.693.312-1.594 1.04-2.668 2.183-1.352 1.698-2.045 3.327-2.045 4.887v.52c0 1.35.52 2.806 1.525 4.331.243.45.936 1.213 2.08 2.287 3.222 2.6 7.069 3.916 11.505 3.916h.138c3.95 0 7.52-1.04 10.709-3.118 3.222-2.288 4.851-4.956 4.851-8.04 0-1.075-.208-2.184-.658-3.327-.52-1.629-1.56-3.292-3.05-5.025-2.634-2.634-4.54-3.985-8.698-6.342C3.035 67.601.47 64.794.47 61.883c0-.416.07-.901.208-1.456.659-1.906 1.94-3.604 3.916-5.094a21.533 21.533 0 0 1 3.95-2.183c4.367-1.698 8.768-2.53 13.239-2.53h.173c.52 0 .866 0 1.005.034 1.906.104 2.876.486 2.876 1.11v.138c0 .312-.346.797-1.04 1.42a24.683 24.683 0 0 1-4.712 2.565c-5.199 2.114-9.461 3.189-12.788 3.189h-.242c-.174 0-.416 0-.728-.035 0 .035 0 .035-.035.035 1.386 3.604 3.812 5.406 7.243 5.406h.243c2.044 0 4.4-.693 7-2.045 1.074-.52 2.356-1.351 3.846-2.53.728-.52 1.699-1.455 2.911-2.807 1.525-1.94 2.288-3.881 2.288-5.787 0-2.08-.901-3.743-2.703-4.956-2.218-1.213-4.99-1.802-8.318-1.802zm19.65 18.402c-.555 0-1.213.139-1.976.45-2.772.797-4.54 2.253-7.45 5.337-1.421 1.768-2.53 3.431-3.362 4.99-2.08 4.02-3.119 7.451-3.119 10.258v.485c0 2.218.693 3.743 2.08 4.575 2.737 1.005 4.643 1.525 5.787 1.525 1.42 0 2.668-.52 3.743-1.525a21.97 21.97 0 0 0 1.87-2.391h.036v.104c0 .589.173 1.178.554 1.732 1.074 1.352 2.668 2.045 4.713 2.045h.312c1.629 0 3.396-.97 5.337-2.876 1.213-1.387 2.183-2.669 2.841-3.847 1.664-3.084 2.496-5.475 2.496-7.104-.035-.59-.14-.867-.382-.867-.034 0-.173.07-.38.174-.174.173-.729.935-1.734 2.218-3.118 3.916-5.267 5.856-6.41 5.856h-.035c-.104 0-.174-.034-.278-.104-.311-.173-.485-.624-.485-1.351 0-.867.347-2.807 1.075-5.788 1.005-3.846 2.044-7.208 3.084-10.015.589-1.594.9-2.426.9-2.495-.9-.52-1.767-.797-2.633-.797h-.035c-.52 0-1.074.104-1.628.347-1.213.589-1.802 1.074-1.802 1.42h-.035c-.59-1.56-1.629-2.356-3.084-2.356zM28.99 84.893c0-1.836.52-4.297 1.594-7.312.728-1.871 1.629-3.57 2.738-5.129a11.662 11.662 0 0 1 2.148-2.183c1.075-.693 1.976-1.04 2.634-1.04l.243.035c.589.173.866.693.866 1.594 0 .901-.277 2.183-.832 3.847a40.236 40.236 0 0 1-3.153 6.55c-2.322 3.708-4.09 5.579-5.302 5.579h-.174c-.52 0-.762-.59-.762-1.733zm33.095-22.63c-3.639 0-6.861 1.318-9.634 3.917-2.044 2.183-3.084 4.54-3.084 7.07 0 3.465 1.94 6.064 5.787 7.831 4.124 1.63 6.169 3.085 6.169 4.332 0 .381-.173.728-.485 1.04-.867.693-1.976 1.04-3.327 1.04H57.2c-1.456-.14-2.183-.59-2.183-1.352 0-.52.346-1.144 1.04-1.871-1.006-1.075-1.976-1.595-2.912-1.595-.797 0-1.49.278-2.148.867-1.04 1.109-1.56 2.322-1.56 3.639 0 .693.208 1.351.59 1.975 1.282 1.871 3.36 2.807 6.237 2.807 2.08 0 3.882-.416 5.406-1.282 2.253-1.49 3.362-3.397 3.362-5.788 0-2.252-1.11-4.262-3.292-6.099-1.213-.9-2.392-1.594-3.466-2.08-2.044-.727-3.084-1.732-3.084-2.98 0-1.212.832-2.46 2.53-3.777 2.218-1.56 4.158-2.322 5.856-2.322h.485c1.63.208 2.461.555 2.461 1.075 0 .831-1.767 1.975-5.302 3.465 0 .035.034.173.138.381.867 1.768 2.01 2.634 3.362 2.634h.243c1.316 0 2.564-.762 3.777-2.322 1.005-1.56 1.49-3.084 1.49-4.54 0-.797-.139-1.56-.45-2.287-1.11-2.53-3.57-3.777-7.382-3.777zm21.52.729c-2.39 0-5.163 1.455-8.282 4.4-1.698 1.768-2.876 3.154-3.465 4.09-2.877 4.228-4.297 7.97-4.297 11.228 0 2.357.831 4.263 2.495 5.718 1.802 1.42 3.777 2.114 5.891 2.114h.52c.554 0 1.109-.07 1.663-.208 2.184-.312 4.367-1.317 6.585-2.98.797-.52 1.906-1.594 3.327-3.223.935-1.282 1.698-2.46 2.287-3.604.935-2.183 1.455-3.708 1.49-4.575-.035-.311-.139-.45-.312-.45-.208 0-.45.139-.762.45-.52.763-1.56 1.941-3.12 3.57-4.089 3.916-7.346 5.891-9.772 5.891h-.173c-.243 0-.59-.07-1.04-.173-1.386-.59-2.08-1.802-2.08-3.639 0-1.04.209-2.252.59-3.604.866-2.807 2.391-5.44 4.54-7.901 2.079-2.08 3.708-3.015 5.337-3.154.38.07.589.243.589.555 0 .52-.381 1.351-1.179 2.495-.727 1.005-1.906 2.252-3.604 3.673 0 .07.035.173.139.312.728.797 1.767 1.178 3.154 1.178.831 0 1.594-.138 2.287-.45 1.975-.936 2.945-2.807 2.945-5.649v-.381c0-1.282-.277-2.391-.797-3.258-1.282-1.628-2.91-2.425-4.955-2.425zm17.363-12.234c-.416 0-.763.035-1.075.104-.45 0-1.04.45-1.698 1.317-2.252 3.05-4.643 8.421-7.104 16.15-2.391 8.074-3.604 13.896-3.604 17.43v.035c0 1.213.243 2.114.693 2.738 1.144 1.352 2.703 2.01 4.713 2.01h.347c.52 0 .9-.07 1.143-.173-.45-1.213-.658-2.703-.658-4.47v-.52c0-1.49.485-3.743 1.42-6.689 2.08-5.926 5.164-11.367 7.625-11.367h.034c.659 0 1.005.59 1.005 1.733 0 1.005-.311 2.738-.9 5.129-1.699 5.787-2.565 9.842-2.565 12.164 0 2.218 1.871 4.193 5.233 4.193h.312c1.871 0 3.846-1.144 5.891-3.43 1.04-1.214 1.871-2.392 2.495-3.5 1.56-3.016 2.357-5.338 2.357-6.897-.035-.59-.139-.867-.347-.867-.104 0-.277.07-.45.208l-2.01 2.53c-3.154 3.708-5.302 5.58-6.446 5.58h-.104c-.243 0-.416-.14-.555-.382 0-.485.174-1.386.52-2.668 1.525-4.61 2.287-8.248 2.287-10.916v-.693c0-2.426-.658-4.09-1.94-5.025-1.352-.728-2.565-1.075-3.604-1.075h-.416c-1.906 0-3.847 1.317-5.822 3.986h-.035v-.035c2.426-6.827 4.783-12.164 7.104-15.976 0-.346-1.074-.554-3.257-.624zm26.372 12.199c-.555 0-1.213.139-1.975.45-2.773.797-4.54 2.253-7.451 5.337-1.421 1.768-2.53 3.431-3.362 4.99-2.079 4.02-3.119 7.451-3.119 10.258v.485c0 2.218.694 3.743 2.08 4.575 2.737 1.005 4.643 1.525 5.787 1.525 1.42 0 2.668-.52 3.743-1.525a21.97 21.97 0 0 0 1.871-2.391h.035v.104c0 .589.173 1.178.554 1.732 1.074 1.352 2.669 2.045 4.713 2.045h.312c1.629 0 3.396-.97 5.337-2.876 1.213-1.387 2.183-2.669 2.842-3.847 1.663-3.084 2.495-5.475 2.495-7.104-.035-.59-.139-.867-.381-.867-.035 0-.174.07-.382.174-.173.173-.727.935-1.732 2.218-3.12 3.916-5.268 5.856-6.411 5.856h-.035c-.104 0-.173-.034-.277-.104-.312-.173-.485-.624-.485-1.351 0-.867.346-2.807 1.074-5.788 1.005-3.846 2.044-7.208 3.084-10.015.59-1.594.901-2.426.901-2.495-.9-.52-1.767-.797-2.634-.797h-.034c-.52 0-1.075.104-1.629.347-1.213.589-1.802 1.074-1.802 1.42h-.035c-.589-1.56-1.629-2.356-3.084-2.356zm-9.46 21.936c0-1.836.519-4.297 1.593-7.312.728-1.871 1.63-3.57 2.738-5.129a11.662 11.662 0 0 1 2.149-2.183c1.074-.693 1.975-1.04 2.633-1.04l.243.035c.59.173.866.693.866 1.594 0 .901-.277 2.183-.831 3.847a40.235 40.235 0 0 1-3.154 6.55c-2.322 3.708-4.09 5.579-5.302 5.579h-.173c-.52 0-.763-.59-.763-1.733zm85.32-37.635c-2.288 0-4.471.347-6.55 1.04-1.283.52-2.045 1.074-3.016 2.876-2.39 4.575-4.817 11.402-7.242 20.516a77.743 77.743 0 0 0-1.768 8.733h-.035c-.52-1.248-1.074-3.258-1.628-6.065-1.421-7.866-2.114-13.758-2.114-17.674 0-.485.034-1.04.104-1.698 0-.069-.035-.208-.104-.45-.659-1.629-1.04-2.46-1.144-2.46 0-.209-1.178-.347-3.5-.417h-.901c-5.233 0-10.639 1.63-12.857 2.773-3.985 1.975-6.619 4.817-7.97 8.525-.59 1.871-.867 3.361-.867 4.505 0 1.352.763 3.881 2.703 4.748l.07-.035c.173-.832.311-1.455.45-1.837.797-2.39 1.94-4.54 4.401-7.208.867-.866 1.629-1.56 2.287-2.08 2.53-1.836 5.164-3.43 9.704-4.227a62.995 62.995 0 0 0-3.812 6.238c-3.362 6.619-5.025 12.268-5.025 16.946v.416c0 .589.034 1.247.104 2.01.104 1.04.589 2.287 1.386 3.743.832 1.42 3.257 4.158 3.812 4.158l.035-.035c.034-.45.034-.797.034-1.005v-4.331c0-1.802.52-4.99 1.594-9.565 1.005-3.847 2.01-6.827 3.085-8.941.589-1.317 1.42-2.98 2.564-4.956h.035c.034.763.104 1.525.138 2.322.936 10.431 2.669 20.585 5.06 26.58a18.879 18.879 0 0 0 2.183 4.436c.381.485.901 1.04 1.594 1.664 1.63 1.351 3.015 2.148 4.159 2.39.034 0 .07 0 .104-.034-.485-2.08-.728-4.297-.728-6.619v-.728c0-6.099 1.49-13.55 4.436-22.352 2.807-7.867 5.614-14.035 8.421-18.47.52-.971 1.317-2.045 2.322-3.19v-.034c0-.104-.416-.173-1.248-.208zm6.133 15.699c-.555 0-1.213.139-1.975.45-2.773.797-4.54 2.253-7.451 5.337-1.421 1.768-2.53 3.431-3.362 4.99-2.079 4.02-3.119 7.451-3.119 10.258v.485c0 2.218.694 3.743 2.08 4.575 2.737 1.005 4.643 1.525 5.787 1.525 1.42 0 2.668-.52 3.743-1.525a21.97 21.97 0 0 0 1.871-2.391h.035v.104c0 .589.173 1.178.554 1.732 1.075 1.352 2.669 2.045 4.713 2.045h.312c1.629 0 3.396-.97 5.337-2.876 1.213-1.387 2.183-2.669 2.842-3.847 1.663-3.084 2.495-5.475 2.495-7.104-.035-.59-.139-.867-.381-.867-.035 0-.174.07-.382.174-.173.173-.727.935-1.732 2.218-3.12 3.916-5.268 5.856-6.411 5.856h-.035c-.104 0-.173-.034-.277-.104-.312-.173-.485-.624-.485-1.351 0-.867.346-2.807 1.074-5.788 1.005-3.846 2.045-7.208 3.084-10.015.59-1.594.901-2.426.901-2.495-.9-.52-1.767-.797-2.634-.797h-.034c-.52 0-1.074.104-1.629.347-1.213.589-1.802 1.074-1.802 1.42h-.035c-.589-1.56-1.628-2.356-3.084-2.356zm-9.46 21.936c0-1.836.519-4.297 1.593-7.312.728-1.871 1.63-3.57 2.738-5.129a11.662 11.662 0 0 1 2.149-2.183c1.074-.693 1.975-1.04 2.633-1.04l.243.035c.59.173.866.693.866 1.594 0 .901-.277 2.183-.831 3.847a40.236 40.236 0 0 1-3.154 6.55c-2.322 3.708-4.09 5.579-5.302 5.579h-.173c-.52 0-.763-.59-.763-1.733zm31.57-34.135c-.693 0-1.213.07-1.56.243-.624.52-1.074.97-1.317 1.386-1.178 1.698-2.287 3.674-3.292 5.96-2.114 4.887-4.09 10.882-5.857 17.987-.935 4.331-1.42 7.346-1.42 9.044.034 0 .034 0 .034.035h-.034c0 .347 0 .693.034 1.074 0 .659.208 1.352.659 2.01 1.143 1.352 2.703 2.045 4.747 2.045h.243c.59 0 .97-.07 1.213-.173a12.227 12.227 0 0 1-.485-1.94v-.036c1.56 1.144 2.91 1.733 4.089 1.733h.208c.762 0 1.802-.45 3.154-1.317.415-.208 1.143-.831 2.217-1.906 1.11-1.317 1.976-2.564 2.634-3.777 2.045-4.124 3.05-8.075 3.05-11.887 0-3.5-.867-5.752-2.6-6.792-2.39-1.005-4.02-1.49-4.886-1.49-.866 0-1.732.173-2.599.554 1.594-4.124 3.12-7.554 4.61-10.292.692-1.178 1.039-1.802 1.039-1.837v-.07c-.07-.276-1.109-.45-3.084-.554zm-6.931 31.883c.138-2.53 1.282-5.892 3.396-10.154 2.044-3.847 3.639-5.787 4.782-5.787.07 0 .139 0 .243.034.52.312.762 1.11.762 2.322v.555c0 1.975-.485 4.4-1.455 7.277-1.352 3.673-3.05 5.995-5.06 6.966-.346.173-.9.312-1.663.45-.659 0-1.005-.554-1.005-1.663zm23.911-19.06c-1.074 0-2.148.485-3.188 1.42-.07.07-.242.486-.52 1.248-3.534 10.085-5.302 16.842-5.302 20.204 0 .52.035.797.07.797 0 .45.242 1.04.762 1.698 1.144 1.109 2.495 1.663 4.124 1.663h.45c.52 0 .867-.069 1.075-.173-.312-1.074-.45-2.252-.45-3.535v-.138c0-.797.034-1.387.068-1.802 0-1.976 1.595-6.897 4.367-11.367 1.906-2.876 3.43-4.332 4.505-4.332h.104c.658 0 1.04.59 1.144 1.733 0 1.109-.486 2.668-1.456 4.644.035 0 .035 0 .035.034 4.124-1.213 6.757-4.54 6.757-7.693v-.208c0-.312-.069-.693-.173-1.074-.52-1.698-1.733-2.565-3.57-2.565-1.905 0-3.777.832-5.648 2.46-.832.798-1.594 1.56-2.253 2.357.347-1.005.901-2.495 1.63-4.505v-.035c-.867-.554-1.699-.831-2.53-.831zm23.496-.45c-2.772 0-6.134 2.286-8.94 5.925-2.98 4.263-4.471 8.387-4.471 12.303 0 2.599.901 4.782 2.703 6.55 2.08 1.801 4.47 2.702 7.139 2.702 4.47 0 7.867-2.703 10.12-8.109.311.035.761.07 1.316.104 1.733 0 3.292-.624 4.678-1.837 1.387-1.49 2.08-2.807 2.08-3.95v-.243c0-.242-.104-.346-.278-.346h-.034c-.139 0-.312.138-.555.45-.866 1.144-2.114 1.733-3.673 1.733-.624 0-1.282-.104-1.976-.277h-.034c.693-2.426 1.04-4.54 1.04-6.308 0-1.836-.347-3.326-1.005-4.505-.243-.38-.52-.727-.763-1.04-2.426-2.113-4.713-3.153-6.896-3.153zm-6.584 17.153c0-1.836.485-3.916 1.42-6.238.971-2.321 2.53-4.574 4.437-5.926 1.143-.693 2.183-1.04 3.119-1.04.52 0 .97.174 1.386.52.762.728 1.143 1.872 1.143 3.431v.45c0 1.11-.208 2.461-.623 4.056a4.384 4.384 0 0 1-.694-1.075c-.104-.45-.277-.693-.554-.693-.59 0-1.248.381-2.045 1.178-.727.936-1.074 1.906-1.074 2.911v.139c0 1.282.624 2.253 1.906 2.876v.035a19.193 19.193 0 0 1-1.455 2.045c-1.49 1.663-2.634 2.495-3.431 2.495h-.174c-.242 0-.554-.07-.935-.243-1.629-.797-2.426-2.426-2.426-4.92zm29.872-29.63c-1.109 0-1.802.208-2.079.624-.936 1.075-1.663 2.08-2.183 3.05h-1.075c-1.906 0-3.465.242-4.747.693-2.53 1.005-3.778 2.842-3.778 5.545v.831c0 .104 0 .243.035.486h.07c0-.07.069-.243.242-.486.866-1.316 2.426-1.975 4.713-1.975h.208c.035 0 .104 0 .139-.035.034.035.069.035.104.035h.415c.486 0 .867.035 1.179.07a119.328 119.328 0 0 0-3.431 9.703c-2.183 7.59-3.292 12.96-3.292 16.183v.486c0 2.737 1.906 4.609 5.51 4.609 2.218-.278 3.292-.832 5.614-3.223a21.482 21.482 0 0 0 2.564-3.535c1.664-3.119 2.495-5.475 2.495-7.104 0-.555-.138-.832-.38-.832h-.035c-.243 0-.659.416-1.179 1.213-3.638 4.644-6.03 6.966-7.208 6.966h-.138c-.104 0-.174 0-.243-.035-.347-.173-.52-.658-.52-1.42 0-1.283.52-3.986 1.56-8.145 1.49-5.302 3.084-9.946 4.817-13.966 3.5.694 5.96 1.04 7.45 1.04.797 0 1.456-.07 1.941-.242.381 0 .762-.416 1.178-1.283.936-2.39 1.386-4.02 1.386-4.851-.034-.07-.069-.104-.104-.104-.589.38-1.455.589-2.668.589h-.45c-1.213 0-3.293-.208-6.204-.624h-.034a46.92 46.92 0 0 1 1.975-3.639c0-.346-1.144-.554-3.465-.624zm23.877 12.788c-3.292.312-5.51.45-6.619.45h-1.317c-2.876-.242-4.54-.38-4.92-.38h-.347a7.35 7.35 0 0 0-1.802.207c-2.738.867-4.09 2.391-4.09 4.575 0 .554.14 1.178.382 1.871 2.183-1.282 4.332-1.94 6.41-1.94.382 0 .625 0 .763.034 2.322.243 3.708.347 4.159.347h.346c.45 0 .936-.035 1.49-.139h.035c-.935 1.04-3.188 3.327-6.757 6.827-4.748 4.574-8.837 8.352-12.268 11.297 0 .035.035.174.138.382 1.005 2.148 2.045 3.222 3.154 3.222h.035c2.668-.589 5.094-.866 7.242-.866h.07c5.371 0 9.322 1.698 11.852 5.094.312.52.52.797.589.832h.034a.586.586 0 0 0 .174-.07c.589-.97.9-2.252.9-3.846a9.1 9.1 0 0 0-.658-3.396c-.658-1.525-1.802-2.703-3.43-3.535-2.045-1.005-4.055-1.49-5.961-1.49-1.178 0-2.287.173-3.362.485h-.034c2.426-2.322 5.648-5.371 9.703-9.149 3.535-3.223 5.302-5.44 5.302-6.584v-.07c0-.658-.104-1.905-.312-3.777 0-.242-.138-.38-.45-.38zm13.273-12.649c-.381 0-.658 0-.762.035-.867 0-1.456.242-1.768.693-2.287 2.495-4.782 7.866-7.485 16.149-2.565 8.352-3.847 14.416-3.847 18.194 0 1.143.173 1.975.555 2.495 1.074 1.49 2.772 2.252 5.06 2.252.796-.034 1.212-.104 1.247-.208-.659-1.351-.97-2.841-.97-4.47v-.416c0-2.252.52-4.886 1.559-7.832.416-1.143.97-2.356 1.663-3.673 1.906-3.292 3.674-4.956 5.303-4.956.242 0 .485.035.693.104 1.005.59 1.524 1.282 1.524 2.01 0 1.94-3.292 4.09-7.97 6.203-.173 0-.277.659-.312 2.01 0 2.045.485 4.228 1.455 6.55 1.768 3.847 3.813 5.753 6.134 5.753.312 0 .832-.174 1.56-.555.728-.381 1.733-1.247 3.015-2.599 2.391-2.911 5.648-8.074 5.648-11.644v-.035c0-.554-.138-.866-.45-.935-.173 0-.347.104-.59.346l-2.182 2.911c-3.015 3.916-5.476 5.857-7.347 5.857-.936 0-1.802-.381-2.53-1.178-1.04-1.283-1.56-2.738-1.56-4.298v-.589c.035-.173.624-.52 1.803-1.109 5.371-2.564 8.074-5.475 8.074-8.733 0-1.594-.728-2.98-2.148-4.158-1.248-.97-2.357-1.456-3.362-1.456-1.767 0-3.119.832-5.649 3.916l.555-1.594c2.252-6.134 4.436-10.916 6.55-14.347v-.104l-.104-.104c-.694-.312-1.802-.485-3.362-.485zm29.075 12.233c-1.074 0-2.183.485-3.292 1.456a232.456 232.456 0 0 0-3.119 9.426c-.554 2.287-1.663 4.505-3.327 6.619-1.906 2.252-3.396 3.361-4.47 3.361h-.208c-.624-.173-.936-.727-.936-1.698v-.277c0-.936.52-3.43 1.56-7.52 1.213-4.193 2.391-7.693 3.5-10.466v-.034c-.936-.382-1.837-.59-2.668-.59-1.699 0-3.015 1.04-3.951 3.085-1.213 2.91-4.575 12.926-4.575 17.812 0 3.5 1.456 6.134 4.09 6.134h.242c.59 0 1.248-.139 1.941-.381.797-.312 2.01-1.213 3.604-2.703 1.005-1.04 1.698-1.837 2.08-2.391-.59 2.183-.902 3.326-.936 3.361-1.63 6.342-3.015 10.882-4.159 13.654-2.08 4.886-4.055 7.347-5.926 7.347-.45 0-.9-.208-1.351-.59-.936-1.039-1.421-2.46-1.421-4.296v-.382c0-4.574 3.05-6.861 9.183-6.861h.07c-.104-.901-.59-1.872-1.421-2.877-1.56-1.49-3.396-2.217-5.441-2.217-1.975 0-3.327.797-5.233 2.633-2.183 2.495-3.257 5.476-3.257 8.907 0 2.321.52 4.366 1.559 6.099.243.52.762 1.074 1.525 1.732 2.01 1.213 3.916 1.837 5.683 1.837h.381c2.807 0 5.441-1.42 7.902-4.262a22.068 22.068 0 0 0 2.772-4.575c1.178-2.876 2.495-6.757 3.95-11.644 1.04-3.638 2.253-8.144 3.64-13.446 1.42-5.926 3.014-11.09 4.747-15.421v-.035c-.866-.52-1.698-.797-2.495-.797z" aria-label="Sascha Nabrotzky" style="font-size:70.9728px;font-family:&quot;Bring Heart&quot;;-inkscape-font-specification:&quot;Bring Heart, Normal&quot;;text-align:center;text-anchor:middle;fill:#1a1a1a;stroke-width:5.32296;stroke-linecap:round;stroke-linejoin:round" transform="rotate(-8.414)"/><path d="M107.751 98.512c-2.024 0-3.963.935-5.784 2.79a15.704 15.704 0 0 0-1.36 1.632c-1.65 2.433-2.365 4.287-2.926 6.754-.29 1.565-.425 2.857-.425 3.878v.374c0 3.147.867 5.512 1.973 6.736.765.97 2.007 1.446 3.742 1.446 1.582 0 3.01-.459 4.32-1.395.46-.289.953-.8 1.515-1.514.765-1.088 1.156-2.194 1.156-3.3 0-1.905-1.19-3.47-3.555-4.1h-.017a4.26 4.26 0 0 1 .425 1.89v.118c0 1.293-.357 2.637-1.088 4.032-.255.527-.664 1.088-1.225 1.7-.595.579-1.157.868-1.684.868h-.12c-.186 0-.373-.05-.594-.153-.851-.408-1.276-1.667-1.276-3.76 0-2.38.51-5.102 1.53-8.147 1.106-3.08 3.148-7.876 6.873-7.876.187 0 .357.05.527.136.392.204.579.63.579 1.276 0 .68-.187 1.514-.579 2.483-.425 1.208-1.616 3.181-2.585 3.521v.017c.493.324 1.088.494 1.803.494 1.293 0 2.058-.425 2.687-1.19.698-1.073 1.038-2.433 1.038-4.066 0-1.14-.187-2.025-.578-2.654a3.714 3.714 0 0 0-.902-.97c-1.003-.68-2.16-1.02-3.47-1.02zm9.951.884a2.41 2.41 0 0 0-.527.051c-.221 0-.51.221-.834.647-1.105 1.497-2.28 4.133-3.487 7.927-1.174 3.963-1.769 6.82-1.769 8.556v.017c0 .595.12 1.037.34 1.344.562.663 1.327.986 2.314.986h.17c.255 0 .442-.034.561-.085-.221-.595-.323-1.327-.323-2.194v-.255c0-.732.238-1.837.697-3.283 1.021-2.91 2.535-5.58 3.743-5.58h.017c.323 0 .493.29.493.85 0 .494-.153 1.345-.442 2.518-.834 2.841-1.259 4.831-1.259 5.971 0 1.089.919 2.058 2.569 2.058h.153c.918 0 1.888-.561 2.891-1.684.51-.595.919-1.174 1.225-1.718.766-1.48 1.157-2.62 1.157-3.385-.017-.29-.068-.425-.17-.425a.412.412 0 0 0-.221.102l-.987 1.242c-1.548 1.82-2.603 2.738-3.164 2.738h-.05c-.12 0-.205-.068-.273-.187 0-.238.085-.68.255-1.31.749-2.262 1.123-4.048 1.123-5.358v-.34c0-1.19-.323-2.007-.953-2.467-.663-.357-1.259-.527-1.769-.527h-.204c-.936 0-1.888.646-2.858 1.956h-.017v-.017c1.191-3.35 2.348-5.97 3.487-7.842 0-.17-.527-.272-1.599-.306zm12.945 5.988c-.272 0-.595.068-.97.221-1.36.391-2.228 1.106-3.657 2.62-.697.867-1.241 1.684-1.65 2.45-1.02 1.972-1.53 3.656-1.53 5.034v.238c0 1.09.34 1.838 1.02 2.246 1.344.493 2.28.748 2.84.748.698 0 1.31-.255 1.838-.748.323-.357.63-.749.918-1.174h.017v.051c0 .29.085.578.273.85.527.664 1.31 1.004 2.313 1.004h.153c.8 0 1.667-.476 2.62-1.412.595-.68 1.071-1.31 1.395-1.888.816-1.514 1.224-2.687 1.224-3.487-.017-.29-.068-.425-.187-.425a1.09 1.09 0 0 0-.187.085c-.085.085-.357.46-.85 1.089-1.531 1.922-2.586 2.874-3.147 2.874h-.017c-.051 0-.085-.017-.136-.05-.154-.086-.239-.307-.239-.664 0-.425.17-1.378.528-2.84.493-1.889 1.003-3.539 1.514-4.917.289-.782.442-1.19.442-1.225-.442-.255-.868-.39-1.293-.39h-.017a1.99 1.99 0 0 0-.8.17c-.595.288-.884.527-.884.697h-.017c-.29-.766-.8-1.157-1.514-1.157zm-4.644 10.768c0-.902.255-2.11.783-3.59.357-.918.8-1.752 1.344-2.517a5.724 5.724 0 0 1 1.054-1.072c.528-.34.97-.51 1.293-.51l.12.017c.288.085.424.34.424.782 0 .443-.136 1.072-.408 1.888a19.75 19.75 0 0 1-1.548 3.215c-1.14 1.82-2.007 2.74-2.602 2.74h-.086c-.255 0-.374-.29-.374-.851zm13.2-10.462c-.527 0-1.054.238-1.565.698-.034.034-.119.238-.255.612-1.735 4.95-2.602 8.267-2.602 9.917 0 .255.017.391.034.391 0 .221.119.51.374.834a2.785 2.785 0 0 0 2.024.816h.221c.255 0 .426-.034.528-.085a6.213 6.213 0 0 1-.221-1.735v-.068c0-.391.017-.68.034-.884 0-.97.782-3.385 2.143-5.58.935-1.412 1.684-2.126 2.211-2.126h.051c.323 0 .51.289.562.85 0 .545-.239 1.31-.715 2.28.017 0 .017 0 .017.017 2.024-.596 3.317-2.229 3.317-3.777v-.102c0-.153-.034-.34-.085-.527-.255-.833-.85-1.259-1.752-1.259-.936 0-1.854.409-2.773 1.208a13.88 13.88 0 0 0-1.105 1.157c.17-.494.442-1.225.8-2.212v-.017c-.426-.272-.834-.408-1.243-.408zm12.078-.306c-.272 0-.595.068-.97.221-1.36.391-2.228 1.106-3.657 2.62-.697.867-1.242 1.684-1.65 2.45-1.02 1.972-1.53 3.656-1.53 5.034v.238c0 1.09.34 1.838 1.02 2.246 1.344.493 2.28.748 2.84.748.698 0 1.31-.255 1.838-.748.323-.357.629-.749.918-1.174h.017v.051c0 .29.085.578.272.85.528.664 1.31 1.004 2.314 1.004h.153c.8 0 1.667-.476 2.62-1.412.595-.68 1.071-1.31 1.394-1.888.817-1.514 1.225-2.687 1.225-3.487-.017-.29-.068-.425-.187-.425a1.09 1.09 0 0 0-.187.085c-.085.085-.357.46-.85 1.089-1.532 1.922-2.586 2.874-3.148 2.874h-.017c-.05 0-.085-.017-.136-.05-.153-.086-.238-.307-.238-.664 0-.425.17-1.378.527-2.84.494-1.889 1.004-3.539 1.514-4.917.29-.782.443-1.19.443-1.225-.443-.255-.868-.39-1.293-.39h-.017a1.99 1.99 0 0 0-.8.17c-.595.288-.884.527-.884.697h-.017c-.29-.766-.8-1.157-1.514-1.157zm-4.644 10.768c0-.902.255-2.11.783-3.59.357-.918.799-1.752 1.343-2.517a5.724 5.724 0 0 1 1.055-1.072c.527-.34.97-.51 1.293-.51l.119.017c.289.085.425.34.425.782 0 .443-.136 1.072-.408 1.888a19.75 19.75 0 0 1-1.548 3.215c-1.14 1.82-2.007 2.74-2.603 2.74h-.085c-.255 0-.374-.29-.374-.851zm15.7-16.739c-.186 0-.322 0-.374.017-.425 0-.714.12-.867.34-1.123 1.225-2.347 3.862-3.674 7.927-1.26 4.1-1.888 7.077-1.888 8.93 0 .562.085.97.272 1.226.527.731 1.36 1.105 2.483 1.105.391-.017.596-.05.613-.102-.324-.663-.477-1.395-.477-2.194v-.204c0-1.106.255-2.399.766-3.845.204-.561.476-1.156.816-1.803.936-1.616 1.803-2.432 2.603-2.432.119 0 .238.017.34.05.493.29.749.63.749.987 0 .953-1.616 2.008-3.913 3.045-.085 0-.136.323-.153.987 0 1.004.238 2.075.714 3.215.868 1.888 1.872 2.824 3.011 2.824.153 0 .409-.085.766-.273.357-.187.85-.612 1.48-1.275 1.173-1.43 2.772-3.964 2.772-5.716v-.017c0-.272-.068-.425-.22-.46-.086 0-.17.052-.29.17l-1.072 1.43c-1.48 1.922-2.687 2.875-3.606 2.875-.459 0-.884-.188-1.242-.579-.51-.63-.765-1.344-.765-2.11v-.288c.017-.085.306-.255.885-.545 2.636-1.258 3.963-2.687 3.963-4.286 0-.783-.357-1.463-1.055-2.041-.612-.477-1.156-.715-1.65-.715-.867 0-1.53.408-2.772 1.922l.272-.782c1.105-3.011 2.177-5.359 3.215-7.043v-.05l-.051-.052c-.34-.153-.885-.238-1.65-.238zm10.292-.068c-.544 0-.884.102-1.02.306-.46.528-.817 1.021-1.072 1.497h-.528c-.935 0-1.7.12-2.33.34-1.242.494-1.854 1.395-1.854 2.722v.408c0 .051 0 .12.017.239h.034c0-.034.034-.12.119-.239.425-.646 1.19-.97 2.313-.97h.102c.017 0 .051 0 .068-.016.017.017.034.017.051.017h.205c.238 0 .425.017.578.034a58.577 58.577 0 0 0-1.684 4.763c-1.072 3.725-1.616 6.362-1.616 7.944v.238c0 1.344.935 2.262 2.705 2.262 1.088-.136 1.616-.408 2.755-1.582.528-.595.936-1.173 1.259-1.735.817-1.53 1.225-2.687 1.225-3.487 0-.272-.068-.408-.187-.408h-.017c-.12 0-.324.204-.579.595-1.786 2.28-2.96 3.42-3.538 3.42h-.068c-.05 0-.085 0-.119-.018-.17-.085-.255-.323-.255-.697 0-.63.255-1.956.765-3.998.732-2.602 1.514-4.882 2.365-6.855 1.718.34 2.926.51 3.657.51.391 0 .715-.034.953-.119.187 0 .374-.204.578-.629.46-1.174.68-1.973.68-2.381-.017-.034-.034-.051-.05-.051-.29.187-.715.289-1.31.289h-.221c-.596 0-1.616-.102-3.045-.306h-.017c.289-.596.612-1.191.97-1.787 0-.17-.562-.272-1.702-.306zm7.57 6.056c-1.242 0-2.637.748-4.185 2.262-.68.715-1.208 1.327-1.582 1.854-1.412 2.11-2.126 3.964-2.126 5.546v.102c0 1.055.374 1.94 1.14 2.654.884.731 1.888 1.105 3.01 1.105h.154c.56 0 1.173-.102 1.803-.323 1.65-.561 3.079-1.65 4.252-3.249.426-.63.783-1.242 1.038-1.837.34-.936.51-1.514.51-1.735-.017-.153-.068-.238-.153-.238-.102 0-.221.068-.374.22-.221.341-.732.92-1.531 1.753-2.007 1.922-3.606 2.892-4.797 2.892h-.068c-.187 0-.374-.034-.578-.12-.647-.271-.97-.884-.97-1.82 0-.408.068-.884.204-1.445h.102c1.225 0 2.586-.358 4.1-1.072 1.905-1.055 2.858-2.33 2.858-3.81 0-1.77-1.31-2.739-2.807-2.739zm-3.3 5.375c.323-.595.816-1.276 1.497-2.041.97-.936 1.854-1.412 2.67-1.412h.017l.17.017c.17.051.256.153.256.272v.068c0 .136-.068.324-.205.545-1.19 1.752-2.602 2.62-4.252 2.62h-.153l-.034-.018zm9.492-5.086c-.528 0-1.055.238-1.565.698-.034.034-.12.238-.256.612-1.735 4.95-2.602 8.267-2.602 9.917 0 .255.017.391.034.391 0 .221.119.51.374.834a2.785 2.785 0 0 0 2.024.816h.221c.256 0 .426-.034.528-.085a6.213 6.213 0 0 1-.221-1.735v-.068c0-.391.017-.68.034-.884 0-.97.782-3.385 2.143-5.58.936-1.412 1.684-2.126 2.211-2.126h.051c.324 0 .51.289.562.85 0 .545-.238 1.31-.715 2.28.017 0 .017 0 .017.017 2.024-.596 3.317-2.229 3.317-3.777v-.102c0-.153-.034-.34-.085-.527-.255-.833-.85-1.259-1.752-1.259-.935 0-1.854.409-2.773 1.208-.408.391-.782.766-1.105 1.157.17-.494.442-1.225.8-2.212v-.017c-.426-.272-.834-.408-1.243-.408zm18.337-6.328c-.255 0-.51.017-.766.051-.153 0-.408.187-.731.579-.936 1.224-1.94 3.334-2.977 6.328-.323-.63-.8-.936-1.395-.936-.22 0-.493.05-.85.136-.953.306-1.854.834-2.705 1.582-.697.663-1.14 1.14-1.36 1.446-.613.8-1.106 1.53-1.464 2.228-.986 1.956-1.48 3.64-1.48 5.07 0 1.156.358 1.939 1.055 2.364 1.344.493 2.28.731 2.773.731.408 0 .782-.068 1.105-.22.63-.256 1.293-1.004 1.974-2.212h.017v.017c0 .731.153 1.225.459 1.497.544.595 1.293.884 2.262.884a3.175 3.175 0 0 0 1.77-.697c.22-.136.629-.527 1.207-1.157.323-.408.63-.833.919-1.276.884-1.582 1.327-2.806 1.327-3.64v-.034c-.017-.29-.068-.425-.154-.425-.153 0-.289.119-.442.357-1.87 2.467-3.13 3.691-3.76 3.691-.271 0-.407-.22-.407-.663v-.17c0-.221.085-.766.255-1.616.306-1.548.68-3.011 1.14-4.389 1.037-3.198 2.143-5.903 3.283-8.097.425-.731.646-1.123.646-1.14v-.017c-.238-.17-.8-.255-1.701-.272zm-10.564 16.756c0-1.242.68-3.47 1.174-4.44.46-1.02.936-1.786 1.905-2.62.494-.357.953-.561 1.361-.595.391 0 .595.272.595.816 0 .426-.136 1.021-.408 1.786-.357 1.09-.935 2.297-1.735 3.607-1.072 1.616-1.871 2.432-2.415 2.432h-.051c-.29 0-.426-.272-.426-.8zM211.77 105.4c-1.242 0-2.636.748-4.184 2.262-.68.715-1.208 1.327-1.582 1.854-1.412 2.11-2.127 3.964-2.127 5.546v.102c0 1.055.375 1.94 1.14 2.654.885.731 1.888 1.105 3.01 1.105h.154c.561 0 1.174-.102 1.803-.323 1.65-.561 3.079-1.65 4.253-3.249.425-.63.782-1.242 1.037-1.837.34-.936.51-1.514.51-1.735-.016-.153-.067-.238-.152-.238-.102 0-.222.068-.375.22-.22.341-.731.92-1.53 1.753-2.008 1.922-3.607 2.892-4.798 2.892h-.068c-.187 0-.374-.034-.578-.12-.646-.271-.97-.884-.97-1.82 0-.408.069-.884.205-1.445h.102c1.224 0 2.585-.358 4.1-1.072 1.904-1.055 2.857-2.33 2.857-3.81 0-1.77-1.31-2.739-2.807-2.739zm-3.3 5.375c.323-.595.817-1.276 1.497-2.041.97-.936 1.854-1.412 2.67-1.412h.018l.17.017c.17.051.255.153.255.272v.068c0 .136-.068.324-.204.545-1.19 1.752-2.603 2.62-4.253 2.62h-.153l-.034-.018zm12.537-5.732c-1.786 0-3.368.646-4.729 1.922-1.004 1.072-1.514 2.228-1.514 3.47 0 1.701.953 2.977 2.84 3.844 2.025.8 3.029 1.514 3.029 2.127 0 .187-.085.357-.238.51-.426.34-.97.51-1.633.51h-.154c-.714-.068-1.071-.289-1.071-.663 0-.255.17-.561.51-.919-.493-.527-.97-.782-1.429-.782-.391 0-.731.136-1.054.425-.51.545-.766 1.14-.766 1.786 0 .34.102.664.29.97.629.918 1.65 1.378 3.061 1.378 1.02 0 1.905-.204 2.654-.63 1.105-.731 1.65-1.667 1.65-2.84 0-1.106-.545-2.093-1.616-2.994a9.358 9.358 0 0 0-1.701-1.02c-1.004-.358-1.514-.851-1.514-1.464 0-.595.408-1.208 1.242-1.854 1.088-.765 2.04-1.14 2.874-1.14h.239c.799.102 1.207.273 1.207.528 0 .408-.867.97-2.602 1.7a.61.61 0 0 0 .068.188c.425.867.986 1.293 1.65 1.293h.119c.646 0 1.259-.375 1.854-1.14.493-.766.731-1.514.731-2.228 0-.392-.068-.766-.22-1.123-.545-1.242-1.753-1.854-3.624-1.854zm8.199-3.998c-.238 0-.527.102-.868.306-.663.51-1.003 1.106-1.003 1.787.017.153.034.306.068.425.204.612.595.918 1.157.918h.05c.273 0 .579-.085.902-.272.698-.527 1.038-1.14 1.038-1.837 0-.119-.017-.29-.068-.476-.221-.562-.596-.85-1.123-.85zm-1.072 4.644c-.561 0-1.122.238-1.65.715-.085.187-.255.697-.544 1.496-1.497 4.423-2.245 7.417-2.245 8.982v.017c0 .493.136.902.408 1.208.561.561 1.31.85 2.228.85h.357c.953-.136 1.684-.697 2.688-1.769 1.072-1.31 2.314-3.589 2.314-5.018 0-.29-.068-.425-.188-.425-.119 0-.289.153-.51.476-1.82 2.382-3.045 3.572-3.674 3.572l-.12-.034c-.186-.085-.271-.323-.271-.697.017-.749.374-2.365 1.071-4.831a53.027 53.027 0 0 1 1.412-4.117v-.017c-.425-.272-.85-.408-1.276-.408zm8.812-.306c-.255 0-.545.05-.885.17a6.156 6.156 0 0 0-1.582.749c-.306.153-.8.544-1.463 1.156-1.275 1.31-1.837 2.195-2.517 3.487-.936 1.872-1.395 3.488-1.395 4.865v.068c0 1.14.34 1.923 1.038 2.314 1.343.493 2.262.748 2.79.748.816 0 1.496-.306 2.058-.918-.154.561-.239.884-.273.97-.765 2.96-1.463 5.12-2.109 6.497-.918 1.905-1.769 2.858-2.551 2.858-.426 0-.783-.272-1.055-.8a3.681 3.681 0 0 1-.34-1.496v-.324c0-1.462.663-2.45 2.007-2.96a7.895 7.895 0 0 1 1.412-.306l1.122-.068c0-.136-.068-.34-.187-.595-.068-.255-.306-.595-.714-1.004-.732-.595-1.548-.901-2.45-.901-.459 0-.85.085-1.19.255-.324.12-.783.476-1.378 1.038-1.072 1.207-1.6 2.67-1.6 4.354 0 1.26.29 2.33.868 3.198.136.204.34.426.613.647.986.612 1.922.918 2.79.918h.22c.834 0 1.702-.289 2.57-.867.492-.374.969-.85 1.428-1.412.544-.732.987-1.48 1.31-2.228 1.242-3.25 2.313-6.992 3.76-12.622.697-2.79 1.428-5.154 2.21-7.094v-.017c-.425-.255-.85-.39-1.275-.39h-.017c-.221 0-.442.033-.698.118-.629.29-.97.528-1.003.749h-.017c-.323-.766-.817-1.157-1.497-1.157zm-4.678 10.836c0-.85.204-1.923.63-3.198.765-2.178 1.7-3.487 2.721-4.168.425-.221.8-.357 1.123-.391.374 0 .561.255.561.782 0 1.072-.63 2.722-1.871 4.95-1.174 1.94-2.075 2.91-2.705 2.91h-.068c-.255 0-.391-.29-.391-.885zm12.435-10.53c-.375 0-.766.12-1.174.357-.34.239-.51.392-.51.443-1.838 5.188-2.756 8.658-2.756 10.376 0 .493.119.868.34 1.123.527.646 1.31.97 2.33.97.409-.018.63-.052.647-.103a5.738 5.738 0 0 1-.255-1.752v-.408c0-.834.17-1.718.51-2.654.936-2.568 2.705-5.562 3.93-5.562.05 0 .119 0 .187.017.22.102.323.272.323.527v.017c0 .29-.136.902-.408 1.837-.834 2.892-1.26 4.882-1.26 5.988 0 .323.035.578.12.8.476.867 1.344 1.292 2.585 1.292.902 0 1.855-.561 2.892-1.667 1.106-1.31 2.399-3.64 2.399-5.12 0-.29-.068-.425-.187-.425-.085 0-.17.05-.29.17-.22.306-.527.714-.935 1.225-1.548 1.786-2.603 2.687-3.164 2.687-.12 0-.221-.068-.306-.187 0-.255.102-.731.306-1.429.731-2.228 1.089-4.014 1.089-5.375 0-1.208-.256-2.058-.766-2.552-.46-.323-.936-.476-1.429-.476h-.102c-1.106 0-2.313.834-3.606 2.5h-.017v-.016c.221-.664.493-1.395.8-2.195-.426-.272-.868-.408-1.293-.408z" aria-label="Charakterdesign" style="font-size:34.8375px;font-family:&quot;Bring Heart&quot;;-inkscape-font-specification:&quot;Bring Heart, Normal&quot;;text-align:center;text-anchor:middle;fill:#1a1a1a;stroke-width:2.61281;stroke-linecap:round;stroke-linejoin:round" transform="rotate(-8.414)"/><path d="M202.807 127.9c-1.514 0-2.977.255-4.372.765-1.77.698-3.01 1.735-3.725 3.096-.477 1.02-.715 1.94-.715 2.773v.119c0 .255.068.561.204.919.239.493.528.816.868.952h.034v-.068c.221-1.174.748-2.296 1.582-3.351.578-.663 1.02-1.089 1.344-1.31 1.003-.765 1.684-1.19 3.334-1.616-.85 1.582-1.684 3.709-2.484 6.38-1.242 4.405-1.87 8.13-1.87 11.158 0 .612.016 1.14.067 1.565.221 1.225.902 2.092 1.667 2.313h.034l.017-.017c.12-1.105.255-2.126.408-3.044.358-2.16.817-4.27 1.378-6.294 1.208-4.372 2.5-8.08 3.879-11.125.289-.528.442-1.004.442-1.412 0-.595-.17-1.123-.51-1.565 0-.12-.528-.204-1.582-.238zm13.66.153c-.392 0-.698.102-.936.323-1.719 1.786-3.947 7.757-5.495 14.408 0 .017-.17.17-.493.46-1.803 1.48-3.096 2.21-3.862 2.21h-.068a.683.683 0 0 1-.255-.05c-.272-.102-.408-.358-.408-.783 0-.221.068-.68.204-1.395l1.48-1.82c3.368-4.286 5.052-7.45 5.052-9.509 0-.935-.323-1.667-.986-2.177-.766-.493-1.514-.749-2.246-.749-.187 0-.357.017-.544.068-.255.051-.561.324-.953.834-1.037 1.446-2.109 3.844-3.215 7.195-1.31 4.27-1.973 7.332-1.973 9.186 0 .63.12 1.089.34 1.344.545.68 1.327 1.02 2.348 1.02 1.088 0 2.262-.493 3.538-1.48.187-.084.68-.56 1.48-1.411-.12.85-.187 1.53-.187 2.041.017.357.034.544.05.544 0 .34.188.732.562 1.157.561.51 1.19.766 1.922.766h.204c.8 0 1.786-.46 2.943-1.378.29-.204.766-.68 1.463-1.43.8-.918 1.412-1.751 1.837-2.517.8-1.48 1.191-2.602 1.191-3.385-.017-.238-.068-.357-.153-.357-.034 0-.085.034-.17.085-.323.476-.715.97-1.174 1.463-2.398 2.535-4.031 3.81-4.882 3.81-.357 0-.544-.238-.544-.697v-.153c0-.187.068-.647.204-1.378 0-.12.068-.255.204-.391 4.457-5.835 6.685-10.07 6.685-12.673 0-.987-.306-1.77-.935-2.33-.749-.562-1.497-.851-2.229-.851zm-2.603 11.635c.663-2.313 1.31-4.219 1.922-5.732 1.088-2.57 1.837-3.862 2.245-3.862.017 0 .034 0 .034.017.102 0 .17.153.187.46v.17c0 .544-.17 1.343-.527 2.398-.936 2.67-2.348 4.797-3.862 6.549zm-7.723-.408c.63-2.144 1.276-3.964 1.939-5.478.953-2.007 1.599-3.01 1.94-3.01h.033c.17 0 .255.187.255.56 0 .698-.289 1.719-.85 3.08-.698 1.497-1.548 2.943-3.317 4.848zm21.025-4.015c-.562 0-1.106.238-1.633.715-.46 1.19-.953 2.67-1.514 4.457-.528 1.973-.85 2.62-1.667 3.793-.698.901-1.259 1.36-1.684 1.36a.574.574 0 0 1-.204-.067c-.188-.12-.29-.409-.29-.85 0-.375.137-1.158.409-2.365.612-2.467 1.31-4.678 2.092-6.617v-.017c-.476-.187-.885-.29-1.242-.29h-.102c-.595 0-1.106.273-1.514.834-.323.425-.816 1.684-1.463 3.81-.8 2.467-1.19 4.321-1.19 5.563v.034c0 .544.05.986.17 1.344.323 1.122.952 1.684 1.905 1.684.391 0 .765-.085 1.089-.239.255-.085.697-.425 1.31-1.003.527-.63.918-1.123 1.139-1.514a3.316 3.316 0 0 0-.034.527v.12c0 1.241 1.276 1.99 2.586 1.99h.136c.97 0 2.007-.647 3.079-1.923a10.6 10.6 0 0 0 1.02-1.48c.783-1.48 1.174-2.585 1.174-3.317v-.119c0-.493-.272-.408-.46-.204-.39.545-.952 1.242-1.65 2.075-1.071 1.191-1.82 1.787-2.245 1.787-.272 0-.408-.239-.408-.715 0-.561.255-1.82.765-3.793.63-2.195 1.208-3.896 1.719-5.137v-.034c-.426-.273-.851-.409-1.293-.409zm8.369-.476c-1.786 0-3.368.646-4.729 1.922-1.004 1.072-1.514 2.229-1.514 3.47 0 1.701.953 2.977 2.84 3.845 2.025.8 3.029 1.514 3.029 2.126 0 .187-.085.357-.238.51-.426.34-.97.51-1.633.51h-.154c-.714-.067-1.071-.289-1.071-.663 0-.255.17-.561.51-.918-.493-.528-.97-.783-1.429-.783-.391 0-.731.136-1.054.425-.51.545-.766 1.14-.766 1.787 0 .34.102.663.29.97.629.918 1.65 1.377 3.061 1.377 1.02 0 1.905-.204 2.654-.63 1.105-.73 1.65-1.666 1.65-2.84 0-1.106-.545-2.092-1.616-2.994a9.357 9.357 0 0 0-1.701-1.02c-1.004-.358-1.514-.851-1.514-1.463 0-.596.408-1.208 1.242-1.855 1.088-.765 2.04-1.14 2.874-1.14h.239c.799.103 1.207.273 1.207.528 0 .408-.867.97-2.602 1.701a.61.61 0 0 0 .068.187c.425.868.986 1.293 1.65 1.293h.119c.646 0 1.259-.374 1.854-1.14.493-.765.731-1.514.731-2.228 0-.391-.068-.766-.22-1.123-.545-1.242-1.753-1.854-3.624-1.854zm9.492-5.698c-.545 0-.885.102-1.02.306-.46.527-.817 1.02-1.073 1.497h-.527c-.935 0-1.7.119-2.33.34-1.242.493-1.854 1.395-1.854 2.722v.408c0 .05 0 .119.017.238h.034c0-.034.034-.12.119-.238.425-.647 1.19-.97 2.313-.97h.102c.017 0 .051 0 .068-.017.017.017.034.017.051.017h.204c.238 0 .425.017.579.034a58.568 58.568 0 0 0-1.684 4.763c-1.072 3.725-1.616 6.362-1.616 7.944v.238c0 1.344.935 2.263 2.704 2.263 1.089-.137 1.616-.409 2.756-1.582.527-.596.936-1.174 1.259-1.735.816-1.531 1.224-2.688 1.224-3.488 0-.272-.068-.408-.187-.408h-.017c-.119 0-.323.204-.578.595-1.786 2.28-2.96 3.42-3.538 3.42h-.068c-.051 0-.085 0-.12-.017-.17-.085-.254-.324-.254-.698 0-.63.255-1.956.765-3.997.731-2.603 1.514-4.882 2.365-6.856 1.718.34 2.925.51 3.657.51.391 0 .714-.033.952-.118.187 0 .375-.204.579-.63.459-1.173.68-1.973.68-2.381-.017-.034-.034-.051-.05-.051-.29.187-.715.289-1.31.289h-.222c-.595 0-1.616-.102-3.045-.306h-.017c.29-.596.613-1.19.97-1.786 0-.17-.561-.272-1.701-.306zm3.98 6.344c-.527 0-1.054.239-1.565.698-.034.034-.119.238-.255.612-1.735 4.95-2.603 8.267-2.603 9.917 0 .256.017.392.034.392 0 .22.12.51.375.833a2.785 2.785 0 0 0 2.024.817h.221c.255 0 .425-.034.527-.085a6.212 6.212 0 0 1-.22-1.736v-.068c0-.39.016-.68.033-.884 0-.97.783-3.385 2.144-5.58.935-1.411 1.684-2.126 2.211-2.126h.051c.323 0 .51.29.561.85 0 .545-.238 1.31-.714 2.28.017 0 .017 0 .017.017 2.024-.595 3.317-2.228 3.317-3.776v-.102c0-.153-.034-.34-.085-.528-.255-.833-.85-1.258-1.752-1.258-.936 0-1.854.408-2.773 1.207-.408.392-.782.766-1.106 1.157.17-.493.443-1.225.8-2.211v-.017c-.425-.272-.834-.409-1.242-.409zm12.078-.306c-.272 0-.596.068-.97.221-1.36.392-2.228 1.106-3.657 2.62-.698.868-1.242 1.684-1.65 2.45-1.02 1.973-1.531 3.657-1.531 5.035v.238c0 1.088.34 1.837 1.02 2.245 1.344.493 2.28.749 2.841.749.698 0 1.31-.256 1.837-.749.324-.357.63-.748.919-1.174h.017v.051c0 .29.085.579.272.85.527.664 1.31 1.005 2.314 1.005h.153c.8 0 1.667-.477 2.62-1.412.595-.68 1.07-1.31 1.394-1.888.817-1.514 1.225-2.688 1.225-3.488-.017-.289-.068-.425-.187-.425-.017 0-.085.034-.187.085-.085.085-.358.46-.85 1.089-1.532 1.922-2.587 2.875-3.148 2.875h-.017c-.05 0-.085-.017-.136-.051-.153-.085-.238-.307-.238-.664 0-.425.17-1.378.527-2.84.494-1.889 1.004-3.539 1.514-4.917.29-.782.442-1.19.442-1.224-.442-.255-.867-.392-1.292-.392h-.017a1.99 1.99 0 0 0-.8.17c-.595.29-.884.528-.884.698h-.017c-.29-.765-.8-1.157-1.514-1.157zm-4.644 10.768c0-.902.255-2.11.782-3.59.358-.918.8-1.751 1.344-2.517a5.724 5.724 0 0 1 1.055-1.072c.527-.34.97-.51 1.293-.51l.119.017c.289.085.425.34.425.783 0 .442-.136 1.071-.408 1.888a19.75 19.75 0 0 1-1.548 3.215c-1.14 1.82-2.008 2.738-2.603 2.738h-.085c-.255 0-.374-.289-.374-.85zm15.666-16.806c-.527 0-.867.102-1.02.323-.408.459-.766.97-1.055 1.497h-.595c-.562 0-1.106.05-1.616.153-1.65.374-2.484 1.344-2.484 2.909v.612h.034s.017-.051.051-.136c.409-.698 1.276-1.055 2.586-1.055.119 0 .374.017.8.034a57.523 57.523 0 0 0-1.804 5.205c-1.003 3.505-1.497 6.005-1.497 7.519v.255c0 .29.034.545.102.783.46.97 1.208 1.446 2.263 1.446 1.48 0 2.84-.953 4.048-2.841h.017v.017c-.068.357-.136 1.225.153 1.684.51.765 1.327 1.14 2.45 1.14.918 0 1.854-.51 2.807-1.548 1.207-1.344 2.534-3.692 2.534-5.257 0-.22-.05-.357-.17-.408-.153 0-.34.17-.544.51-1.82 2.365-3.028 3.539-3.64 3.539-.29 0-.426-.239-.426-.732 0-.34.136-1.157.426-2.432.612-2.399 1.292-4.576 2.058-6.515v-.017c-.408-.256-.817-.392-1.242-.392h-.068c-.544 0-1.089.239-1.616.715-.391 1.02-.902 2.568-1.565 4.66-.187.732-.323 1.123-.374 1.208-1.803 2.33-2.994 3.488-3.59 3.488h-.067a.246.246 0 0 1-.12-.034c-.17-.085-.255-.324-.255-.68 0-.562.221-1.804.68-3.692.766-2.773 1.583-5.154 2.45-7.179 2.093.392 3.623.596 4.61.596h.153c.902 0 1.327-.136 1.803-.902.409-.8.613-1.497.613-2.092v-.085c0-.034-.017-.068-.034-.102h-.017c-.324.187-.902.272-1.701.272-.902 0-2.297-.119-4.219-.357.29-.596.63-1.19.987-1.803-.017-.017-.017-.034-.017-.051-.29-.17-.834-.255-1.633-.255zm11.806 6.123c-1.361 0-3.011 1.123-4.389 2.91-1.463 2.091-2.194 4.116-2.194 6.038 0 1.276.442 2.347 1.327 3.215 1.02.884 2.194 1.327 3.504 1.327 2.194 0 3.861-1.327 4.967-3.98.153.016.374.033.646.05.85 0 1.616-.306 2.297-.901.68-.732 1.02-1.378 1.02-1.94v-.119c0-.119-.05-.17-.136-.17h-.017c-.068 0-.153.068-.272.221-.425.562-1.038.85-1.803.85-.306 0-.63-.05-.97-.135h-.017c.34-1.19.51-2.229.51-3.096 0-.902-.17-1.633-.493-2.211-.119-.188-.255-.358-.374-.51-1.19-1.038-2.313-1.549-3.385-1.549zm-3.232 8.42c0-.901.238-1.922.697-3.061.476-1.14 1.242-2.246 2.178-2.91.56-.34 1.071-.51 1.53-.51.256 0 .477.085.68.256.375.357.562.918.562 1.684v.22c0 .545-.102 1.209-.306 1.991a2.152 2.152 0 0 1-.34-.527c-.051-.221-.136-.34-.272-.34-.29 0-.613.187-1.004.578-.357.46-.527.935-.527 1.429v.068c0 .63.306 1.105.935 1.412v.017a9.424 9.424 0 0 1-.714 1.003c-.732.817-1.293 1.225-1.684 1.225h-.085a1.14 1.14 0 0 1-.46-.12c-.799-.39-1.19-1.19-1.19-2.415zm12.298-8.199c-.374 0-.765.12-1.173.358-.34.238-.51.39-.51.442-1.838 5.188-2.756 8.658-2.756 10.376 0 .494.119.868.34 1.123.527.646 1.31.97 2.33.97.409-.017.63-.051.647-.102a5.737 5.737 0 0 1-.255-1.753v-.408c0-.833.17-1.718.51-2.653.935-2.569 2.704-5.563 3.93-5.563.05 0 .118 0 .186.017.222.102.324.272.324.527v.017c0 .29-.137.902-.409 1.838-.833 2.891-1.258 4.882-1.258 5.987 0 .324.034.579.119.8.476.867 1.343 1.293 2.585 1.293.902 0 1.854-.562 2.892-1.667 1.106-1.31 2.398-3.64 2.398-5.12 0-.29-.068-.426-.187-.426-.085 0-.17.051-.289.17a31.38 31.38 0 0 1-.935 1.225c-1.548 1.786-2.603 2.688-3.164 2.688-.12 0-.221-.068-.307-.187 0-.256.103-.732.307-1.43.731-2.228 1.088-4.014 1.088-5.375 0-1.207-.255-2.058-.765-2.551-.46-.323-.936-.477-1.429-.477h-.102c-1.106 0-2.314.834-3.606 2.501h-.017v-.017c.22-.663.493-1.395.8-2.194-.426-.272-.868-.409-1.294-.409z" aria-label="Illustration" style="font-size:34.8375px;font-family:&quot;Bring Heart&quot;;-inkscape-font-specification:&quot;Bring Heart, Normal&quot;;text-align:center;text-anchor:middle;fill:#1a1a1a;stroke-width:2.61281;stroke-linecap:round;stroke-linejoin:round" transform="rotate(-8.414)"/><path d="M272.187 98.312c-1.548 0-2.96.426-4.202 1.26-.323.22-.714.595-1.174 1.122-.765 1.003-1.14 2.007-1.14 3.045v.289c0 1.089.426 2.177 1.277 3.249-.494.187-.817.306-.936.374-.731.29-1.599.8-2.569 1.514l-.697.595c-.595.613-1.02 1.09-1.242 1.412-1.208 1.718-1.82 3.487-1.82 5.274v.272c0 1.684.527 3.232 1.582 4.644.12.187.493.561 1.089 1.122 1.514 1.174 3.198 1.752 5.086 1.752 2.126 0 4.065-.748 5.817-2.262.647-.63 1.055-1.072 1.225-1.36 1.004-1.413 1.514-2.91 1.514-4.458 0-2.942-1.99-5.154-5.035-5.154-1.276 0-2.398.323-3.334.97-.97.782-1.463 1.65-1.463 2.602 0 .29.068.613.221.97.494.834 1.276 1.242 2.382 1.242h.136l.034-.017c-.136-.323-.204-.613-.204-.868 0-.34.102-.68.306-1.003.561-.698 1.293-1.038 2.194-1.038h.051c.391 0 .732.085 1.038.255.527.357.782.987.782 1.854 0 1.174-.476 2.297-1.412 3.385-1.31 1.344-2.772 2.008-4.354 2.008h-.153a4.952 4.952 0 0 1-3.011-.987c-1.072-.936-1.616-2.126-1.616-3.572 0-1.65.646-3.164 1.922-4.576 1.548-1.446 3.521-2.586 5.63-2.586.17.017.324.017.443.034.697.205 1.088.307 1.156.307h.103c.51 0 .833-.68.97-2.025v-.085a.588.588 0 0 0-.086-.306c-.085-.153-.323-.306-.714-.476-.834-.272-1.412-.476-1.735-.63-1.123-.697-1.684-1.48-1.684-2.313v-.119c0-.63.289-1.242.884-1.82.8-.68 1.77-1.02 2.892-1.02a5.5 5.5 0 0 1 .544.033c1.514.204 2.263.766 2.263 1.684 0 .647-.375 1.395-1.106 2.229l.017.034c.561.357 1.089.527 1.582.527h.17c.442 0 .868-.136 1.293-.425.731-.579 1.105-1.327 1.105-2.263v-.05c0-.987-.442-1.94-1.31-2.858-1.292-1.191-2.857-1.787-4.711-1.787z" aria-label="&amp;" style="font-size:34.8375px;font-family:&quot;Bring Heart&quot;;-inkscape-font-specification:&quot;Bring Heart, Normal&quot;;text-align:center;text-anchor:middle;fill:#1a1a1a;stroke-width:2.61281;stroke-linecap:round;stroke-linejoin:round" transform="rotate(-8.414)"/></svg>