<?xml version="1.0" encoding="UTF-8" standalone="no"?>
<svg
   xml:space="preserve"
   viewBox="0 0 370.76932 127.93933"
   version="1.1"
   id="svg52"
   xmlns="http://www.w3.org/2000/svg"
   xmlns:svg="http://www.w3.org/2000/svg"><defs
     id="defs56" /><g
     id="g3350"
     transform="matrix(1.6418498,0,0,1.6418498,-169.07089,-132.82565)"><path
       fill="currentColor"
       d="m 122.2,107.1 c 1.2,0.6 1.9,1.5 2.1,2.8 0.2,1.2 -0.1,2.4 -0.8,3.7 -0.6,0.9 -1.1,1.6 -1.5,2 -0.8,0.9 -1.5,1.5 -2.1,1.9 -1.5,1.1 -2.8,1.7 -4.1,1.9 h -0.1 c -2.1,0.3 -3.7,-0.5 -4.9,-2.6 h 0.5 c 2,-0.3 4.5,-1.4 7.5,-3.1 1,-0.6 1.8,-1.3 2.6,-2 0.4,-0.4 0.5,-0.8 0.5,-1 v -0.1 c -0.1,-0.4 -0.7,-0.5 -1.9,-0.4 -0.1,0 -0.3,0 -0.6,0.1 h -0.1 c -2.7,0.4 -5.3,1.3 -7.8,2.8 -0.8,0.5 -1.6,1.1 -2.2,1.7 -1.1,1.1 -1.7,2.2 -1.9,3.5 v 0.9 c 0.3,1.8 2.92942,2.27194 6.22942,3.47194 1.50512,0.53754 1.18516,2.28508 2.12288,2.78905 0.80673,0.43357 2.06903,0.53782 2.9477,1.13901 1.1,0.9 1.9,1.8 2.3,2.8 0.4,0.7 0.6,1.3 0.7,2 0.3,1.9 -0.4,3.7 -2.2,5.3 -1.7,1.6 -3.8,2.5 -6.2,2.9 h -0.1 c -2.7,0.4 -5.2,0 -7.4,-1.3 -0.8,-0.5 -1.3,-0.9 -1.5,-1.2 -0.8,-0.8 -1.2,-1.7 -1.3,-2.5 v -0.3 c -0.1,-0.9 0.1,-2 0.8,-3.2 0.5,-0.8 1,-1.3 1.4,-1.6 0.7,-0.5 1.3,-0.8 1.9,-0.9 h 0.3 c 1,-0.2 2.1,0.1 3.4,0.9 0.8,0.5 1.2,0.9 1.4,1.1 l 0.2,0.2 c 0,0 -0.3,0.1 -0.9,0.2 -1.8,0.5 -3.1,1.1 -3.9,2.2 -0.3,0.4 -0.4,0.8 -0.3,1.2 v 0.2 c 0.1,0.6 0.6,1.1 1.5,1.5 1.2,0.4 2.4,0.5 3.6,0.3 1.5,-0.2 2.7,-0.8 3.6,-1.8 0.7,-0.8 0.9,-1.6 0.8,-2.5 V 132 c -0.3,-2 -2.5,-4 -6.5,-6 -1.1,-0.6 -2.2,-1.2 -3.3,-1.9 -2.3,-1.6 -3.6,-3.4 -3.9,-5.2 v -0.1 c -0.2,-1.5 0.2,-3 1.2,-4.6 0.6,-0.9 1.1,-1.5 1.6,-1.9 1.3,-1.3 3.37974,-1.95634 5.27974,-2.95634 1.06505,-0.50717 1.04242,-1.29751 1.94745,-1.74978 0.87944,-0.43949 2.68715,-0.54603 3.67281,-0.69388 2.2,-0.4 3.9,-0.3 5.4,0.2 z m 10.6,10.2 c 0,-0.2 0.3,-0.6 1,-1 0.3,-0.2 0.6,-0.3 1,-0.4 0.5,-0.1 1.1,0 1.7,0.2 0,0 -0.1,0.6 -0.3,1.6 -0.4,1.8 -0.7,3.9 -0.9,6.4 -0.2,1.9 -0.2,3.1 -0.1,3.6 0.1,0.4 0.2,0.7 0.4,0.8 h 0.2 c 0.7,-0.1 1.8,-1.5 3.3,-4.2 0.5,-0.9 0.8,-1.4 0.8,-1.5 0.1,-0.1 0.2,-0.1 0.2,-0.1 0.1,0 0.2,0.1 0.3,0.5 0.2,1 -0.1,2.5 -0.8,4.6 -0.3,0.8 -0.8,1.6 -1.4,2.6 -1,1.3 -2,2.1 -3,2.3 H 135 c -1.2,0.2 -2.3,-0.1 -3.1,-0.8 -0.3,-0.3 -0.4,-0.6 -0.5,-1 v -0.1 c -0.3,0.6 -0.6,1.1 -0.9,1.6 -0.6,0.7 -1.3,1.1 -2.1,1.3 -0.7,0.1 -1.9,0 -3.7,-0.4 -0.9,-0.4 -1.5,-1.2 -1.7,-2.6 v -0.3 c -0.3,-1.7 0,-3.9 0.9,-6.5 0.4,-1 0.9,-2.1 1.6,-3.4 1.5,-2.1 2.4,-3.2 4,-3.9 0.4,-0.3 0.8,-0.4 1.2,-0.5 0.8,-0.1 1.5,0.3 2.1,1.2 z m -5.8,13.2 c 0.1,0.7 0.3,1 0.6,1 h 0.1 c 0.7,-0.1 1.6,-1.4 2.7,-3.9 0.6,-1.5 1,-2.9 1.3,-4.3 0.2,-1.1 0.2,-1.9 0.1,-2.4 -0.1,-0.5 -0.3,-0.8 -0.7,-0.9 h -0.2 c -0.4,0.1 -0.9,0.4 -1.5,0.9 -0.4,0.5 -0.8,1 -1.1,1.5 -0.5,1.1 -0.9,2.2 -1.2,3.4 -0.4,1.9 -0.5,3.5 -0.3,4.6 z"
       id="path32" /><path
       fill="currentColor"
       d="m 145.2,113.5 c 2.3,-0.4 3.9,0.2 4.8,1.6 0.3,0.4 0.4,0.9 0.5,1.3 0.1,0.9 0,1.9 -0.5,2.9 -0.6,1.1 -1.3,1.6 -2.1,1.8 h -0.1 c -0.8,0.1 -1.6,-0.3 -2.3,-1.3 -0.1,-0.1 -0.1,-0.2 -0.1,-0.2 2,-1.2 3,-2.1 2.9,-2.6 0,-0.3 -0.6,-0.4 -1.6,-0.4 h -0.3 c -1,0.2 -2.1,0.8 -3.3,2 -0.9,1 -1.3,1.8 -1.2,2.5 0.1,0.8 0.8,1.3 2.2,1.5 0.7,0.2 1.5,0.5 2.3,0.9 1.5,0.9 2.4,2 2.6,3.4 0.2,1.5 -0.3,2.7 -1.5,3.8 -0.8,0.7 -1.9,1.1 -3.2,1.3 -1.7,0.3 -3.1,-0.1 -4.1,-1.1 -0.3,-0.3 -0.5,-0.7 -0.5,-1.1 -0.1,-0.8 0.1,-1.6 0.6,-2.4 0.3,-0.4 0.7,-0.7 1.2,-0.7 0.6,-0.1 1.2,0.1 1.9,0.7 -0.4,0.5 -0.5,0.9 -0.5,1.2 0.1,0.5 0.6,0.7 1.5,0.6 h 0.2 c 0.8,-0.1 1.5,-0.4 1.9,-0.9 0.2,-0.2 0.2,-0.4 0.2,-0.7 -0.1,-0.8 -1.5,-1.5 -4.2,-2.1 -2.5,-0.7 -3.9,-2.1 -4.3,-4.2 -0.2,-1.5 0.2,-3.1 1.2,-4.6 1.4,-1.8 3.3,-2.9 5.5,-3.3 z m 16.2,-0.6 c 0.4,0.5 0.7,1.1 0.8,1.9 v 0.2 c 0.3,1.7 -0.1,3 -1.3,3.7 -0.4,0.3 -0.8,0.4 -1.3,0.5 -0.8,0.1 -1.5,0 -2,-0.4 -0.1,-0.1 -0.1,-0.1 -0.1,-0.2 0.9,-1 1.5,-1.9 1.8,-2.6 0.4,-0.8 0.5,-1.3 0.5,-1.6 0,-0.2 -0.2,-0.3 -0.4,-0.3 -1,0.2 -1.9,1 -2.9,2.4 -1.1,1.7 -1.8,3.4 -2,5.2 -0.1,0.9 -0.1,1.6 0,2.2 0.2,1.1 0.7,1.8 1.6,2 h 0.7 c 1.5,-0.2 3.3,-1.7 5.4,-4.5 0.8,-1.1 1.3,-2 1.6,-2.5 0.2,-0.2 0.3,-0.3 0.4,-0.3 0.1,0 0.2,0.1 0.2,0.2 0.1,0.5 -0.1,1.5 -0.5,2.9 -0.2,0.8 -0.6,1.5 -1.1,2.4 -0.7,1.1 -1.3,1.9 -1.7,2.3 -1.2,1.2 -2.4,2 -3.7,2.4 -0.3,0.1 -0.7,0.2 -1,0.3 h -0.3 c -1.25653,1.78049 -2.6,0 -3.8,-0.7 -1.1,-0.7 -1.8,-1.8 -2.1,-3.2 -0.3,-2 0.2,-4.4 1.6,-7.2 0.3,-0.6 0.9,-1.6 1.7,-2.8 1.6,-2.1 3.2,-3.2 4.6,-3.5 1.3,0 2.3,0.3 3.3,1.2 z"
       id="path34" /><path
       fill="currentColor"
       d="m 167.9,102.8 c 1.3,-0.2 2,-0.1 2,0.1 -1.1,2.5 -2,6 -2.8,10.4 0.9,-1.8 2,-2.8 3.2,-3 h 0.3 c 0.6,-0.1 1.4,0 2.3,0.3 0.9,0.4 1.4,1.4 1.7,2.9 l 0.1,0.4 c 0.3,1.6 0.1,3.9 -0.4,6.9 -0.1,0.8 -0.1,1.4 -0.1,1.7 0.1,0.1 0.2,0.2 0.4,0.2 h 0.1 c 0.7,-0.1 1.8,-1.4 3.4,-4 l 1,-1.7 c 0.1,-0.1 0.2,-0.2 0.3,-0.2 0.1,0 0.2,0.1 0.3,0.5 0.1,0.9 -0.1,2.4 -0.8,4.4 -0.3,0.7 -0.7,1.5 -1.2,2.4 -1,1.6 -2.1,2.5 -3.3,2.6 l -0.0365,1.19444 c -2,0.3 -3.56352,-1.89444 -3.76352,-3.29444 -0.2,-1.4 -0.1,-4 0.4,-7.6 0.1,-1.5 0.2,-2.6 0.1,-3.2 -0.1,-0.7 -0.4,-1 -0.8,-1 -1.5,0.2 -2.9,3.8 -3.6,7.6 -0.3,1.9 -0.4,3.3 -0.2,4.2 v 0.3 c 0.2,1.1 0.4,2 0.8,2.7 -0.1,0.1 -0.4,0.2 -0.7,0.2 h -0.2 c -1.2,0.2 -2.2,-0.1 -3.1,-0.8 -0.3,-0.3 -0.6,-0.9 -0.7,-1.6 -0.3,-2.1 -0.1,-5.8 0.5,-10.9 0.8,-4.9 1.7,-8.4 2.8,-10.5 0.3,-0.6 0.6,-0.9 0.9,-1 0.2,-0.1 0.4,-0.1 0.6,-0.2 z"
       id="path36" /><path
       fill="currentColor"
       d="m 186.8,108.9 c 0,-0.2 0.3,-0.6 1,-1 0.3,-0.2 0.6,-0.3 1,-0.4 0.5,-0.1 1.1,0 1.7,0.2 0,0 -0.1,0.6 -0.3,1.6 -0.4,1.8 -0.7,3.9 -0.9,6.4 -0.2,1.9 -0.2,3.1 -0.1,3.6 0.1,0.4 0.2,0.7 0.4,0.8 h 0.2 c 0.7,-0.1 1.8,-1.5 3.3,-4.2 0.5,-0.9 0.8,-1.4 0.8,-1.5 0.1,-0.1 0.2,-0.1 0.2,-0.1 0.1,0 0.2,0.1 0.3,0.5 0.2,1 -0.1,2.5 -0.8,4.6 -0.3,0.8 -0.8,1.6 -1.4,2.6 -1,1.3 -2,2.1 -3,2.3 H 189 c -1.2,0.2 -2.3,-0.1 -3.1,-0.8 -0.3,-0.3 -0.4,-0.6 -0.5,-1 v -0.1 c -0.3,0.6 -0.6,1.1 -0.9,1.6 -0.6,0.7 -1.3,1.1 -2.1,1.3 -0.7,0.1 -1.9,0 -3.7,-0.4 -0.9,-0.4 -1.5,-1.2 -1.7,-2.6 V 122 c -0.3,-1.7 0,-3.9 0.9,-6.5 0.4,-1 0.9,-2.1 1.6,-3.4 1.5,-2.1 2.4,-3.2 4,-3.9 0.4,-0.3 0.8,-0.4 1.2,-0.5 0.9,-0.1 1.6,0.3 2.1,1.2 z m -5.8,13.2 c 0.1,0.7 0.3,1 0.6,1 h 0.1 c 0.7,-0.1 1.6,-1.4 2.7,-3.9 0.6,-1.5 1,-2.9 1.3,-4.3 0.2,-1.1 0.2,-1.9 0.1,-2.4 -0.1,-0.5 -0.3,-0.8 -0.7,-0.9 h -0.2 c -0.4,0.1 -0.9,0.4 -1.5,0.9 -0.4,0.5 -0.8,1 -1.1,1.5 -0.5,1.1 -0.9,2.2 -1.2,3.4 -0.4,1.9 -0.5,3.5 -0.3,4.6 z m 48.5,-31 c 0.5,-0.1 0.8,-0.1 0.8,0 -0.5,0.8 -0.9,1.5 -1.1,2.2 -1.3,3 -2.4,7 -3.4,12 -1,5.6 -1.2,10.3 -0.6,14 l 0.1,0.4 c 0.2,1.4 0.6,2.7 1.1,4 h -0.1 c -0.7,0 -1.6,-0.4 -2.8,-1.1 -0.5,-0.3 -0.8,-0.6 -1.1,-0.9 -0.7,-0.7 -1.3,-1.6 -1.7,-2.5 -2,-3.4 -4,-9.4 -5.6,-15.7 -0.1,-0.5 -0.2,-0.9 -0.3,-1.4 -0.5,1.3 -0.9,2.4 -1.1,3.3 -0.5,1.4 -0.8,3.3 -1,5.7 -0.2,2.9 -0.2,4.9 -0.1,6 l 0.4,2.6 c 0,0.1 0.1,0.3 0.1,0.6 -0.3,0.1 -2.1,-1.4 -2.7,-2.2 -0.6,-0.8 -1,-1.5 -1.2,-2.1 -0.1,-0.5 -0.2,-0.9 -0.3,-1.2 v -0.3 c -0.22219,-1.55532 -0.0347,-3.37726 0.4895,-5.39317 0.41948,-1.61327 1.21294,-3.30798 1.0105,-5.40683 0.5,-1.5 1.1,-2.9 1.7,-4.2 -2.7,0.9 -4.1,2.1 -5.5,3.5 -0.4,0.4 -0.7,0.9 -1.2,1.5 -1.2,1.9 -1.7,3.3 -2,4.8 0,0.2 -0.1,0.6 -0.1,1.2 -1.3,-0.3 -2,-1.8 -2.1,-2.6 -0.1,-0.7 -0.1,-1.6 0.1,-2.8 0.5,-2.4 1.8,-4.4 4,-5.9 1.2,-0.9 4.4,-2.4 7.6,-2.9 l 0.5,-0.1 c 1.4,-0.2 2.1,-0.2 2.2,-0.1 0.1,0 0.4,0.5 0.9,1.4 0.1,0.1 0.1,0.2 0.1,0.3 0,0.4 0.1,0.7 0.1,1 0.4,2.4 1.3,5.9 2.9,10.5 0.6,1.7 1.1,2.8 1.6,3.5 0,-1.9 0.1,-3.7 0.3,-5.5 0.18195,-1.75885 0.38229,-3.37976 0.60382,-4.8711 0.0888,-0.59791 0.76186,-1.05201 0.85766,-1.6088 0.10516,-0.61117 -0.3662,-1.320874 -0.25216,-1.883865 C 223.08676,97.072783 223.51411,95.469323 224,94.1 c 0.4,-1.2 0.8,-1.6 1.6,-2 1.2,-0.6 2.5,-1 3.9,-1.2 z"
       id="path38" /><path
       fill="currentColor"
       d="m 236.6,101.2 c 0,-0.2 0.3,-0.6 1,-1 0.3,-0.2 0.6,-0.3 1,-0.4 0.5,-0.1 1.1,0 1.7,0.2 0,0 -0.1,0.6 -0.3,1.6 -0.4,1.8 -0.7,3.9 -0.9,6.4 -0.2,1.9 -0.2,3.1 -0.1,3.6 0.1,0.4 0.2,0.7 0.4,0.8 h 0.2 c 0.7,-0.1 1.8,-1.5 3.3,-4.2 0.5,-0.9 0.8,-1.4 0.8,-1.5 0.1,-0.1 0.2,-0.1 0.2,-0.1 0.1,0 0.2,0.1 0.3,0.5 0.2,1 -0.1,2.5 -0.8,4.6 -0.3,0.8 -0.8,1.6 -1.4,2.6 -1,1.3 -2,2.1 -3,2.3 h -0.2 c -1.2,0.2 -2.3,-0.1 -3.1,-0.8 -0.3,-0.3 -0.4,-0.6 -0.5,-1 v -0.1 c -0.3,0.6 -0.6,1.1 -0.9,1.6 -0.6,0.7 -1.3,1.1 -2.1,1.3 -0.7,0.1 -1.9,0 -3.7,-0.4 -0.9,-0.4 -1.5,-1.2 -1.7,-2.6 v -0.3 c -0.3,-1.7 0,-3.9 0.9,-6.5 0.4,-1 0.9,-2.1 1.6,-3.4 1.5,-2.1 2.4,-3.2 4,-3.9 0.4,-0.3 0.8,-0.4 1.2,-0.5 0.9,-0.1 1.6,0.3 2.1,1.2 z m -5.7,13.2 c 0.1,0.7 0.3,1 0.6,1 h 0.1 c 0.7,-0.1 1.6,-1.4 2.7,-3.9 0.6,-1.5 1,-2.9 1.3,-4.3 0.2,-1.1 0.2,-1.9 0.1,-2.4 -0.1,-0.5 -0.3,-0.8 -0.7,-0.9 h -0.2 c -0.4,0.1 -0.9,0.4 -1.5,0.9 -0.4,0.5 -0.8,1 -1.1,1.5 -0.5,1.1 -0.9,2.2 -1.2,3.4 -0.4,1.9 -0.5,3.5 -0.3,4.6 z"
       id="path40" /><path
       fill="currentColor"
       d="m 247.3,90.5 c 1.2,-0.1 1.9,-0.1 1.9,0 0,0 -0.1,0.4 -0.5,1.2 -0.6,1.8 -1.3,4 -1.8,6.7 0.5,-0.3 1,-0.5 1.5,-0.6 0.5,-0.1 1.6,0.1 3.1,0.4 1.2,0.5 1.9,1.8 2.2,3.9 0.4,2.3 0.1,4.8 -0.7,7.5 -0.3,0.8 -0.7,1.6 -1.2,2.5 -0.6,0.8 -0.9,1.2 -1.2,1.4 -0.7,0.7 -1.3,1 -1.8,1.1 h -0.1 c -0.7,0.1 -1.6,-0.1 -2.6,-0.7 0.1,0.4 0.3,0.8 0.5,1.1 -0.1,0.1 -0.4,0.2 -0.7,0.2 h -0.1 c -1.2,0.2 -2.3,-0.1 -3.1,-0.8 -0.3,-0.4 -0.5,-0.8 -0.6,-1.2 -0.1,-0.2 -0.1,-0.4 -0.1,-0.6 -0.2,-1 -0.1,-2.9 0,-5.6 0.4,-4.5 1,-8.3 1.9,-11.5 0.4,-1.5 0.9,-2.8 1.4,-3.9 0.1,-0.3 0.3,-0.6 0.7,-1 0.2,-0.1 0.5,-0.2 0.9,-0.3 z m -0.9,21 c 0.5,-0.2 0.8,-0.3 1,-0.4 1.1,-0.8 1.9,-2.4 2.4,-4.7 0.3,-1.8 0.4,-3.4 0.2,-4.6 l -0.1,-0.3 c -0.1,-0.7 -0.3,-1.2 -0.7,-1.3 H 249 c -0.7,0.1 -1.5,1.4 -2.4,4 -0.9,2.8 -1.3,4.9 -1.1,6.5 0.2,0.6 0.5,0.9 0.9,0.8 z M 260,97 c -0.2,1.3 -0.4,2.3 -0.6,2.9 0.3,-0.5 0.7,-1.1 1.1,-1.6 1,-1.2 2,-1.8 3.2,-2 1.1,-0.2 1.9,0.2 2.4,1.2 0.1,0.2 0.2,0.4 0.2,0.6 v 0.1 c 0.3,1.9 -1,4.2 -3.4,5.3 0.4,-1.3 0.6,-2.3 0.4,-3 -0.2,-0.7 -0.5,-1 -0.9,-0.9 h -0.1 c -0.7,0.1 -1.4,1.1 -2.3,3.1 -1.3,3 -1.8,6.1 -1.6,7.3 0,0.3 0.1,0.6 0.1,1.1 v 0.1 c 0.1,0.8 0.3,1.5 0.6,2.1 -0.1,0.1 -0.3,0.2 -0.6,0.2 h -0.3 c -1,0.2 -1.9,-0.1 -2.7,-0.6 -0.4,-0.4 -0.6,-0.7 -0.6,-1 0,0 -0.1,-0.2 -0.1,-0.5 -0.3,-2 0.1,-6.3 1.3,-12.8 0.1,-0.5 0.2,-0.8 0.2,-0.8 0.5,-0.7 1.2,-1.1 1.8,-1.2 0.8,0.1 1.3,0.2 1.9,0.4 z m 12.9,-2.8 c 1.3,-0.2 2.8,0.2 4.5,1.3 l 0.6,0.6 c 0.5,0.7 0.9,1.5 1,2.6 0.2,1.1 0.2,2.4 0,3.9 h 1.2 c 0.9,-0.1 1.7,-0.6 2.1,-1.4 0.1,-0.2 0.2,-0.3 0.3,-0.3 0.1,0 0.2,0 0.2,0.2 v 0.1 c 0.1,0.7 -0.2,1.6 -0.9,2.6 -0.7,0.9 -1.6,1.4 -2.7,1.6 -0.3,0 -0.6,0.1 -0.8,0.1 -0.9,3.5 -2.7,5.5 -5.4,5.9 -1.6,0.3 -3.2,-0.1 -4.6,-1 -1.3,-0.9 -2,-2.1 -2.3,-3.7 -0.4,-2.4 0.1,-5 1.6,-7.9 1.4,-2.5 3.2,-4.2 4.9,-4.4 z m -0.7,13.9 c 0.2,0.1 0.4,0.1 0.6,0.1 h 0.1 c 0.5,-0.1 1.1,-0.7 1.9,-1.8 0.3,-0.5 0.5,-1 0.7,-1.4 -0.8,-0.3 -1.3,-0.8 -1.4,-1.6 v -0.1 c -0.1,-0.6 0,-1.2 0.4,-1.9 0.4,-0.6 0.8,-0.9 1.1,-0.9 0.2,0 0.3,0.1 0.4,0.4 0.1,0.2 0.3,0.4 0.5,0.6 0.1,-1 0.1,-1.8 0,-2.5 v -0.3 c -0.1,-0.9 -0.5,-1.6 -1,-2 -0.3,-0.2 -0.6,-0.2 -0.9,-0.2 -0.6,0.1 -1.2,0.4 -1.8,0.9 -1,1 -1.8,2.5 -2.1,4 -0.3,1.5 -0.4,2.8 -0.3,3.9 0.1,1.5 0.7,2.4 1.8,2.8 z"
       id="path42" /><path
       fill="currentColor"
       d="m 285.8,84.4 c 1.4,-0.2 2.1,-0.2 2.2,0.1 l -0.9,2.4 c 1.8,0 3.1,-0.1 3.8,-0.2 h 0.3 c 0.7,-0.1 1.2,-0.3 1.6,-0.6 l 0.1,0.1 c 0.1,0.5 0,1.5 -0.4,3.1 -0.2,0.6 -0.4,0.9 -0.6,0.9 -0.3,0.2 -0.7,0.3 -1.2,0.3 -0.9,0.1 -2.4,0.2 -4.6,0.1 -0.7,2.6 -1.2,5.6 -1.6,8.9 -0.2,2.6 -0.3,4.3 -0.2,5.1 0.1,0.5 0.2,0.7 0.4,0.8 h 0.3 c 0.7,-0.1 2,-1.7 3.7,-4.9 0.2,-0.5 0.5,-0.8 0.6,-0.8 0.1,0 0.3,0.1 0.3,0.5 0.2,1 -0.1,2.5 -0.8,4.6 -0.3,0.8 -0.7,1.6 -1.2,2.4 -1.2,1.7 -1.8,2.1 -3.1,2.5 -2.2,0.3 -3.5,-0.6 -3.8,-2.3 v -0.3 c -0.3,-2 -0.1,-5.3 0.5,-10.1 0.3,-2.1 0.7,-4.2 1.2,-6.2 -0.2,0 -0.4,0 -0.7,0.1 h -0.6 c -1.4,0.2 -2.3,0.8 -2.7,1.6 -0.1,0.2 -0.1,0.3 -0.1,0.3 0,-0.1 -0.1,-0.2 -0.1,-0.3 L 278.1,92 c -0.3,-1.6 0.3,-2.9 1.8,-3.7 0.7,-0.4 1.7,-0.7 2.8,-0.9 l 0.7,-0.1 c 0.2,-0.6 0.6,-1.3 1,-2.1 0.1,-0.3 0.5,-0.5 1.2,-0.6 z"
       id="path44" /><path
       fill="currentColor"
       d="m 301.6,90 c 0.2,0 0.3,0 0.3,0.2 0.3,1.1 0.5,1.9 0.5,2.3 0.1,0.7 -0.8,2.2 -2.6,4.5 -2.1,2.7 -3.8,4.8 -5,6.5 0.6,-0.3 1.3,-0.5 2,-0.6 1.2,-0.2 2.4,-0.1 3.8,0.3 1.1,0.4 1.9,1 2.4,1.8 0.4,0.7 0.6,1.3 0.7,2 0.2,1 0.1,1.8 -0.2,2.4 l -0.1,0.1 c 0,0 -0.2,-0.2 -0.4,-0.5 -1.9,-1.8 -4.4,-2.5 -7.7,-2 -1.3,0.2 -2.8,0.6 -4.3,1.2 -0.7,0.1 -1.4,-0.5 -2.2,-1.7 -0.1,-0.1 -0.1,-0.2 -0.1,-0.2 1.8,-2.1 3.9,-4.8 6.4,-8 1.8,-2.5 3,-4.1 3.5,-4.8 -0.3,0.1 -0.6,0.2 -0.9,0.2 h -0.2 c -0.3,0 -1.1,0.1 -2.6,0.2 -0.1,0 -0.2,0 -0.5,0.1 -1.3,0.2 -2.5,0.8 -3.7,1.8 -0.2,-0.4 -0.4,-0.8 -0.4,-1.1 -0.2,-1.3 0.5,-2.4 2.1,-3.2 0.3,-0.1 0.7,-0.2 1.1,-0.3 h 0.2 c 0.2,0 1.3,-0.1 3,-0.2 l 0.8,-0.1 c 0.7,-0.1 2,-0.4 4,-0.9 z"
       id="path46" /><path
       fill="currentColor"
       d="m 310.3,81 0.1,0.1 c -1,2.3 -1.8,5.4 -2.6,9.3 l -0.2,1 c 1.2,-2.1 2,-2.7 3.1,-2.9 0.6,-0.1 1.3,0.1 2.2,0.6 1,0.6 1.5,1.4 1.7,2.3 0.3,2 -1.1,4 -4.1,6.1 -0.7,0.5 -1,0.7 -1,0.8 0,0 0,0.1 0.1,0.4 0.1,0.9 0.6,1.8 1.4,2.5 0.5,0.4 1.1,0.6 1.6,0.5 1.1,-0.2 2.5,-1.6 3.9,-4.3 0.2,-0.3 0.5,-0.9 1.1,-2 0.1,-0.2 0.2,-0.2 0.3,-0.3 0.2,0 0.3,0.2 0.4,0.5 0.3,2.2 -1.2,5.6 -2.3,7.6 -0.7,0.9 -1.2,1.6 -1.6,1.9 -0.4,0.3 -0.7,0.5 -0.9,0.5 -1.4,0.2 -2.8,-0.7 -4.3,-2.9 -0.8,-1.3 -1.3,-2.6 -1.5,-3.8 -0.1,-0.8 -0.1,-1.2 0,-1.3 2.6,-1.7 4.4,-3.3 4.3,-4.5 -0.1,-0.4 -0.4,-0.8 -1.1,-1.1 h -0.4 c -1,0.2 -1.9,1.3 -2.8,3.5 -0.3,0.9 -0.5,1.7 -0.7,2.4 -0.4,1.9 -0.4,3.5 -0.2,4.9 v 0.3 c 0.2,1 0.5,1.9 1,2.6 0,0.1 -0.3,0.1 -0.7,0.2 -1.4,0.2 -2.5,-0.1 -3.3,-0.9 -0.3,-0.3 -0.5,-0.8 -0.6,-1.5 -0.4,-2.3 -0.1,-6.1 0.6,-11.4 0.9,-5.3 1.9,-8.8 3,-10.5 0.1,-0.3 0.5,-0.5 1,-0.6 0.1,0 0.2,-0.1 0.5,-0.1 0.8,0 1.5,0 2,0.1 z"
       id="path48" /><path
       fill="currentColor"
       d="m 327.2,85.7 c 0.5,-0.1 1,0 1.6,0.2 -0.6,2.8 -1.1,6.1 -1.4,9.8 -0.3,3.4 -0.7,6.2 -0.9,8.5 -0.4,3.1 -0.9,5.6 -1.3,7.4 -0.3,1.1 -0.7,2.1 -1.3,3 -1.2,2 -2.51017,1.34477 -4.4,3.3 -1.88983,1.95523 0.77298,9.87521 -1.16986,9.95797 -1.94283,0.0828 1.38131,-9.50844 -2.63014,-10.55797 -0.5,-0.3 -0.9,-0.6 -1.1,-0.9 -0.8,-1 -1.3,-2.2 -1.5,-3.6 -0.3,-2.1 0,-4 1.1,-5.7 1,-1.3 1.7,-1.9 2.9,-2.1 1.2,-0.2 2.4,0.1 3.5,0.8 0.6,0.5 1,1.1 1.1,1.6 -3.7,0.6 -5.4,2.3 -4.9,5 v 0.2 c 0.2,1.1 0.6,1.9 1.3,2.5 0.3,0.2 0.6,0.3 0.9,0.2 1.1,-0.2 2.1,-1.9 2.9,-5 0.4,-1.8 0.8,-4.7 1.2,-8.7 l 0.3,-2.1 c -0.2,0.4 -0.5,0.9 -1,1.6 -0.8,1.1 -1.5,1.7 -1.9,2 -0.4,0.2 -0.8,0.4 -1.1,0.4 h -0.1 c -1.6,0.2 -2.7,-1.2 -3.1,-3.3 -0.5,-3 0.6,-9.4 1.1,-11.3 0.4,-1.3 1.1,-2.1 2.1,-2.2 0.5,-0.1 1.1,0 1.7,0.1 -0.4,1.8 -0.8,4 -1.1,6.7 -0.2,2.6 -0.3,4.1 -0.2,4.7 v 0.2 c 0.1,0.6 0.3,0.9 0.7,0.9 h 0.1 c 0.7,-0.1 1.5,-0.9 2.4,-2.5 0.8,-1.4 1.3,-2.9 1.4,-4.3 0.3,-2.2 0.7,-4.2 1,-6 0.6,-0.7 1.2,-1.1 1.9,-1.2 z"
       id="path50" /></g><g
     id="g3360"
     transform="matrix(0.49482856,0,0,0.49482856,142.54552,60.571353)"><path
       fill="currentColor"
       d="m 33.4,35.1 c 1.4,1.3 2.2,3 2.6,5.1 0.2,1.4 -0.1,3.1 -0.8,5 -0.836495,2.99519 -1.622021,6.150567 -2.358543,9.466129 -0.820929,3.69553 -1.762062,6.930509 -2.463954,11.024049 -0.448134,2.613587 -0.27997,5.440195 -0.641359,8.361855 C 29.289404,77.663718 28.327279,81.420655 27.9,85.1 c -0.8,7.2 -1.3,14.6 -1.4,22.1 0,3.2 0,6.7 0.2,10.6 v 0.1 h -0.1 c -2.7,-0.3 -5.5,-2.9 -6.9,-7 -0.4,-1.4 -0.7,-3.2 -1.1,-5.3 -0.559819,-3.60383 -1.426047,-9.651138 -1.358017,-13.867471 0.07438,-4.610238 1.126887,-7.45294 1.503038,-12.886123 C 18.901139,76.591411 18.297758,74.08439 18.540547,71.697341 18.706839,70.062398 18.893366,68.396575 19.1,66.7 c 1.3,-9.5 3,-17.2 5.1,-23 -5.4,2.3 -7.5,4.1 -10.5,7.3 -1,0.9 -2.3,2.6 -3.9,5.2 -2.3,4 -3.5,8.1 -3.6,12.2 v 0.2 H 6.1 C 4.9,68.3 3.7,67.4 2.6,65.8 1.9,64.7 1.6,63.7 1.4,62.8 L 1.3,62.4 c -0.4,-2.8 -0.1,-6.1 1,-9.8 1.7,-5 5.4,-9.2 11,-12.5 4.5,-2.5 9.3,-4.1 14.5,-4.9 3.7,-0.5 5.6,-0.5 5.6,-0.1 z m 49.1,-4.9 c 2.4,1.6 3.9,4.1 4.4,7.4 0.782507,4.974509 -0.559352,12.010903 -4.008116,21.126644 -0.658311,1.740042 -1.024685,3.991573 -1.836411,5.883265 -0.652549,1.520736 -1.723337,2.654788 -2.474889,4.273671 C 76.402173,73.575984 73.808133,78.680945 70.8,84.2 c -0.4,0.5 -0.6,1 -0.5,1.4 -0.1,2.6 -0.1,4.2 0,4.8 l 0.1,0.5 c 0.2,1.6 1,2.3 2.2,2.1 1.316114,-0.181533 3.044156,-1.351693 5.174778,-3.501132 0.241508,-0.24364 0.870385,-0.404613 1.122224,-0.673404 0.299765,-0.319944 0.224643,-0.752945 0.539004,-1.10848 C 81.661532,85.19996 84.252245,81.791584 87.2,77.5 c 1.3,-1.9 2.4,-3.8 3.2,-5.6 0.3,-0.2 0.4,-0.4 0.5,-0.4 0.3,0 0.5,0.3 0.7,1.1 0.4,2.7 -0.3,6.7 -2.3,12.1 -1,2.8 -2.7,6 -4.9,9.5 -2,2.9 -3.3,4.8 -4.2,5.6 -0.59239,0.62624 -1.173322,1.20665 -1.742795,1.74073 -0.634987,0.59553 -1.890402,0.43666 -2.496896,0.91634 -2.063203,1.63179 -4.233927,2.83575 -6.173749,3.55378 -1.939822,0.71803 4.842885,30.11202 -2.094406,30.1332 C 60.6531,136.16554 70.126282,107.4641 63.3,104.5 61.8,103.3 61,102 60.8,100.9 c -0.1,0 -0.2,-0.6 -0.5,-1.8 -0.3,-1.7 -0.4,-4.1 -0.4,-7 -2.3,3.3 -3.7,5.2 -4.3,5.6 -3.8,4 -7.6,6.3 -11.3,6.9 -3.5,0.5 -6.3,-0.2 -8.5,-2.2 -0.9,-0.8 -1.5,-2.3 -1.9,-4.4 -0.320495,-2.019119 -0.448479,-5.986101 -0.629292,-8.887646 -0.179646,-2.882833 -0.414289,-4.694328 -0.06698,-8.518488 0.168788,-1.8585 1.184504,-3.977685 1.427854,-6.048288 C 34.956029,71.784944 35.346087,68.836125 35.8,65.7 c 2,-12 4.4,-20.7 7.1,-26.2 1.1,-1.9 2,-3 2.8,-3.3 0.6,-0.3 1.2,-0.4 1.8,-0.5 2.5,-0.4 5.2,0.1 8,1.4 2.5,1.4 4,3.7 4.5,6.9 0.517545,3.293471 -0.116014,7.605228 -1.890264,12.956101 -0.536719,1.618664 -0.538699,3.332418 -1.283897,5.141836 -0.552167,1.340719 -1.800608,2.73396 -2.46696,4.17996 C 52.578835,70.140629 50.391797,74.37984 47.8,79 L 44,86 c -0.1,2.5 -0.1,4.1 0,4.9 0.2,1.4 0.8,2.2 1.8,2.4 0.3,0.1 0.6,0.1 0.9,0 h 0.2 c 2.6,-0.4 6.6,-3.6 12,-9.6 0.9,-1.2 1.4,-1.8 1.4,-1.8 0.151028,-1.963358 0.320359,-3.91334 0.506754,-5.842504 0.09974,-1.032338 1.113475,-2.012421 1.222801,-3.031696 0.100449,-0.936504 -0.70424,-1.913307 -0.59601,-2.836937 0.802468,-6.848241 1.814771,-13.318262 2.976817,-19.0495 0.197847,-0.975784 0.862372,-2.03878 1.068604,-2.969954 0.20765,-0.93758 -0.04294,-1.743019 0.172609,-2.631752 C 67.376301,38.426358 69.344142,32.93694 71.4,30 c 0.7,-0.9 1.7,-1.4 3,-1.6 2.6,-0.3 5.3,0.3 8.1,1.8 z M 54,53.9 C 55.2,49 55.6,45.4 55.3,43 55.1,41.7 54.7,41.1 54.1,41.2 H 54 c -1.2,0.2 -2.8,3.9 -5,11.3 -1.5,5.5 -2.7,12 -3.7,19.7 5,-7.5 7.1,-12.9 8.7,-18.3 z m 27.4,-8.8 c 0.7,-3.8 0.8,-6.6 0.5,-8.4 l -0.1,-0.6 c -0.2,-1 -0.5,-1.5 -0.9,-1.5 0,-0.1 -0.1,0 -0.1,0 -1.110331,0.158619 -2.973025,2.163619 -4.662469,8.059133 -0.44075,1.53805 -0.461647,4.31664 -0.937531,6.240867 -1.3,5.5 -2.5,12.3 -3.5,20.5 2.647391,-4.125005 5.067351,-8.742778 6.933158,-13.923331 0.584564,-1.623085 0.590687,-2.964606 1.056413,-4.700329 C 80.151779,49.053729 81.07456,46.937779 81.4,45.1 Z"
       id="path18" /><path
       fill="currentColor"
       d="m 119.3,48.1 v 0.1 c -0.53027,2.16929 -1.06054,4.710398 -1.56841,7.634527 -0.26982,1.553547 -1.15189,3.175845 -1.4057,4.947299 -0.25947,1.810931 0.10975,3.775966 -0.12589,5.818174 -0.7,7 -0.9,11.4 -0.6,13.3 0.3,1.6 0.8,2.4 1.8,2.2 1.06574,-0.152248 1.8358,-2.034542 3.85639,-4.78066 0.63374,-0.861298 2.12734,-1.397179 2.84361,-2.51934 1.9,-3.2 3.5,-5.9 4.5,-7.9 0.5,-0.8 1.4,-1.2 1.7,0.5 l 0.1,0.4 c 0.4,2.5 -0.4,6.5 -2.2,11.9 -0.6,1.7 -1.5,3.6 -2.7,5.6 -3,4.9 -6.2,7.6 -9.5,8.2 l -0.5,0.1 c -4.5,0.7 -9.2,-1.2 -9.8,-5.4 l -0.1,-0.4 c -0.1,-0.9 -0.2,-1.5 -0.2,-1.8 -0.5,1.4 -1.6,3.3 -3.1,5.8 -1.8,2.3 -3.1,3.7 -3.9,4.1 -1,0.7 -2.2,1.2 -3.6,1.4 -3.2,0.5 -5.7,-1.1 -7.4,-4.7 -0.6,-1.2 -1,-2.6 -1.3,-4.5 V 88 c -0.7,-4.2 -0.3,-10.7 1.1,-19.5 1.1,-7.6 2.1,-12.1 3,-13.7 1.1,-2.1 2.7,-3.3 4.7,-3.6 l 0.3,-0.1 c 1.2,-0.2 2.7,-0.1 4.4,0.3 v 0.1 c -0.904001,3.955003 -1.680311,8.197308 -2.328931,12.708881 -0.253446,1.76288 -1.52739,3.994162 -1.741844,5.838191 C 95.321128,71.836441 96.171382,73.236218 96,75.1 c -0.3,4.3 -0.3,7 -0.1,8.3 0.2,1.5 0.7,2.4 1.4,2.7 0.2,0.1 0.4,0.1 0.7,0.1 1.4,-0.2 3.1,-2.1 5,-5.5 0.84964,-1.699277 2.64721,-3.358995 3.14156,-4.841844 0.48146,-1.444189 -0.33352,-2.707295 -0.0165,-4.658006 0.20032,-1.232614 0.3848,-2.636462 0.57494,-4.30015 1,-6.4 1.9,-11.7 2.8,-16 1.5,-1.9 3.3,-3 5.2,-3.3 1.5,-0.5 3,-0.2 4.6,0.5 z"
       id="path20" /><path
       fill="currentColor"
       d="m 143.4,41.3 c 6.4,-1 10.8,0.5 13.3,4.4 0.7,1.1 1.1,2.4 1.3,3.7 0.4,2.4 0,5.1 -1.3,8 -1.6,2.9 -3.5,4.5 -5.7,4.9 l -0.4,0.1 c -2.3,0.3 -4.4,-0.8 -6.3,-3.5 -0.2,-0.3 -0.3,-0.5 -0.3,-0.6 5.5,-3.4 8.2,-5.8 8,-7.2 -0.1,-0.9 -1.6,-1.2 -4.4,-1.2 l -0.8,0.1 c -2.8,0.4 -5.9,2.2 -9.2,5.4 -2.5,2.6 -3.6,4.9 -3.2,7 0.3,2.1 2.3,3.5 5.9,4.2 1.9,0.5 5.36986,0.34545 7.56986,1.54545 4.1,2.5 5.23014,6.65455 5.83014,10.35455 0.6,4 -0.7,7.5 -4.1,10.5 -2.3,1.8 -5.2,3 -8.7,3.5 -4.8,0.7 -8.5,-0.3 -11.1,-3.1 -0.8,-0.9 -1.3,-2 -1.5,-3.1 -0.3,-2.2 0.2,-4.4 1.7,-6.5 0.9,-1.2 2,-1.8 3.4,-2 1.6,-0.2 3.3,0.4 5.3,1.9 -1,1.4 -1.4,2.5 -1.3,3.4 0.2,1.3 1.5,1.8 4,1.7 l 0.5,-0.1 c 2.3,-0.3 4,-1.2 5.3,-2.6 0.4,-0.6 0.6,-1.2 0.5,-1.9 -0.3,-2.1 -4.1,-4 -11.4,-5.6 -6.9,-2 -10.8,-5.8 -11.7,-11.6 -0.7,-4.2 0.5,-8.4 3.3,-12.6 1.20411,-1.535236 2.49883,-2.880176 3.8869,-4.03482 1.27752,-1.062686 1.84258,-2.87175 3.28037,-3.612053 C 137.25686,41.625725 140.42628,41.779729 143,41.4 Z"
       id="path22" /><path
       fill="currentColor"
       d="m 172.8,16.9 c 3.9,-0.5 5.9,-0.4 5.9,0.1 -0.9,2.2 -1.7,4.4 -2.4,6.6 h 0.1 c 5,-0.1 7.49333,0.812878 9.49333,0.412878 L 187.7,22.9 c 2,-0.3 3.4,-0.9 4.3,-1.7 0.1,0 0.1,0 0.2,0.1 0.2,1.4 -0.1,4.2 -1.1,8.5 -0.5,1.6 -1.87398,1.042505 -2.47398,1.142505 -0.8,0.4 -0.92602,1.957495 -2.32602,2.157495 -2.5,0.4 -6.7,0.4 -12.7,0.2 -1.16774,4.425108 -2.14661,9.190174 -2.98304,14.364844 -0.28848,1.784655 0.0822,3.548798 -0.17433,5.43375 -0.20988,1.542338 -1.05185,3.18844 -1.24263,4.801406 -0.7,7.2 -0.8,11.9 -0.5,14 0.2,1.3 0.6,2 1.2,2.2 h 0.6 c 2,-0.3 5.4,-4.8 10.2,-13.5 0.7,-1.5 1.2,-2.3 1.7,-2.3 h 0.1 c 0.4,-0.1 0.7,0.4 0.9,1.3 0.4,2.7 -0.4,6.9 -2.3,12.5 -0.8,2.1 -1.9,4.3 -3.4,6.6 -3.3,4.6 -4.9,5.8 -8.5,6.8 -2.34062,3.472894 -6.22084,0.627933 -7.98457,-0.491649 C 159.4617,83.895117 159.149,81.493461 158.8,79.2 l -0.1,-0.8 c -0.3861,-2.606183 -0.49269,-6.097494 -0.30852,-10.507658 0.0627,-1.501681 1.72089,-3.643138 1.85147,-5.359221 C 160.52346,58.846538 159.39984,55.19539 160,50.5 c 0.8,-5.8 1.9,-11.4 3.2,-17.1 -0.5,0 -1.2,0.1 -2,0.2 l -0.7,0.1 h -0.2 c 0,0.1 -0.2,0.1 -0.2,0.1 l -0.3,0.1 c -3.8,0.6 -6.3,2.1 -7.4,4.5 -0.2,0.5 -0.3,0.8 -0.3,0.9 H 152 c -0.1,-0.4 -0.2,-0.6 -0.2,-0.8 l -0.2,-1.4 c -0.7,-4.5 0.9,-7.9 4.9,-10.2 0.97539,-0.536463 1.65336,-1.981789 2.90256,-2.375545 1.31225,-0.413627 3.20929,0.231698 4.79744,-0.02445 l 1.8,-0.3 c 0.6,-1.8 1.6,-3.6 2.9,-5.7 0.4,-0.8 1.5,-1.3 3.3,-1.6 z"
       id="path24" /><path
       fill="currentColor"
       d="m 193.5,37.2 c -0.7,3.6 -1.2,6.2 -1.5,8 0.9,-1.5 2,-3 3.2,-4.5 2.7,-3.2 5.6,-5.1 8.8,-5.6 3.1,-0.5 5.3,0.7 6.6,3.4 0.3,0.6 0.5,1.2 0.6,1.7 l 0.1,0.3 c 0.8,5.3 -2.7,11.5 -9.3,14.6 0,-0.1 0,-0.1 -0.1,0 1.1,-3.5 1.5,-6.3 1.2,-8.1 -0.5,-1.9 -1.3,-2.8 -2.4,-2.6 h -0.2 c -1.8,0.3 -4,3.1 -6.4,8.4 -0.83229,1.949942 -2.38961,3.729469 -2.98709,5.648001 -0.47366,1.520939 -0.0306,3.200956 -0.35972,4.615797 -1.00156,4.305571 -1.34003,7.943041 -1.05319,9.836202 0,0.7 0.1,1.7 0.3,3 v 0.2 c 0.3,2.1 0.9,4.1 1.7,5.8 -0.3,0.2 -0.9,0.4 -1.7,0.6 l -0.8,0.1 c -2.7,0.4 -5.1,-0.2 -7.3,-1.7 -1,-1 -1.6,-1.9 -1.7,-2.6 -0.1,0 -0.2,-0.4 -0.3,-1.3 -0.62894,-3.913427 -0.84122,-11.030438 0.58094,-20.897121 0.31695,-2.198925 1.29372,-4.367388 1.71254,-6.855782 0.39109,-2.323631 0.8266,-4.772971 1.30652,-7.347097 0.3,-1.3 0.4,-2.1 0.5,-2.2 1.5,-1.8 3.2,-2.9 5,-3.2 1.4,-0.3 2.9,0 4.5,0.7 z m 42.2,-5 c 0,-0.6 0.8,-1.6 2.7,-2.8 0.9,-0.5 1.8,-0.9 2.6,-1 h 0.1 c 1.4,-0.2 3,0 4.6,0.6 0,0.1 -0.3,1.6 -0.9,4.4 -0.39886,1.994294 1.17198,5.14648 0.81129,7.40166 -0.26171,1.636275 -2.46549,2.31227 -2.70135,4.09165 -0.25406,1.916784 -0.49172,3.918004 -0.70994,6.00669 -0.4,5.2 -0.5,8.5 -0.3,9.9 0.2,1.2 0.6,1.9 1.2,2.1 0.2,0.1 0.3,0.1 0.5,0.1 h 0.1 c 1.9,-0.3 5,-4.1 9.2,-11.4 1.3,-2.4 2.1,-3.8 2.3,-4.2 0.3,-0.2 0.5,-0.4 0.6,-0.4 0.4,-0.1 0.7,0.4 0.9,1.3 0.4,2.7 -0.3,6.9 -2.3,12.5 -0.8,2.1 -2.1,4.5 -3.8,7.2 -2.7,3.7 -5.4,5.8 -8.2,6.2 l -0.5,0.1 c -3.4,0.5 -6.3,-0.2 -8.4,-2.2 -0.8,-0.8 -1.2,-1.8 -1.4,-2.8 V 69.1 H 232 c -0.8,1.6 -1.6,3.1 -2.5,4.5 -1.5,2 -3.5,3.1 -5.9,3.5 -1.9,0.3 -5.2,-0.1 -10.1,-1 -2.5,-1 -4.1,-3.4 -4.7,-7.1 l -0.1,-0.8 c -0.26526,-1.781042 -1.53693,-4.102825 -1.36051,-6.251784 0.18888,-2.300745 1.85894,-4.455173 2.57994,-7.164728 0.38268,-1.438183 0.84221,-2.933012 1.38057,-4.483488 1,-2.8 2.4,-5.9 4.3,-9.2 1.90428,-2.7403 4.19615,-4.008335 5.77081,-5.664715 1.81567,-1.909888 2.91925,-4.0642 5.32919,-5.135285 1.2,-0.7 2.3,-1.1 3.2,-1.3 2.5,-0.3 4.5,0.7 5.8,3.2 z m -15.8,36.3 c 0.3,1.9 0.9,2.8 1.7,2.7 h 0.3 c 2,-0.3 5.13103,-2.865744 8.03103,-9.665744 0.87662,-2.191548 1.00214,-5.417352 1.63861,-7.576007 0.52522,-1.781309 0.96867,-3.54022 1.33036,-5.258249 0.5,-2.9 0.0212,-4.469943 -0.17884,-5.969943 C 232.52116,41.230057 232.5,39.8 231.4,39.7 H 231 c -1.1,0.2 -2.5,1 -4.1,2.4 -1.2,1.2 -2.2,2.7 -3,4.2 -1.4,2.9 -1.92685,6.034815 -2.62685,9.334815 -0.4858,2.574731 -1.58661,4.244291 -1.85684,6.304178 -0.28603,2.180323 0.27801,4.718402 0.48369,6.261007 z"
       id="path26" /><path
       fill="currentColor"
       d="m 265.2,2.6 c 2.7,-0.4 4.6,-0.4 5.7,0 0,0.1 0,0.1 0.1,0.2 -0.9,2.3 -1.7,4.5 -2.4,6.7 3.45238,-0.103056 5.24339,-1.1558949 7.7005,-1.325735 2.31138,-0.1597672 5.34534,0.568095 6.7995,0.325735 2.7,-0.4 4.6,-1 5.6,-1.8 h 0.1 c 0.1,0.1 0.2,0.2 0.2,0.3 v 0.3 c 0.13971,0.9314214 -0.95453,2.4782552 -1.08518,3.616462 -0.14989,1.305815 0.61947,2.234099 0.0852,3.783538 -1.2,2.9 -2.6,3.5 -5.7,4 l -0.5,0.1 c -1.14563,0.168475 -2.97971,-1.096287 -4.5606,-1.014815 -1.88015,0.09689 -3.5981,1.522789 -6.10574,1.508471 -1.64147,-0.0094 -3.41876,-0.04119 -5.33366,-0.09366 -0.3942,1.514549 -0.77118,3.085056 -1.13094,4.710628 -0.7095,3.205851 -0.21042,6.880161 -0.78599,10.507494 C 263.3438,37.816729 261.7217,41.143037 261.3,44.9 c -0.6,6.7 -0.7,11 -0.4,12.9 0.2,1.2 0.6,2 1.2,2.2 0.1,0 0.2,0.1 0.4,0.1 h 0.2 c 2,-0.3 5.5,-4.9 10.4,-13.8 0.1,-0.3 0.4,-1.7 0.6,-4.3 1.2,-7.5 2.1,-13 2.9,-16.7 1.5,-1.9 3.3,-3 5.1,-3.3 h 0.2 c 1.4,-0.2 2.9,0 4.4,0.7 v 0.1 c -0.61898,2.708047 -1.84746,5.50233 -1.64982,8.471754 C 284.96713,36.03367 283.9064,40.915094 282.7,46 c -0.3,4.5 -0.3,7.3 -0.2,8.5 0.3,1.7 0.8,2.4 1.8,2.3 2.1,-0.3 5.6,-5 10.5,-14 0.5,-1.3 1.1,-1.9 1.6,-2 0.4,0.1 0.7,0.5 0.8,1.3 0.8,5.3 -2.5,14 -5.9,19.2 -2.7,4 -5.6,6.3 -8.7,6.7 -2.10287,0.332032 -4.06016,1.31044 -5.6561,0.74071 C 275.65588,68.280905 274.63789,66.427212 273.7,65.4 272.5,64 272.2,61 272.3,59.8 v -0.1 h -0.1 c -3.1,7.1 -7.2,11 -12.3,11.8 -3.6,0.6 -6.4,-0.7 -8.5,-3.7 -0.4,-0.8 -0.6,-1.6 -0.8,-2.6 l -0.1,-0.9 C 249.9717,60.932098 249.96671,55.950654 250.4562,49.355669 250.708,45.963895 249.30183,42.850216 251.6,37.9 c 0.9,-6.8 2.1,-13 3.4,-18.7 -1.5,0.2 -2.3,0.2 -2.7,0.3 -4.5,0.7 -7.2,2.4 -8.2,4.9 -0.1,0.3 -0.1,0.5 -0.1,0.5 h -0.1 c -0.1,-0.3 -0.1,-0.6 -0.1,-0.8 l -0.2,-1.3 c -0.8,-5.3 1.5,-9.1 6.9,-11.2 1.7,-0.6 3.5,-1.1 5.4,-1.4 l 2,-0.3 c 0.7,-1.9 1.7,-3.9 2.8,-5.6 0.4,-0.8 1.5,-1.4 3.3,-1.6 z"
       id="path28" /><path
       fill="currentColor"
       d="m 308.4,17.2 c 3.6,-0.6 7.7,0.6 12.3,3.5 l 1.5,1.5 c 1.4,1.8 3.7301,4.2 4.1301,7.3 0.5,3 -0.9301,6.6 -1.4301,10.8 h 0.1 c 1.2,0.1 2.3,0.1 3.4,0 2.6,-0.4 4.5,-1.7 5.7,-3.8 0.3,-0.6 0.6,-0.9 0.8,-0.9 h 0.1 c 0.3,0 0.5,0.1 0.6,0.5 l 0.1,0.4 c 0.3,1.9 -0.5,4.3 -2.4,7.1 -2,2.4 -4.4,3.8 -7.3,4.3 -0.9,0.1 -1.7,0.1 -2.2,0.2 -2.4,9.6 -7.3,15 -14.8,16.2 -4.5,0.7 -8.7,-0.2 -12.6,-2.7 -3.5,-2.5 -5.5,-5.9 -6.2,-10.2 -0.35688,-2.319716 0.0911,-4.739454 -0.14908,-7.255728 -0.32782,-3.434467 0.18863,-6.202567 1.76805,-7.981348 1.47293,-1.658842 1.59378,-4.26054 2.68103,-6.462924 3.44789,-2.972192 5.59329,-6.164265 6.93014,-8.888784 C 302.66876,18.286891 305.78749,17.821469 307.9,17.5 Z m -2,38 c 0.7,0.2 1.2,0.2 1.6,0.2 h 0.3 c 1.3,-0.2 3,-1.9 5.1,-5.1 0.8,-1.4 1.4,-2.6 1.9,-3.8 v -0.1 c -2.3,-0.7 -3.6,-2.2 -3.9,-4.3 v -0.2 c -0.3,-1.7 0.1,-3.4 1,-5.1 1.1,-1.5 2.1,-2.3 3.1,-2.5 0.5,-0.1 0.8,0.3 1.1,1 0.4,0.6 0.9,1.2 1.4,1.6 0.3,-2.8 0.3,-5.1 0,-6.9 l -0.1,-0.8 c -0.4,-2.6 -1.3,-4.4 -2.8,-5.4 -0.8,-0.5 -1.6,-0.6 -2.4,-0.5 -1.6,0.2 -3.2,1.1 -4.9,2.5 -2.8,2.7 -4.9,6.9 -5.9,11 -0.55085,2.258502 -0.85896,4.365283 -0.95774,6.320345 -0.0805,1.594084 1.31381,3.438825 1.49346,4.831178 0.7,4.2 1.06428,6.348477 3.96428,7.248477 z"
       id="path30" /><path
       d="m 343.80021,12.700529 c -0.6,2.9 -1.2,5.5 -1.6,7.9 v 0.1 h 0.1 c 3.5,-6.4 7.2,-9.8 10.9,-10.4 l 0.3,-0.1 c 1.7,-0.2999999 3.4,0 5.1,0.9 2,1.4 3.3,4.2 3.9,8.3 3.26823,6.88968 0.4,10.9 -0.9,18.9 -0.3,2.5 -0.4,4.2 -0.3,5 0.4,0.4 0.7,0.5 1.1,0.5 1.9,-0.3 5,-3.9 9.3,-10.8 1.1,-2 1.9,-3.5 2.5,-4.7 0.3,-0.5 0.6,-0.7 0.9,-0.7 0.4,-0.1 0.7,0.4 0.9,1.3 0.8,5 -2.4,13.6 -5.5,18.7 -2.9,4.3 -5.9,6.7 -9,7.2 -4.2,0.7 -7.4,-0.3 -9.5,-3 -0.4,-0.7 -0.7,-1.6 -0.8,-2.7 -5.04938,-9.35889 -0.2,-10.8 1.1,-21 0.4,-3.3 0.6,-5.5 0.4,-6.5 v -0.1 c -0.1,-0.9 -0.6,-1.4 -1.4,-1.6 h -0.6 c -4.2,0.6 -8.6,11.8 -10.4,21 -0.7,3.4 -0.8,6.5 -0.3,9.3 l 0.2,1.4 c 0.3,2.1 0.9,4.1 1.8,5.8 0,0.2 -0.8,0.4 -2.1,0.7 -3.5,0.5 -6.3,-0.1 -8.4,-2.1 -0.9,-0.8 -1.5,-2 -1.7,-3.6 -0.551,-3.55087 2.619,-9.96955 1.6156,-18.35839 -0.57582,-4.81414 1.28312,-5.27913 1.84001,-8.64095 0.49049,-2.96105 -0.19121,-6.32288 0.44439,-9.70066 0,-0.2 0.5,-0.8 1.5,-1.8 1.3,-1 2.5,-1.6 3.8,-1.8 1.7,-0.3 3.3,-0.1 4.8,0.6 z"
       style="fill:currentColor"
       id="path3320" /></g></svg>
