<?xml version="1.0" encoding="UTF-8" standalone="no"?>
<svg
   xml:space="preserve"
   viewBox="0 0 53.839661 39.999999"
   fill="currentColor"
   version="1.1"
   id="svg3964"
   xmlns="http://www.w3.org/2000/svg"
   xmlns:svg="http://www.w3.org/2000/svg"><defs
     id="defs3968" /><path
     style="fill:none;stroke:currentColor;stroke-width:3;stroke-linecap:round;stroke-linejoin:round;stroke-dasharray:none"
     d="M 3.1199212,38.113163 C 1.9860545,36.625832 2.0923646,34.565795 1.9057987,32.77224 2.059046,30.907161 2.1204439,29.044559 1.8840873,27.179648 1.7579058,23.895403 2.0601958,16.86783 1.8349558,13.583393 1.9921402,11.673454 1.8168944,9.6948141 2.2460652,7.8300394 2.9221269,5.1613013 4.8514869,2.7293487 7.6178904,2.0789906 11.938774,1.0373062 16.570389,1.9985019 20.633812,1.6362547 c 1.96849,-0.091592 7.672127,-0.1588167 9.642721,-0.1424959 7.377834,0.2717457 10.961309,-0.1560679 15.769835,0.3876415 1.899878,0.1822965 5.295737,0.3250271 5.649201,2.6558763 0.875917,2.3108223 -0.100908,7.4121334 0.50705,9.7384924 -0.25508,5.460865 -0.557065,11.04893 -0.02703,16.143214 -0.04209,2.328859 0.285722,6.825778 -2.415367,7.352912 -10.821756,1.294547 -18.404934,0.495158 -27.797785,0.466135 -3.097048,-0.329473 -10.562435,0.403958 -13.9831011,0.156042"
     id="path4867" /><path
     style="fill:none;stroke:currentColor;stroke-width:3;stroke-linecap:round;stroke-linejoin:round;stroke-dasharray:none"
     d="m 9.0138198,10.218649 c 4.9570282,2.791917 7.3946022,3.476769 11.2432382,7.114597 2.058467,1.391484 3.80893,3.126439 5.851259,4.533451 2.238868,2.345381 3.857932,0.25397 6.771817,-2.645774 2.449277,-2.390209 3.943537,-3.534286 5.400894,-5.85875 1.890515,-2.114099 4.003238,-4.0210017 5.935323,-6.0924348"
     id="path4869" /><path
     style="fill:none;stroke:currentColor;stroke-width:3;stroke-linecap:round;stroke-linejoin:round;stroke-dasharray:none"
     d="m 21.128836,19.615071 c 0.846655,-0.857937 -2.801786,2.899112 -3.805492,4.369273 -1.726639,1.925677 -3.330215,3.054809 -5.89726,5.69971"
     id="path4871" /><path
     style="fill:none;stroke:currentColor;stroke-width:3;stroke-linecap:round;stroke-linejoin:round;stroke-dasharray:none"
     d="m 36.182788,17.843136 c 4.193797,3.79928 7.009975,7.300294 9.975944,11.295452"
     id="path4873" /></svg>
