<svg xmlns="http://www.w3.org/2000/svg" xml:space="preserve" style="enable-background:new 0 0 255.2 189.6" viewBox="0 0 255.2 189.6" fill="currentColor"><path d="M213.7-1H42C19.1-1 .4 17.7.4 40.6V149c0 22.9 18.7 41.6 41.6 41.6h171.7c22.9 0 41.6-18.7 41.6-41.6V40.6c0-22.9-18.7-41.6-41.6-41.6zm27.7 41.6V149c0 15.3-12.4 27.7-27.7 27.7H42c-15.3 0-27.7-12.4-27.7-27.7V40.6c0-15.3 12.4-27.7 27.7-27.7h171.7c15.3 0 27.7 12.4 27.7 27.7z"/><path d="m167.5 96.9 56.5-55c3.2-3.1 2.4-7.3 0-9.8-2.5-2.6-6.8-3.5-10.1-.3l-86 83.8-86-83.8C40 30 37.7 29.3 35.3 30c-2.6.7-4.7 2.9-5.4 5.5-.6 2.3.1 4.6 1.9 6.4l56.7 55.3-55.8 53c-1.9 1.8-2.6 4-2 6.3.6 2.5 2.8 4.8 5.3 5.5 2.4.7 4.8.1 6.7-1.7l56-53.1 24.1 23.5c1.4 1.4 3.2 2.1 5 2 1.9.1 3.6-.6 5.1-2l24.4-23.8 56.3 53.4c1.5 1.4 3.2 2 4.8 2 2.1 0 4-1 5.4-2.4 2.3-2.4 3.2-6.5-.1-9.7l-56.2-53.3z"/></svg>