<svg xmlns="http://www.w3.org/2000/svg" xml:space="preserve" viewBox="0 0 30 30"><g style="fill:currentColor;fill-opacity:1"><path d="m9590.91 3829.79-2347.78 701.48 103.96-2420.48 838.99 642.75 983.71-1252.64 604.86 463.4-983.71 1252.63 799.97 612.86" style="fill:currentColor;fill-opacity:1;fill-rule:nonzero;stroke:none" transform="matrix(.00345 0 0 -.00345 -5.28 35.178)"/><path d="M6125.57 3734.19h775.13c-260.22-380.81-550.23-673.56-775.13-870.98Zm-493.86 4292.46H4614.77c142.96 240.2 296.14 451.98 439.53 629.58 204.75 253.62 408.99 463.46 577.41 622.01zm0-1780.4H4039.56c24.29 470.75 150.03 906.7 321.67 1292.62h1270.48zm0-2024.29H4575.12c-297.78 506.09-473.24 1019.05-524.37 1536.52h1580.96zm0-1305.23c-279.93 269.91-523.42 542.53-730.05 817.46h730.05zm-2550.46 817.46h1225.9c298.89-447.08 684.65-886.64 1156.97-1317.24-956.94 110.91-1801.56 600.76-2382.87 1317.24zm-334.51 487.77c-263.01 458.78-430.28 980.31-474.02 1536.52h1282.54c44.74-519.58 199.07-1032.4 461.89-1536.52Zm-172.67 3316.91h1256.24c-169.29-428.94-265.82-863.27-285.31-1292.62H2266.29c23.93 458.1 131.64 894.07 307.78 1292.62zm2774.82 2131.29c-190.47-174.5-432.44-417.2-677.58-719.32-243.43-300.02-449.23-609.52-615.86-924.19H2835.17c553.38 868.89 1460.42 1486.52 2513.72 1643.51zm776.68-2131.29h1025.76c198.05-438.74 323.88-869.98 377.01-1292.62H6125.57Zm0 1611.86c309.02-379.19 568.35-754.09 777.61-1124.08h-777.61Zm2796.54-1124.08H7457.82c-282.82 545.47-666.3 1098.37-1149.78 1656.96 1095.92-131.69 2043.18-760.6 2614.07-1656.96Zm568.87-1780.4H8025.9c-47.72 425.07-161.29 856.24-340.78 1292.62H9183.2c176.15-398.55 283.85-834.52 307.78-1292.62zM6350.51 2423.91c179.58 147.18 411.38 359.36 645.74 633.55l-42.41 1164.5h-828.27v1536.52h1431.84c-1.24-154.67-12.12-308.14-33.54-460.24-23.57-167.34-59.06-327.57-103.72-480.68l481.22-109.23c47.32 166.19 85.22 340.18 111.15 522.01 24.92 174.83 37.54 350.93 38.89 528.14h1433.14c-37.22-473.29-164.16-921.31-363.14-1327.08l492.41-111.77C9855.11 4846.86 9990 5433.38 9990 6051.14c0 2286.18-1844.35 4146.16-4111.36 4146.16-2267.02 0-4111.36-1859.98-4111.36-4146.16S3611.62 1905 5878.64 1905c400.33 0 787.39 58.3 1153.53 166.37l-18.44 506.14c-213.07-71.38-434.79-123.37-663.22-153.6" style="fill:currentColor;fill-opacity:1;fill-rule:nonzero;stroke:none" transform="matrix(.00345 0 0 -.00345 -5.28 35.178)"/></g></svg>