<?xml version="1.0" encoding="UTF-8" standalone="no"?>
<!-- Created with Inkscape (http://www.inkscape.org/) -->

<svg
   width="353.88956"
   height="113.41844"
   viewBox="0 0 353.88956 113.41844"
   version="1.1"
   id="svg5"
   inkscape:version="1.2 (56b05e47e7, 2022-06-09, custom)"
   sodipodi:docname="logo.svg"
   xmlns:inkscape="http://www.inkscape.org/namespaces/inkscape"
   xmlns:sodipodi="http://sodipodi.sourceforge.net/DTD/sodipodi-0.dtd"
   xmlns="http://www.w3.org/2000/svg"
   xmlns:svg="http://www.w3.org/2000/svg">
  <sodipodi:namedview
     id="namedview7"
     pagecolor="#505050"
     bordercolor="#eeeeee"
     borderopacity="1"
     inkscape:showpageshadow="0"
     inkscape:pageopacity="0"
     inkscape:pagecheckerboard="0"
     inkscape:deskcolor="#505050"
     inkscape:document-units="mm"
     showgrid="false"
     inkscape:zoom="0.9983453"
     inkscape:cx="-10.517403"
     inkscape:cy="36.059668"
     inkscape:window-width="1920"
     inkscape:window-height="1016"
     inkscape:window-x="0"
     inkscape:window-y="0"
     inkscape:window-maximized="1"
     inkscape:current-layer="layer1" />
  <defs
     id="defs2" />
  <g
     inkscape:label="Ebene 1"
     inkscape:groupmode="layer"
     id="layer1"
     transform="translate(-22.164354,-17.554434)">
    <g
       aria-label="Illustrationen"
       transform="rotate(-10.784768)"
       id="text63"
       style="font-size:93.3689px;line-height:1.25;fill:#e6e6e6;stroke-width:2.33422;fill-opacity:1">
      <path
         d="m 33.574268,66.170037 c -4.057535,0 -7.9783,0.683854 -11.716703,2.051563 -4.741389,1.869201 -8.06948,4.650208 -9.984271,8.297431 -1.276528,2.735417 -1.9147922,5.197292 -1.9147922,7.431216 v 0.319132 c 0,0.683854 0.1823612,1.504479 0.5470832,2.461875 0.638264,1.322118 1.413299,2.188333 2.325105,2.553056 h 0.09118 v -0.182361 c 0.592674,-3.14573 2.005972,-6.154688 4.239896,-8.981286 1.55007,-1.778021 2.735417,-2.917778 3.601633,-3.510452 2.689826,-2.051562 4.513437,-3.191319 8.935695,-4.331076 -2.279514,4.239896 -4.513438,9.938681 -6.656181,17.096355 -3.328091,11.80788 -5.014931,21.79215 -5.014931,29.90722 0,1.64126 0.04559,3.05455 0.182361,4.19431 0.592673,3.2825 2.416285,5.60761 4.467847,6.20028 h 0.09118 l 0.04559,-0.0456 c 0.319132,-2.96337 0.683854,-5.69879 1.094167,-8.16066 0.957396,-5.78997 2.188333,-11.44316 3.692813,-16.86841 3.23691,-11.716698 6.701771,-21.655379 10.394584,-29.81604 0.775035,-1.413298 1.185347,-2.689826 1.185347,-3.783993 0,-1.59566 -0.455903,-3.008959 -1.367708,-4.194306 0,-0.319132 -1.413299,-0.547083 -4.239896,-0.638264 z"
         style="font-family:'Bring Heart';-inkscape-font-specification:'Bring Heart';fill:#e6e6e6;fill-opacity:1"
         id="path301" />
      <path
         d="m 70.183265,66.58035 c -1.048577,0 -1.869202,0.273541 -2.507466,0.866215 -4.604618,4.786979 -10.576945,20.789168 -14.725661,38.614965 0,0.0456 -0.455903,0.45591 -1.322118,1.23094 -4.83257,3.96636 -8.297431,5.92674 -10.348994,5.92674 h -0.182361 c -0.227951,0 -0.455903,-0.0456 -0.683854,-0.13677 -0.729445,-0.27355 -1.094167,-0.9574 -1.094167,-2.09716 0,-0.59267 0.182361,-1.82361 0.547083,-3.7384 l 3.966355,-4.87816 c 9.026876,-11.48875 13.540314,-19.968543 13.540314,-25.484967 0,-2.507465 -0.866216,-4.467847 -2.644237,-5.835556 -2.051562,-1.322118 -4.057535,-2.005972 -6.017917,-2.005972 -0.501493,0 -0.957396,0.04559 -1.458889,0.182361 -0.683854,0.136771 -1.504479,0.866215 -2.553056,2.233924 -2.781007,3.875174 -5.653195,10.303403 -8.616563,19.284689 -3.510452,11.443161 -5.288473,19.649411 -5.288473,24.618751 0,1.68684 0.319132,2.91778 0.911806,3.60163 1.458889,1.82361 3.556042,2.73542 6.291459,2.73542 2.917778,0 6.063507,-1.32212 9.482778,-3.96635 0.501494,-0.22796 1.823612,-1.50448 3.966355,-3.784 -0.319132,2.27952 -0.501493,4.10313 -0.501493,5.47084 0.04559,0.95739 0.09118,1.45888 0.136771,1.45888 0,0.91181 0.501493,1.96039 1.504479,3.10014 1.504479,1.36771 3.19132,2.05157 5.151702,2.05157 h 0.547083 c 2.142743,0 4.78698,-1.23094 7.887119,-3.69282 0.775035,-0.54708 2.051563,-1.82361 3.920764,-3.82958 2.142743,-2.46188 3.783993,-4.6958 4.92375,-6.74736 2.142744,-3.96636 3.19132,-6.97531 3.19132,-9.07247 -0.04559,-0.63826 -0.182361,-0.95739 -0.410312,-0.95739 -0.09118,0 -0.227952,0.0912 -0.455903,0.22795 -0.866216,1.27653 -1.914792,2.59864 -3.14573,3.92076 -6.428229,6.79295 -10.804896,10.21223 -13.08441,10.21223 -0.957396,0 -1.458889,-0.63827 -1.458889,-1.86921 v -0.41031 c 0,-0.50149 0.182361,-1.73243 0.547083,-3.69281 0,-0.31913 0.182361,-0.68386 0.547083,-1.04858 11.944654,-15.637465 17.916981,-26.989445 17.916981,-33.964758 0,-2.644236 -0.820625,-4.741389 -2.507466,-6.245868 -2.005972,-1.50448 -4.011944,-2.279514 -5.972326,-2.279514 z m -6.975313,31.183752 c 1.778021,-6.200278 3.510451,-11.30639 5.151701,-15.363925 2.917778,-6.884132 4.923751,-10.348994 6.017918,-10.348994 0.04559,0 0.09118,0 0.09118,0.04559 0.273542,0 0.455903,0.410312 0.501493,1.230937 v 0.455903 c 0,1.458889 -0.455903,3.601632 -1.413299,6.42823 -2.507465,7.157674 -6.291458,12.856459 -10.348993,17.552258 z M 42.509964,96.669935 c 1.68684,-5.744375 3.419271,-10.622535 5.197292,-14.68007 2.553056,-5.379654 4.285486,-8.06948 5.197292,-8.06948 h 0.09118 c 0.455903,0 0.683855,0.501493 0.683855,1.504479 0,1.869202 -0.775035,4.604619 -2.279514,8.251841 -1.869202,4.011945 -4.148716,7.887119 -8.890105,12.99323 z"
         style="font-family:'Bring Heart';-inkscape-font-specification:'Bring Heart';fill:#e6e6e6;fill-opacity:1"
         id="path303" />
      <path
         d="m 98.859551,85.910629 c -1.504479,0 -2.963368,0.638264 -4.376667,1.914792 -1.230938,3.191319 -2.553056,7.157674 -4.057535,11.944653 -1.413299,5.288476 -2.279514,7.020906 -4.467848,10.166636 -1.869201,2.41628 -3.373681,3.64722 -4.513438,3.64722 -0.227951,-0.0456 -0.410312,-0.0912 -0.547083,-0.18236 -0.501493,-0.31913 -0.775035,-1.09417 -0.775035,-2.27952 0,-1.00298 0.364723,-3.10013 1.094167,-6.33704 1.64125,-6.610595 3.510452,-12.537332 5.607605,-17.734624 v -0.04559 c -1.276528,-0.501493 -2.370695,-0.775035 -3.328091,-0.775035 h -0.273542 c -1.595659,0 -2.963368,0.729444 -4.057535,2.233924 -0.866215,1.139757 -2.188333,4.513438 -3.920764,10.212223 -2.142743,6.610592 -3.19132,11.579932 -3.19132,14.908022 v 0.0912 c 0,1.45889 0.136771,2.64424 0.455903,3.60163 0.866216,3.00896 2.553056,4.51344 5.106112,4.51344 1.048576,0 2.051562,-0.22795 2.917778,-0.63826 0.683854,-0.22795 1.869201,-1.13976 3.510451,-2.68983 1.413299,-1.68684 2.461876,-3.00896 3.054549,-4.05754 -0.04559,0.27355 -0.09118,0.72945 -0.09118,1.4133 v 0.31914 c 0,3.32809 3.419271,5.33406 6.929723,5.33406 h 0.364722 c 2.598646,0 5.379653,-1.73243 8.251837,-5.1517 1.13976,-1.4133 2.05157,-2.73542 2.73542,-3.96636 2.09715,-3.96635 3.14573,-6.92972 3.14573,-8.8901 v -0.31913 c 0,-1.32212 -0.72944,-1.09417 -1.23094,-0.54709 -1.04857,1.45889 -2.55305,3.32809 -4.42225,5.56202 -2.872193,3.19132 -4.878165,4.78698 -6.017922,4.78698 -0.729444,0 -1.094167,-0.63827 -1.094167,-1.9148 0,-1.50448 0.683854,-4.87816 2.051563,-10.16663 1.68684,-5.881145 3.236906,-10.440173 4.604616,-13.768264 v -0.09118 c -1.13975,-0.729445 -2.27951,-1.094167 -3.464859,-1.094167 z"
         style="font-family:'Bring Heart';-inkscape-font-specification:'Bring Heart';fill:#e6e6e6;fill-opacity:1"
         id="path305" />
      <path
         d="m 121.28997,84.634101 c -4.78698,0 -9.02688,1.732431 -12.6741,5.151702 -2.68982,2.872188 -4.05753,5.972327 -4.05753,9.300417 0,4.55903 2.55305,7.9783 7.61357,10.3034 5.42525,2.14275 8.11507,4.05754 8.11507,5.69879 0,0.50149 -0.22795,0.95739 -0.63826,1.36771 -1.13976,0.9118 -2.59865,1.36771 -4.37667,1.36771 h -0.41031 c -1.91479,-0.18237 -2.87219,-0.77504 -2.87219,-1.77803 0,-0.68385 0.45591,-1.50447 1.36771,-2.46187 -1.32212,-1.4133 -2.59864,-2.09715 -3.82958,-2.09715 -1.04858,0 -1.96038,0.36472 -2.8266,1.13975 -1.36771,1.45889 -2.05156,3.05455 -2.05156,4.78698 0,0.91181 0.27354,1.77802 0.77503,2.59865 1.68684,2.46187 4.42226,3.69281 8.20625,3.69281 2.73542,0 5.10611,-0.54708 7.11209,-1.68684 2.96337,-1.96038 4.42225,-4.46785 4.42225,-7.61358 0,-2.96336 -1.45888,-5.6076 -4.33107,-8.02388 -1.59566,-1.18535 -3.14573,-2.09716 -4.55903,-2.73542 -2.68983,-0.9574 -4.05754,-2.27952 -4.05754,-3.920766 0,-1.59566 1.09417,-3.23691 3.32809,-4.96934 2.91778,-2.051563 5.47084,-3.054549 7.70476,-3.054549 h 0.63827 c 2.14274,0.273541 3.23691,0.729444 3.23691,1.413298 0,1.094167 -2.32511,2.598646 -6.97532,4.559029 0,0.04559 0.0456,0.227951 0.18236,0.501493 1.13976,2.325105 2.64424,3.464865 4.42226,3.464865 h 0.31913 c 1.73243,0 3.37368,-1.00299 4.96934,-3.054553 1.32212,-2.051562 1.96039,-4.057535 1.96039,-5.972327 0,-1.048576 -0.18236,-2.051562 -0.59268,-3.008958 -1.45889,-3.328091 -4.6958,-4.969341 -9.71073,-4.969341 z"
         style="font-family:'Bring Heart';-inkscape-font-specification:'Bring Heart';fill:#e6e6e6;fill-opacity:1"
         id="path307" />
      <path
         d="m 146.72934,69.361357 c -1.45889,0 -2.37069,0.273541 -2.73541,0.820625 -1.23094,1.413299 -2.18834,2.735417 -2.87219,4.011945 h -1.4133 c -2.50747,0 -4.55903,0.319132 -6.24587,0.911805 -3.32809,1.322118 -4.96934,3.738403 -4.96934,7.294445 v 1.094167 c 0,0.136771 0,0.319132 0.0456,0.638264 h 0.0912 c 0,-0.09118 0.0912,-0.319132 0.31913,-0.638264 1.13976,-1.732431 3.19132,-2.598646 6.20028,-2.598646 h 0.27354 c 0.0456,0 0.13677,0 0.18236,-0.04559 0.0456,0.04559 0.0912,0.04559 0.13678,0.04559 h 0.54708 c 0.63826,0 1.13976,0.04559 1.55007,0.09118 -1.68684,4.194305 -3.19132,8.434202 -4.51344,12.765278 -2.87219,9.984273 -4.33108,17.050763 -4.33108,21.290663 v 0.63826 c 0,3.60163 2.50747,6.06351 7.24886,6.06351 2.91778,-0.36472 4.33108,-1.09417 7.38562,-4.2399 1.4133,-1.59566 2.50747,-3.14573 3.37369,-4.6502 2.18833,-4.10313 3.2825,-7.20327 3.2825,-9.34601 0,-0.72945 -0.18237,-1.09417 -0.5015,-1.09417 h -0.0456 c -0.31913,0 -0.86621,0.54708 -1.55007,1.59566 -4.78698,6.1091 -7.93271,9.16365 -9.48278,9.16365 h -0.18236 c -0.13677,0 -0.22795,0 -0.31913,-0.0456 -0.4559,-0.22795 -0.68385,-0.86622 -0.68385,-1.8692 0,-1.68684 0.68385,-5.24289 2.05156,-10.71372 1.96038,-6.975314 4.05753,-13.084412 6.33705,-18.372884 4.60462,0.911805 7.84153,1.367708 9.80191,1.367708 1.04858,0 1.91479,-0.09118 2.55305,-0.319132 0.5015,0 1.00299,-0.547083 1.55007,-1.68684 1.23094,-3.14573 1.82362,-5.288473 1.82362,-6.38264 -0.0456,-0.09118 -0.0912,-0.13677 -0.13678,-0.13677 -0.77503,0.501493 -1.91479,0.775034 -3.51045,0.775034 h -0.59267 c -1.59566,0 -4.33108,-0.273541 -8.16066,-0.820625 h -0.0456 c 0.77503,-1.595659 1.64125,-3.191319 2.59864,-4.786979 0,-0.455903 -1.50447,-0.729445 -4.55902,-0.820625 z"
         style="font-family:'Bring Heart';-inkscape-font-specification:'Bring Heart';fill:#e6e6e6;fill-opacity:1"
         id="path309" />
      <path
         d="m 157.39748,86.366532 c -1.4133,0 -2.8266,0.638264 -4.19431,1.869201 -0.0912,0.09118 -0.31913,0.638264 -0.68385,1.64125 -4.65021,13.266777 -6.97532,22.156877 -6.97532,26.579137 0,0.68385 0.0456,1.04857 0.0912,1.04857 0,0.59268 0.31913,1.36771 1.00299,2.23393 1.50448,1.45889 3.2825,2.18833 5.42524,2.18833 h 0.59268 c 0.68385,0 1.13975,-0.0912 1.4133,-0.22795 -0.41032,-1.4133 -0.59268,-2.96337 -0.59268,-4.65021 v -0.18236 c 0,-1.04858 0.0456,-1.82361 0.0912,-2.37069 0,-2.59865 2.09715,-9.07247 5.74438,-14.953617 2.50746,-3.783993 4.51344,-5.698785 5.92673,-5.698785 h 0.13677 c 0.86622,0 1.36771,0.775035 1.50448,2.279514 0,1.458889 -0.63826,3.510452 -1.91479,6.109098 0.0456,0 0.0456,0 0.0456,0.0456 5.42525,-1.59566 8.89011,-5.972327 8.89011,-10.121043 v -0.273541 c 0,-0.410313 -0.0912,-0.911806 -0.22795,-1.413299 -0.68386,-2.233924 -2.27952,-3.373681 -4.6958,-3.373681 -2.50747,0 -4.96934,1.094167 -7.43122,3.23691 -1.09417,1.048577 -2.09715,2.051563 -2.96337,3.100139 0.45591,-1.322118 1.18535,-3.2825 2.14275,-5.926736 v -0.04559 c -1.13976,-0.729444 -2.23393,-1.094166 -3.32809,-1.094166 z"
         style="font-family:'Bring Heart';-inkscape-font-specification:'Bring Heart';fill:#e6e6e6;fill-opacity:1"
         id="path311" />
      <path
         d="m 189.76657,85.545907 c -0.72945,0 -1.59566,0.182361 -2.59865,0.592673 -3.64722,1.048577 -5.97233,2.963369 -9.80191,7.020904 -1.8692,2.325104 -3.32809,4.513438 -4.42226,6.565 -2.73541,5.288476 -4.10312,9.801906 -4.10312,13.494726 v 0.63826 c 0,2.91778 0.9118,4.92375 2.73541,6.01792 3.60164,1.32212 6.1091,2.00597 7.61358,2.00597 1.8692,0 3.51045,-0.68385 4.92375,-2.00597 0.86622,-0.9574 1.68684,-2.00597 2.46188,-3.14573 h 0.0456 v 0.13677 c 0,0.77503 0.22795,1.55007 0.72944,2.27951 1.4133,1.77803 3.51045,2.68983 6.20028,2.68983 h 0.41031 c 2.14275,0 4.46785,-1.27653 7.02091,-3.78399 1.59566,-1.82361 2.87218,-3.51045 3.7384,-5.06052 2.18833,-4.05754 3.2825,-7.20327 3.2825,-9.34601 -0.0456,-0.77504 -0.18236,-1.13976 -0.50149,-1.13976 -0.0456,0 -0.22796,0.0912 -0.5015,0.22795 -0.22795,0.22795 -0.95739,1.23094 -2.27951,2.91778 -4.10313,5.1517 -6.92972,7.70476 -8.4342,7.70476 h -0.0456 c -0.13677,0 -0.22795,-0.0456 -0.36473,-0.13677 -0.41031,-0.22795 -0.63826,-0.82063 -0.63826,-1.77802 0,-1.13976 0.4559,-3.69282 1.4133,-7.61358 1.32212,-5.060522 2.68983,-9.482779 4.05753,-13.175592 0.77504,-2.097153 1.18535,-3.19132 1.18535,-3.2825 -1.18535,-0.683854 -2.3251,-1.048577 -3.46486,-1.048577 h -0.0456 c -0.68385,0 -1.4133,0.136771 -2.14274,0.455903 -1.59566,0.775035 -2.3707,1.413299 -2.3707,1.869202 h -0.0456 c -0.77503,-2.051563 -2.14274,-3.100139 -4.05753,-3.100139 z m -12.44615,28.858643 c 0,-2.41628 0.68385,-5.65319 2.09715,-9.61954 0.9574,-2.46188 2.14275,-4.6958 3.60164,-6.747366 0.82062,-1.094167 1.77802,-2.051563 2.82659,-2.872188 1.4133,-0.911806 2.59865,-1.367708 3.46486,-1.367708 l 0.31914,0.04559 c 0.77503,0.227951 1.13975,0.911806 1.13975,2.097153 0,1.185347 -0.36472,2.872188 -1.09416,5.060519 -1.04858,2.8266 -2.41629,5.69879 -4.14872,8.61657 -3.05455,4.87816 -5.37965,7.34003 -6.97531,7.34003 h -0.22795 c -0.68386,0 -1.00299,-0.77503 -1.00299,-2.27951 z"
         style="font-family:'Bring Heart';-inkscape-font-specification:'Bring Heart';fill:#e6e6e6;fill-opacity:1"
         id="path313" />
      <path
         d="m 219.30908,69.361357 c -1.4133,0 -2.32511,0.273541 -2.73542,0.866215 -1.09417,1.230938 -2.05156,2.598646 -2.8266,4.011945 h -1.59566 c -1.50448,0 -2.96337,0.136771 -4.33107,0.410312 -4.42226,1.002987 -6.65619,3.601633 -6.65619,7.795939 v 1.002986 c 0,0.136771 0,0.364722 0,0.638264 h 0.0912 c 0,0 0.0456,-0.136771 0.13677,-0.364723 1.09416,-1.869201 3.41927,-2.826597 6.92972,-2.826597 0.31913,0 1.00298,0.04559 2.14274,0.09118 -1.68684,4.194305 -3.32809,8.844514 -4.83257,13.950626 -2.68982,9.391595 -4.01194,16.093365 -4.01194,20.150905 v 0.68385 c 0,0.77504 0.0912,1.45889 0.27354,2.09716 1.23094,2.59864 3.23691,3.87517 6.06351,3.87517 3.96635,0 7.61357,-2.55306 10.85048,-7.61358 h 0.0456 v 0.0456 c -0.18236,0.9574 -0.36472,3.2825 0.41032,4.51344 1.3677,2.05156 3.55604,3.05455 6.565,3.05455 2.46187,0 4.96934,-1.36771 7.52239,-4.14872 3.23691,-3.60163 6.79296,-9.89309 6.79296,-14.08739 0,-0.59268 -0.13678,-0.9574 -0.45591,-1.09417 -0.41031,0 -0.9118,0.4559 -1.45889,1.36771 -4.87816,6.33705 -8.11507,9.48278 -9.75632,9.48278 -0.77503,0 -1.13975,-0.63827 -1.13975,-1.96038 0,-0.91181 0.36472,-3.10014 1.13975,-6.51941 1.64125,-6.428234 3.46486,-12.26379 5.51643,-17.461082 v -0.04559 c -1.09417,-0.683854 -2.18834,-1.048576 -3.32809,-1.048576 h -0.18236 c -1.45889,0 -2.91778,0.638264 -4.33108,1.914792 -1.04858,2.735417 -2.41629,6.884132 -4.19431,12.491737 -0.50149,1.96038 -0.86621,3.00896 -1.00298,3.23691 -4.83257,6.24587 -8.02389,9.34601 -9.61955,9.34601 h -0.18236 c -0.13677,0 -0.22796,-0.0456 -0.31914,-0.0912 -0.4559,-0.22795 -0.68385,-0.86622 -0.68385,-1.82361 0,-1.50448 0.59267,-4.83257 1.82361,-9.8931 2.05156,-7.431211 4.2399,-13.813851 6.565,-19.239094 5.60761,1.048576 9.71073,1.59566 12.35497,1.59566 h 0.41031 c 2.41629,0 3.55604,-0.364723 4.83257,-2.416285 1.09417,-2.142743 1.64125,-4.011945 1.64125,-5.607605 v -0.227951 c 0,-0.09118 -0.0456,-0.182361 -0.0912,-0.273542 h -0.0456 c -0.86622,0.501493 -2.41629,0.729445 -4.55903,0.729445 -2.41628,0 -6.15469,-0.319132 -11.30639,-0.957396 0.77504,-1.59566 1.68684,-3.19132 2.64424,-4.83257 -0.0456,-0.04559 -0.0456,-0.09118 -0.0456,-0.136771 -0.77504,-0.455903 -2.23393,-0.683854 -4.37667,-0.683854 z"
         style="font-family:'Bring Heart';-inkscape-font-specification:'Bring Heart';fill:#e6e6e6;fill-opacity:1"
         id="path315" />
      <path
         d="m 250.94873,85.773858 c -3.64723,0 -8.06948,3.008959 -11.7623,7.795938 -3.92076,5.607605 -5.88114,11.032844 -5.88114,16.184554 0,3.41927 1.18535,6.29145 3.55604,8.61656 2.73542,2.37069 5.88115,3.55604 9.3916,3.55604 5.88114,0 10.34899,-3.55604 13.31236,-10.66812 0.41031,0.0456 1.00299,0.0912 1.73243,0.13677 2.27952,0 4.33108,-0.82063 6.15469,-2.41629 1.82361,-1.96038 2.73542,-3.69281 2.73542,-5.19729 v -0.31913 c 0,-0.31913 -0.13677,-0.45591 -0.36473,-0.45591 h -0.0456 c -0.18236,0 -0.41031,0.18237 -0.72944,0.59268 -1.13976,1.50448 -2.78101,2.27951 -4.83257,2.27951 -0.82063,0 -1.68684,-0.13677 -2.59865,-0.36472 h -0.0456 c 0.91181,-3.19132 1.36771,-5.972327 1.36771,-8.297431 0,-2.416285 -0.4559,-4.376667 -1.32212,-5.926737 -0.31913,-0.501493 -0.68385,-0.957396 -1.00298,-1.367708 -3.19132,-2.781007 -6.20028,-4.148716 -9.07247,-4.148716 z m -8.66216,22.567192 c 0,-2.41629 0.63827,-5.1517 1.86921,-8.20625 1.27652,-3.054552 3.32809,-6.01792 5.83555,-7.795941 1.50448,-0.911806 2.87219,-1.367709 4.10313,-1.367709 0.68385,0 1.27652,0.227952 1.82361,0.683854 1.00298,0.957396 1.50448,2.461876 1.50448,4.513438 v 0.592674 c 0,1.458889 -0.27354,3.23691 -0.82063,5.334064 -0.36472,-0.41031 -0.68385,-0.91181 -0.9118,-1.4133 -0.13677,-0.59267 -0.36473,-0.911806 -0.72945,-0.911806 -0.77503,0 -1.64125,0.501496 -2.68982,1.550066 -0.9574,1.23094 -1.4133,2.50747 -1.4133,3.82959 v 0.18236 c 0,1.68684 0.82062,2.96337 2.50746,3.78399 v 0.0456 c -0.50149,0.82063 -1.13975,1.73243 -1.91479,2.68983 -1.96038,2.18833 -3.46486,3.2825 -4.51344,3.2825 h -0.22795 c -0.31913,0 -0.72944,-0.0912 -1.23094,-0.31913 -2.14274,-1.04858 -3.19132,-3.19132 -3.19132,-6.47382 z"
         style="font-family:'Bring Heart';-inkscape-font-specification:'Bring Heart';fill:#e6e6e6;fill-opacity:1"
         id="path317" />
      <path
         d="m 275.24834,86.366532 c -1.00298,0 -2.05156,0.319132 -3.14573,0.957396 -0.9118,0.638264 -1.3677,1.048576 -1.3677,1.185347 -4.92376,13.905035 -7.38563,23.205455 -7.38563,27.810075 0,1.32211 0.31913,2.3251 0.91181,3.00896 1.41329,1.73243 3.51045,2.59864 6.24586,2.59864 1.09417,-0.0456 1.68684,-0.13677 1.73243,-0.27354 -0.4559,-1.4133 -0.68385,-3.00896 -0.68385,-4.6958 v -1.09417 c 0,-2.23392 0.4559,-4.60461 1.36771,-7.11208 2.50746,-6.88413 7.24885,-14.908022 10.53135,-14.908022 0.13677,0 0.31914,0 0.5015,0.04559 0.59267,0.273542 0.86621,0.729445 0.86621,1.413299 v 0.04559 c 0,0.775035 -0.36472,2.416285 -1.09416,4.923753 -2.23393,7.75035 -3.37369,13.08441 -3.37369,16.04778 0,0.86621 0.0912,1.55007 0.31914,2.14274 1.27652,2.3251 3.60163,3.46486 6.92972,3.46486 2.41628,0 4.96934,-1.50448 7.75035,-4.46785 2.96337,-3.51045 6.42823,-9.75632 6.42823,-13.72267 0,-0.77504 -0.18236,-1.13976 -0.5015,-1.13976 -0.22795,0 -0.4559,0.13677 -0.77503,0.4559 -0.59267,0.82063 -1.4133,1.9148 -2.50747,3.28251 -4.14871,4.78697 -6.97531,7.20326 -8.47979,7.20326 -0.31913,0 -0.59267,-0.18236 -0.82062,-0.50149 0,-0.68386 0.27354,-1.96039 0.82062,-3.82959 1.96038,-5.97232 2.91778,-10.759304 2.91778,-14.406526 0,-3.23691 -0.68386,-5.516424 -2.05156,-6.838542 -1.23094,-0.866216 -2.50747,-1.276528 -3.82959,-1.276528 h -0.27354 c -2.96337,0 -6.20028,2.233923 -9.66514,6.701771 h -0.0456 v -0.04559 c 0.59267,-1.778021 1.32212,-3.738403 2.14274,-5.881147 -1.13975,-0.729444 -2.3251,-1.094166 -3.46486,-1.094166 z"
         style="font-family:'Bring Heart';-inkscape-font-specification:'Bring Heart';fill:#e6e6e6;fill-opacity:1"
         id="path319" />
      <path
         d="m 316.09726,85.591497 c -3.32809,0 -7.0665,2.005972 -11.21521,6.063507 -1.82361,1.914792 -3.23691,3.556042 -4.2399,4.969341 -3.78399,5.653195 -5.69878,10.622535 -5.69878,14.862435 v 0.27354 c 0,2.8266 1.00298,5.19729 3.05454,7.11208 2.3707,1.96038 5.06053,2.96337 8.06948,2.96337 h 0.41032 c 1.50448,0 3.14573,-0.27354 4.83257,-0.86621 4.42225,-1.50448 8.25184,-4.42226 11.39757,-8.70775 1.13975,-1.68684 2.09715,-3.32809 2.781,-4.92375 0.91181,-2.50746 1.36771,-4.05753 1.36771,-4.65021 -0.0456,-0.41031 -0.18236,-0.63826 -0.41031,-0.63826 -0.27354,0 -0.59267,0.18236 -1.00299,0.59267 -0.59267,0.91181 -1.96038,2.46188 -4.10312,4.6958 -5.37966,5.1517 -9.66514,7.75035 -12.85646,7.75035 h -0.18236 c -0.5015,0 -1.00299,-0.0912 -1.55007,-0.31913 -1.73243,-0.72945 -2.59865,-2.3707 -2.59865,-4.87816 0,-1.09417 0.18236,-2.3707 0.54709,-3.87518 h 0.27354 c 3.2825,0 6.92972,-0.95739 10.98725,-2.87218 5.10612,-2.8266 7.65917,-6.245873 7.65917,-10.212228 0,-4.741389 -3.51045,-7.340035 -7.52239,-7.340035 z m -8.84452,14.406529 c 0.86622,-1.59566 2.18833,-3.419271 4.01195,-5.470834 2.59864,-2.507465 4.96934,-3.783993 7.15767,-3.783993 h 0.0456 l 0.4559,0.04559 c 0.45591,0.136771 0.68386,0.410313 0.68386,0.729445 v 0.182361 c 0,0.364722 -0.18236,0.866215 -0.54709,1.458889 -3.19132,4.695799 -6.97531,7.020906 -11.39757,7.020906 h -0.41031 l -0.0912,-0.0456 z"
         style="font-family:'Bring Heart';-inkscape-font-specification:'Bring Heart';fill:#e6e6e6;fill-opacity:1"
         id="path321" />
      <path
         d="m 333.05681,86.366532 c -1.00298,0 -2.05156,0.319132 -3.14572,0.957396 -0.91181,0.638264 -1.36771,1.048576 -1.36771,1.185347 -4.92375,13.905035 -7.38563,23.205455 -7.38563,27.810075 0,1.32211 0.31913,2.3251 0.91181,3.00896 1.4133,1.73243 3.51045,2.59864 6.24587,2.59864 1.09416,-0.0456 1.68684,-0.13677 1.73243,-0.27354 -0.45591,-1.4133 -0.68386,-3.00896 -0.68386,-4.6958 v -1.09417 c 0,-2.23392 0.4559,-4.60461 1.36771,-7.11208 2.50747,-6.88413 7.24885,-14.908022 10.53136,-14.908022 0.13677,0 0.31913,0 0.50149,0.04559 0.59267,0.273542 0.86621,0.729445 0.86621,1.413299 v 0.04559 c 0,0.775035 -0.36472,2.416285 -1.09416,4.923753 -2.23393,7.75035 -3.37368,13.08441 -3.37368,16.04778 0,0.86621 0.0912,1.55007 0.31913,2.14274 1.27653,2.3251 3.60163,3.46486 6.92972,3.46486 2.41629,0 4.96934,-1.50448 7.75035,-4.46785 2.96337,-3.51045 6.42823,-9.75632 6.42823,-13.72267 0,-0.77504 -0.18236,-1.13976 -0.50149,-1.13976 -0.22796,0 -0.45591,0.13677 -0.77504,0.4559 -0.59267,0.82063 -1.4133,1.9148 -2.50746,3.28251 -4.14872,4.78697 -6.97532,7.20326 -8.4798,7.20326 -0.31913,0 -0.59267,-0.18236 -0.82062,-0.50149 0,-0.68386 0.27354,-1.96039 0.82062,-3.82959 1.96038,-5.97232 2.91778,-10.759304 2.91778,-14.406526 0,-3.23691 -0.68385,-5.516424 -2.05156,-6.838542 -1.23094,-0.866216 -2.50747,-1.276528 -3.82959,-1.276528 h -0.27354 c -2.96337,0 -6.20028,2.233923 -9.66514,6.701771 h -0.0456 v -0.04559 c 0.59268,-1.778021 1.32212,-3.738403 2.14275,-5.881147 -1.13976,-0.729444 -2.32511,-1.094166 -3.46487,-1.094166 z"
         style="font-family:'Bring Heart';-inkscape-font-specification:'Bring Heart';fill:#e6e6e6;fill-opacity:1"
         id="path323" />
    </g>
    <g
       aria-label="Sascha Nabrotzky"
       transform="rotate(-10.708035)"
       id="text275"
       style="font-size:40px;line-height:1.25;fill:#e6e6e6;fill-opacity:1">
      <path
         d="m 129.44118,125.60974 c -1.85546,0 -3.78906,0.3125 -5.83984,0.95703 -1.875,0.60547 -3.49609,1.40625 -4.86328,2.38281 -0.48828,0.3125 -1.05469,0.82032 -1.73828,1.52344 -1.15235,1.3086 -1.73828,2.63672 -1.73828,4.00391 v 0.13672 c 0,1.66015 0.9375,3.41797 2.8125,5.23437 0.8789,0.80078 1.79687,1.54297 2.73437,2.22656 3.37891,2.36329 5.0586,4.49219 5.0586,6.36719 v 0.0586 c 0,0.80078 -0.35157,1.5039 -1.07422,2.1289 -0.9961,0.74219 -2.16797,1.11328 -3.53516,1.11328 -1.09375,0 -2.16797,-0.2539 -3.20312,-0.78125 -0.76172,-0.50781 -1.15235,-1.03515 -1.15235,-1.60156 v -0.15625 c 0,-0.3125 0.15625,-0.64453 0.44922,-1.01562 0.83984,-0.87891 2.07031,-1.21094 3.80859,-1.42579 0.56641,-0.0195 0.85938,-0.0391 0.85938,-0.0586 -0.0977,-0.15625 -0.15625,-0.23437 -0.17578,-0.25391 -0.0977,-0.21484 -0.44922,-0.625 -1.09375,-1.23046 -1.05469,-0.85938 -2.05078,-1.28907 -2.96875,-1.28907 h -0.25391 c -0.54687,0 -1.15234,0.17578 -1.8164,0.52735 -0.39063,0.17578 -0.89844,0.58593 -1.50391,1.23047 -0.76172,0.95703 -1.15234,1.875 -1.15234,2.7539 v 0.29297 c 0,0.76172 0.29296,1.58203 0.85937,2.44141 0.13672,0.2539 0.52734,0.68359 1.17188,1.28906 1.8164,1.46484 3.98437,2.20703 6.48437,2.20703 h 0.0781 c 2.22656,0 4.23828,-0.58594 6.03515,-1.75781 1.81641,-1.28906 2.73438,-2.79297 2.73438,-4.53125 0,-0.60547 -0.11719,-1.23047 -0.3711,-1.875 -0.29297,-0.91797 -0.8789,-1.85547 -1.71875,-2.83203 -1.48437,-1.48438 -2.55859,-2.2461 -4.90234,-3.57422 -2.87109,-1.50391 -4.31641,-3.08594 -4.31641,-4.72656 0,-0.23438 0.0391,-0.50782 0.11719,-0.82032 0.37109,-1.07422 1.09375,-2.03125 2.20703,-2.87109 0.66406,-0.46875 1.40625,-0.87891 2.22656,-1.23047 2.46094,-0.95703 4.94141,-1.42578 7.46094,-1.42578 h 0.0977 c 0.29297,0 0.48828,0 0.5664,0.0195 1.07422,0.0586 1.6211,0.27344 1.6211,0.625 v 0.0781 c 0,0.17578 -0.19531,0.44921 -0.58594,0.80078 -0.82031,0.5664 -1.69922,1.05468 -2.65625,1.44531 -2.92969,1.19141 -5.33203,1.79687 -7.20703,1.79687 h -0.13672 c -0.0977,0 -0.23437,0 -0.41016,-0.0195 0,0.0195 0,0.0195 -0.0195,0.0195 0.78125,2.03125 2.14844,3.04688 4.08203,3.04688 h 0.13672 c 1.15235,0 2.48047,-0.39063 3.94532,-1.15234 0.60546,-0.29297 1.32812,-0.76172 2.16796,-1.42579 0.41016,-0.29296 0.95704,-0.82031 1.64063,-1.58203 0.85937,-1.09375 1.28906,-2.1875 1.28906,-3.26172 0,-1.17187 -0.50781,-2.10937 -1.52344,-2.79296 -1.25,-0.6836 -2.8125,-1.01563 -4.6875,-1.01563 z"
         style="font-family:'Bring Heart';-inkscape-font-specification:'Bring Heart';fill:#e6e6e6;fill-opacity:1"
         id="path326" />
      <path
         d="m 140.5154,135.98083 c -0.3125,0 -0.68359,0.0781 -1.11328,0.25391 -1.5625,0.44922 -2.55859,1.26953 -4.19922,3.00781 -0.80078,0.9961 -1.42578,1.9336 -1.89453,2.8125 -1.17187,2.26563 -1.75781,4.19922 -1.75781,5.78125 v 0.27344 c 0,1.25 0.39062,2.10938 1.17187,2.57813 1.54297,0.5664 2.61719,0.85937 3.26172,0.85937 0.80078,0 1.50391,-0.29297 2.10938,-0.85937 0.37109,-0.41016 0.72265,-0.85938 1.05469,-1.34766 h 0.0195 v 0.0586 c 0,0.33203 0.0976,0.66407 0.3125,0.97657 0.60547,0.76171 1.5039,1.15234 2.65625,1.15234 h 0.17578 c 0.91797,0 1.91406,-0.54688 3.00781,-1.62109 0.68359,-0.78125 1.23047,-1.50391 1.60156,-2.16797 0.9375,-1.73828 1.40625,-3.08594 1.40625,-4.00391 -0.0195,-0.33203 -0.0781,-0.48828 -0.21484,-0.48828 -0.0195,0 -0.0977,0.0391 -0.21484,0.0977 -0.0977,0.0976 -0.41016,0.52734 -0.97657,1.25 -1.75781,2.20703 -2.96875,3.30078 -3.61328,3.30078 h -0.0195 c -0.0586,0 -0.0977,-0.0195 -0.15625,-0.0586 -0.17578,-0.0976 -0.27344,-0.35156 -0.27344,-0.76172 0,-0.48828 0.19532,-1.58203 0.60547,-3.26171 0.56641,-2.16797 1.15235,-4.0625 1.73828,-5.64454 0.33203,-0.89843 0.50782,-1.36718 0.50782,-1.40625 -0.50782,-0.29296 -0.9961,-0.44921 -1.48438,-0.44921 h -0.0195 c -0.29297,0 -0.60547,0.0586 -0.91797,0.19531 -0.68359,0.33203 -1.01562,0.60547 -1.01562,0.80078 h -0.0195 c -0.33203,-0.87891 -0.91796,-1.32813 -1.73828,-1.32813 z m -5.33203,12.36329 c 0,-1.03516 0.29297,-2.42188 0.89844,-4.1211 0.41016,-1.05469 0.91797,-2.01172 1.54297,-2.89062 0.35156,-0.46875 0.76172,-0.87891 1.21094,-1.23047 0.60546,-0.39063 1.11328,-0.58594 1.48437,-0.58594 l 0.13672,0.0195 c 0.33203,0.0977 0.48828,0.39063 0.48828,0.89844 0,0.50781 -0.15625,1.23047 -0.46875,2.16797 -0.44922,1.21094 -1.03516,2.4414 -1.77734,3.6914 -1.3086,2.08985 -2.30469,3.14454 -2.98828,3.14454 h -0.0977 c -0.29297,0 -0.42969,-0.33204 -0.42969,-0.97657 z"
         style="font-family:'Bring Heart';-inkscape-font-specification:'Bring Heart';fill:#e6e6e6;fill-opacity:1"
         id="path328" />
      <path
         d="m 153.83572,135.59021 c -2.05079,0 -3.86719,0.74219 -5.42969,2.20703 -1.15235,1.23047 -1.73828,2.55859 -1.73828,3.98438 0,1.95312 1.09375,3.41796 3.26172,4.41406 2.32421,0.91797 3.47656,1.73828 3.47656,2.4414 0,0.21485 -0.0977,0.41016 -0.27344,0.58594 -0.48828,0.39063 -1.11328,0.58594 -1.875,0.58594 h -0.17578 c -0.82031,-0.0781 -1.23047,-0.33203 -1.23047,-0.76172 0,-0.29297 0.19531,-0.64453 0.58594,-1.05469 -0.56641,-0.60547 -1.11328,-0.89843 -1.64063,-0.89843 -0.44922,0 -0.83984,0.15625 -1.21093,0.48828 -0.58594,0.625 -0.87891,1.30859 -0.87891,2.05078 0,0.39062 0.11719,0.76172 0.33203,1.11328 0.72266,1.05469 1.89453,1.58203 3.51563,1.58203 1.17187,0 2.1875,-0.23437 3.04687,-0.72266 1.26953,-0.83984 1.89453,-1.91406 1.89453,-3.26171 0,-1.26954 -0.625,-2.40235 -1.85547,-3.4375 -0.68359,-0.50782 -1.34765,-0.89844 -1.95312,-1.17188 -1.15235,-0.41016 -1.73828,-0.97656 -1.73828,-1.67969 0,-0.68359 0.46875,-1.38672 1.42578,-2.1289 1.25,-0.87891 2.34375,-1.3086 3.30078,-1.3086 h 0.27344 c 0.91797,0.11719 1.38672,0.3125 1.38672,0.60547 0,0.46875 -0.9961,1.11328 -2.98829,1.95313 0,0.0195 0.0195,0.0976 0.0781,0.21484 0.48828,0.99609 1.13281,1.48438 1.89453,1.48438 h 0.13672 c 0.74219,0 1.44531,-0.42969 2.12891,-1.3086 0.5664,-0.8789 0.83984,-1.73828 0.83984,-2.55859 0,-0.44922 -0.0781,-0.87891 -0.25391,-1.28906 -0.625,-1.42579 -2.01172,-2.12891 -4.16015,-2.12891 z"
         style="font-family:'Bring Heart';-inkscape-font-specification:'Bring Heart';fill:#e6e6e6;fill-opacity:1"
         id="path330" />
      <path
         d="m 165.96462,136.00037 c -1.34765,0 -2.91015,0.82031 -4.66797,2.48046 -0.95703,0.9961 -1.62109,1.77735 -1.95312,2.30469 -1.6211,2.38281 -2.42188,4.49219 -2.42188,6.32813 0,1.32812 0.46875,2.40234 1.40625,3.22265 1.01563,0.80078 2.12891,1.19141 3.32032,1.19141 h 0.29296 c 0.3125,0 0.625,-0.0391 0.9375,-0.11719 1.23047,-0.17578 2.46094,-0.74219 3.71094,-1.67969 0.44922,-0.29296 1.07422,-0.89843 1.875,-1.8164 0.52735,-0.72266 0.95703,-1.38672 1.28906,-2.03125 0.52735,-1.23047 0.82032,-2.08985 0.83985,-2.57813 -0.0195,-0.17578 -0.0781,-0.2539 -0.17578,-0.2539 -0.11719,0 -0.25391,0.0781 -0.42969,0.2539 -0.29297,0.42969 -0.87891,1.09375 -1.75781,2.01172 -2.30469,2.20703 -4.14063,3.32031 -5.50782,3.32031 h -0.0977 c -0.13672,0 -0.33203,-0.0391 -0.58594,-0.0976 -0.78125,-0.33203 -1.17187,-1.01563 -1.17187,-2.05078 0,-0.58594 0.11718,-1.26953 0.33203,-2.03125 0.48828,-1.58203 1.34765,-3.06641 2.55859,-4.45313 1.17188,-1.17187 2.08984,-1.69922 3.00781,-1.77734 0.21485,0.0391 0.33203,0.13672 0.33203,0.3125 0,0.29297 -0.21484,0.76172 -0.66406,1.40625 -0.41015,0.5664 -1.07422,1.26953 -2.03125,2.07031 0,0.0391 0.0195,0.0977 0.0781,0.17578 0.41015,0.44922 0.99609,0.66406 1.77734,0.66406 0.46875,0 0.89844,-0.0781 1.28906,-0.2539 1.11328,-0.52735 1.66016,-1.58203 1.66016,-3.1836 v -0.21484 c 0,-0.72266 -0.15625,-1.34766 -0.44922,-1.83594 -0.72266,-0.91797 -1.64062,-1.36718 -2.79297,-1.36718 z"
         style="font-family:'Bring Heart';-inkscape-font-specification:'Bring Heart';fill:#e6e6e6;fill-opacity:1"
         id="path332" />
      <path
         d="m 175.74978,129.10583 c -0.23438,0 -0.42969,0.0195 -0.60547,0.0586 -0.25391,0 -0.58594,0.2539 -0.95703,0.74219 -1.26953,1.71875 -2.61719,4.74609 -4.00391,9.10156 -1.34765,4.55078 -2.03125,7.83203 -2.03125,9.82422 v 0.0195 c 0,0.68359 0.13672,1.1914 0.39063,1.54297 0.64453,0.76172 1.52343,1.13281 2.65625,1.13281 h 0.19531 c 0.29297,0 0.50781,-0.0391 0.64453,-0.0977 -0.25391,-0.68359 -0.37109,-1.52343 -0.37109,-2.51953 v -0.29297 c 0,-0.83984 0.27343,-2.10937 0.80078,-3.76953 1.17187,-3.33984 2.91015,-6.40625 4.29687,-6.40625 h 0.0195 c 0.3711,0 0.56641,0.33203 0.56641,0.97656 0,0.56641 -0.17578,1.54297 -0.50781,2.89063 -0.95703,3.26172 -1.44531,5.54687 -1.44531,6.85547 0,1.25 1.05468,2.36328 2.94921,2.36328 h 0.17579 c 1.05468,0 2.16796,-0.64453 3.32031,-1.93359 0.58594,-0.6836 1.05469,-1.34766 1.40625,-1.97266 0.8789,-1.69922 1.32812,-3.00781 1.32812,-3.88672 -0.0195,-0.33203 -0.0781,-0.48828 -0.19531,-0.48828 -0.0586,0 -0.15625,0.0391 -0.25391,0.11719 l -1.13281,1.42578 c -1.77734,2.08984 -2.98828,3.14453 -3.63281,3.14453 h -0.0586 c -0.13672,0 -0.23438,-0.0781 -0.3125,-0.21484 0,-0.27344 0.0976,-0.78125 0.29296,-1.50391 0.85938,-2.59766 1.28907,-4.64844 1.28907,-6.15234 v -0.39063 c 0,-1.36719 -0.3711,-2.30469 -1.09375,-2.83203 -0.76172,-0.41016 -1.44532,-0.60547 -2.03125,-0.60547 h -0.23438 c -1.07422,0 -2.16797,0.74219 -3.28125,2.24609 h -0.0195 v -0.0195 c 1.36719,-3.84765 2.69531,-6.85547 4.00391,-9.0039 0,-0.19532 -0.60547,-0.3125 -1.83594,-0.35157 z"
         style="font-family:'Bring Heart';-inkscape-font-specification:'Bring Heart';fill:#e6e6e6;fill-opacity:1"
         id="path334" />
      <path
         d="m 190.61306,135.98083 c -0.3125,0 -0.68359,0.0781 -1.11328,0.25391 -1.5625,0.44922 -2.5586,1.26953 -4.19922,3.00781 -0.80078,0.9961 -1.42578,1.9336 -1.89453,2.8125 -1.17188,2.26563 -1.75781,4.19922 -1.75781,5.78125 v 0.27344 c 0,1.25 0.39062,2.10938 1.17187,2.57813 1.54297,0.5664 2.61719,0.85937 3.26172,0.85937 0.80078,0 1.50391,-0.29297 2.10937,-0.85937 0.3711,-0.41016 0.72266,-0.85938 1.05469,-1.34766 h 0.0195 v 0.0586 c 0,0.33203 0.0977,0.66407 0.3125,0.97657 0.60547,0.76171 1.50391,1.15234 2.65625,1.15234 h 0.17578 c 0.91797,0 1.91407,-0.54688 3.00782,-1.62109 0.68359,-0.78125 1.23047,-1.50391 1.60156,-2.16797 0.9375,-1.73828 1.40625,-3.08594 1.40625,-4.00391 -0.0195,-0.33203 -0.0781,-0.48828 -0.21484,-0.48828 -0.0195,0 -0.0977,0.0391 -0.21485,0.0977 -0.0976,0.0976 -0.41015,0.52734 -0.97656,1.25 -1.75781,2.20703 -2.96875,3.30078 -3.61328,3.30078 h -0.0195 c -0.0586,0 -0.0977,-0.0195 -0.15625,-0.0586 -0.17578,-0.0976 -0.27344,-0.35156 -0.27344,-0.76172 0,-0.48828 0.19531,-1.58203 0.60547,-3.26171 0.5664,-2.16797 1.15234,-4.0625 1.73828,-5.64454 0.33203,-0.89843 0.50781,-1.36718 0.50781,-1.40625 -0.50781,-0.29296 -0.99609,-0.44921 -1.48437,-0.44921 h -0.0195 c -0.29297,0 -0.60547,0.0586 -0.91797,0.19531 -0.6836,0.33203 -1.01563,0.60547 -1.01563,0.80078 h -0.0195 c -0.33203,-0.87891 -0.91797,-1.32813 -1.73828,-1.32813 z m -5.33203,12.36329 c 0,-1.03516 0.29297,-2.42188 0.89844,-4.1211 0.41015,-1.05469 0.91796,-2.01172 1.54296,-2.89062 0.35157,-0.46875 0.76172,-0.87891 1.21094,-1.23047 0.60547,-0.39063 1.11328,-0.58594 1.48438,-0.58594 l 0.13672,0.0195 c 0.33203,0.0977 0.48828,0.39063 0.48828,0.89844 0,0.50781 -0.15625,1.23047 -0.46875,2.16797 -0.44922,1.21094 -1.03516,2.4414 -1.77735,3.6914 -1.30859,2.08985 -2.30468,3.14454 -2.98828,3.14454 h -0.0976 c -0.29297,0 -0.42969,-0.33204 -0.42969,-0.97657 z"
         style="font-family:'Bring Heart';-inkscape-font-specification:'Bring Heart';fill:#e6e6e6;fill-opacity:1"
         id="path336" />
      <path
         d="m 233.36697,127.13318 c -1.28907,0 -2.51954,0.19531 -3.69141,0.58594 -0.72266,0.29296 -1.15234,0.60546 -1.69922,1.62109 -1.34766,2.57812 -2.71484,6.42578 -4.08203,11.5625 -0.41016,1.54297 -0.74219,3.18359 -0.99609,4.92187 h -0.0195 c -0.29296,-0.70312 -0.60546,-1.83593 -0.91796,-3.41796 -0.80079,-4.4336 -1.19141,-7.75391 -1.19141,-9.96094 0,-0.27344 0.0195,-0.58594 0.0586,-0.95703 0,-0.0391 -0.0195,-0.11719 -0.0586,-0.25391 -0.37109,-0.91797 -0.58594,-1.38672 -0.64453,-1.38672 0,-0.11719 -0.66406,-0.19531 -1.97266,-0.23437 h -0.50781 c -2.94922,0 -5.99609,0.91797 -7.24609,1.5625 -2.2461,1.11328 -3.73047,2.71484 -4.49219,4.80468 -0.33203,1.05469 -0.48828,1.89454 -0.48828,2.53907 0,0.76172 0.42968,2.1875 1.52343,2.67578 l 0.0391,-0.0195 c 0.0976,-0.46875 0.17578,-0.82032 0.2539,-1.03516 0.44922,-1.34766 1.09375,-2.55859 2.48047,-4.0625 0.48828,-0.48828 0.91797,-0.87891 1.28906,-1.17187 1.42579,-1.03516 2.91016,-1.9336 5.46875,-2.38282 -0.72265,1.03516 -1.44531,2.20703 -2.14843,3.51563 -1.89453,3.73047 -2.83203,6.91406 -2.83203,9.55078 v 0.23437 c 0,0.33204 0.0195,0.70313 0.0586,1.13282 0.0586,0.58593 0.33203,1.28906 0.78125,2.10937 0.46875,0.80078 1.83594,2.34375 2.14844,2.34375 l 0.0195,-0.0195 c 0.0195,-0.25391 0.0195,-0.44922 0.0195,-0.56641 v -2.4414 c 0,-1.01563 0.29297,-2.8125 0.89844,-5.39063 0.5664,-2.16797 1.13281,-3.84765 1.73828,-5.03906 0.33203,-0.74219 0.80078,-1.67969 1.44531,-2.79297 h 0.0195 c 0.0195,0.42969 0.0586,0.85938 0.0781,1.3086 0.52734,5.8789 1.5039,11.60156 2.85156,14.98046 0.3125,0.91797 0.72266,1.73829 1.23047,2.5 0.21484,0.27344 0.50781,0.58594 0.89844,0.9375 0.91796,0.76172 1.69921,1.21094 2.34375,1.34766 0.0195,0 0.0391,0 0.0586,-0.0195 -0.27344,-1.17188 -0.41016,-2.42188 -0.41016,-3.73047 v -0.41016 c 0,-3.4375 0.83985,-7.63671 2.5,-12.59765 1.58203,-4.4336 3.16407,-7.91016 4.7461,-10.41016 0.29297,-0.54687 0.74218,-1.15234 1.30859,-1.79687 v -0.0195 c 0,-0.0586 -0.23437,-0.0977 -0.70312,-0.11719 z"
         style="font-family:'Bring Heart';-inkscape-font-specification:'Bring Heart';fill:#e6e6e6;fill-opacity:1"
         id="path338" />
      <path
         d="m 236.824,135.98083 c -0.3125,0 -0.6836,0.0781 -1.11328,0.25391 -1.5625,0.44922 -2.5586,1.26953 -4.19922,3.00781 -0.80078,0.9961 -1.42578,1.9336 -1.89453,2.8125 -1.17188,2.26563 -1.75782,4.19922 -1.75782,5.78125 v 0.27344 c 0,1.25 0.39063,2.10938 1.17188,2.57813 1.54297,0.5664 2.61719,0.85937 3.26172,0.85937 0.80078,0 1.5039,-0.29297 2.10937,-0.85937 0.3711,-0.41016 0.72266,-0.85938 1.05469,-1.34766 h 0.0195 v 0.0586 c 0,0.33203 0.0977,0.66407 0.3125,0.97657 0.60547,0.76171 1.50391,1.15234 2.65625,1.15234 h 0.17578 c 0.91797,0 1.91406,-0.54688 3.00781,-1.62109 0.6836,-0.78125 1.23047,-1.50391 1.60157,-2.16797 0.9375,-1.73828 1.40625,-3.08594 1.40625,-4.00391 -0.0195,-0.33203 -0.0781,-0.48828 -0.21485,-0.48828 -0.0195,0 -0.0976,0.0391 -0.21484,0.0977 -0.0977,0.0976 -0.41016,0.52734 -0.97656,1.25 -1.75782,2.20703 -2.96875,3.30078 -3.61328,3.30078 h -0.0195 c -0.0586,0 -0.0977,-0.0195 -0.15625,-0.0586 -0.17578,-0.0976 -0.27343,-0.35156 -0.27343,-0.76172 0,-0.48828 0.19531,-1.58203 0.60547,-3.26171 0.5664,-2.16797 1.15234,-4.0625 1.73828,-5.64454 0.33203,-0.89843 0.50781,-1.36718 0.50781,-1.40625 -0.50781,-0.29296 -0.99609,-0.44921 -1.48438,-0.44921 h -0.0195 c -0.29297,0 -0.60547,0.0586 -0.91797,0.19531 -0.68359,0.33203 -1.01562,0.60547 -1.01562,0.80078 h -0.0195 c -0.33203,-0.87891 -0.91797,-1.32813 -1.73828,-1.32813 z m -5.33203,12.36329 c 0,-1.03516 0.29296,-2.42188 0.89843,-4.1211 0.41016,-1.05469 0.91797,-2.01172 1.54297,-2.89062 0.35156,-0.46875 0.76172,-0.87891 1.21094,-1.23047 0.60547,-0.39063 1.11328,-0.58594 1.48437,-0.58594 l 0.13672,0.0195 c 0.33203,0.0977 0.48828,0.39063 0.48828,0.89844 0,0.50781 -0.15625,1.23047 -0.46875,2.16797 -0.44921,1.21094 -1.03515,2.4414 -1.77734,3.6914 -1.30859,2.08985 -2.30469,3.14454 -2.98828,3.14454 h -0.0977 c -0.29297,0 -0.42968,-0.33204 -0.42968,-0.97657 z"
         style="font-family:'Bring Heart';-inkscape-font-specification:'Bring Heart';fill:#e6e6e6;fill-opacity:1"
         id="path340" />
      <path
         d="m 249.28493,129.10583 c -0.39062,0 -0.68359,0.0391 -0.8789,0.13672 -0.35156,0.29297 -0.60547,0.54688 -0.74219,0.78125 -0.66406,0.95703 -1.28906,2.07032 -1.85547,3.35938 -1.1914,2.7539 -2.30469,6.13281 -3.30078,10.13672 -0.52734,2.4414 -0.80078,4.14062 -0.80078,5.09765 0.0195,0 0.0195,0 0.0195,0.0195 h -0.0195 c 0,0.19532 0,0.39063 0.0195,0.60547 0,0.3711 0.11719,0.76172 0.37109,1.13282 0.64454,0.76171 1.52344,1.15234 2.67579,1.15234 h 0.13671 c 0.33204,0 0.54688,-0.0391 0.6836,-0.0977 -0.11719,-0.35156 -0.21485,-0.72265 -0.27344,-1.09375 v -0.0195 c 0.87891,0.64453 1.64063,0.97656 2.30469,0.97656 h 0.11719 c 0.42968,0 1.01562,-0.2539 1.77734,-0.74218 0.23437,-0.11719 0.64453,-0.46875 1.25,-1.07422 0.625,-0.74219 1.11328,-1.44531 1.48437,-2.12891 1.15235,-2.32422 1.71875,-4.55078 1.71875,-6.69922 0,-1.97265 -0.48828,-3.24218 -1.46484,-3.82812 -1.34766,-0.56641 -2.26562,-0.83985 -2.75391,-0.83985 -0.48828,0 -0.97656,0.0977 -1.46484,0.3125 0.89844,-2.32421 1.75781,-4.25781 2.59766,-5.80078 0.39062,-0.66406 0.58593,-1.01562 0.58593,-1.03515 v -0.0391 c -0.0391,-0.15625 -0.625,-0.2539 -1.73828,-0.3125 z m -3.90625,17.96875 c 0.0781,-1.42578 0.72266,-3.32031 1.91407,-5.72265 1.15234,-2.16797 2.05078,-3.26172 2.69531,-3.26172 0.0391,0 0.0781,0 0.13672,0.0195 0.29297,0.17578 0.42969,0.625 0.42969,1.30859 v 0.3125 c 0,1.11329 -0.27344,2.48047 -0.82032,4.10157 -0.76172,2.07031 -1.71875,3.3789 -2.85156,3.92578 -0.19531,0.0976 -0.50781,0.17578 -0.9375,0.2539 -0.37109,0 -0.56641,-0.3125 -0.56641,-0.9375 z"
         style="font-family:'Bring Heart';-inkscape-font-specification:'Bring Heart';fill:#e6e6e6;fill-opacity:1"
         id="path342" />
      <path
         d="m 258.85525,136.3324 c -0.60547,0 -1.21094,0.27343 -1.79688,0.80078 -0.0391,0.0391 -0.13672,0.27344 -0.29297,0.70312 -1.99218,5.6836 -2.98828,9.49219 -2.98828,11.38672 0,0.29297 0.0195,0.44922 0.0391,0.44922 0,0.25391 0.13672,0.58594 0.42969,0.95703 0.64453,0.625 1.40625,0.9375 2.32422,0.9375 h 0.25391 c 0.29297,0 0.48828,-0.0391 0.60547,-0.0976 -0.17579,-0.60547 -0.25391,-1.26954 -0.25391,-1.99219 v -0.0781 c 0,-0.44922 0.0195,-0.78125 0.0391,-1.01562 0,-1.11328 0.89844,-3.88672 2.46094,-6.40625 1.07422,-1.6211 1.93359,-2.44141 2.53906,-2.44141 h 0.0586 c 0.37109,0 0.58593,0.33203 0.64453,0.97656 0,0.625 -0.27344,1.50391 -0.82032,2.61719 0.0195,0 0.0195,0 0.0195,0.0195 2.32421,-0.68359 3.80859,-2.55859 3.80859,-4.33593 v -0.11719 c 0,-0.17578 -0.0391,-0.39063 -0.0977,-0.60547 -0.29297,-0.95703 -0.97656,-1.44531 -2.01172,-1.44531 -1.07421,0 -2.1289,0.46875 -3.18359,1.38672 -0.46875,0.44921 -0.89844,0.8789 -1.26953,1.32812 0.19531,-0.56641 0.50781,-1.40625 0.91797,-2.53906 v -0.0195 c -0.48828,-0.3125 -0.95703,-0.46875 -1.42578,-0.46875 z"
         style="font-family:'Bring Heart';-inkscape-font-specification:'Bring Heart';fill:#e6e6e6;fill-opacity:1"
         id="path344" />
      <path
         d="m 272.09743,136.07849 c -1.5625,0 -3.45703,1.28906 -5.03906,3.33984 -1.67969,2.40235 -2.51953,4.72657 -2.51953,6.9336 0,1.46484 0.50781,2.69531 1.52344,3.6914 1.17187,1.01563 2.51953,1.52344 4.02344,1.52344 2.51953,0 4.43359,-1.52344 5.70312,-4.57031 0.17578,0.0195 0.42969,0.0391 0.74219,0.0586 0.97656,0 1.85547,-0.35156 2.63672,-1.03515 0.78125,-0.83985 1.17187,-1.58203 1.17187,-2.22657 v -0.13671 c 0,-0.13672 -0.0586,-0.19532 -0.15625,-0.19532 h -0.0195 c -0.0781,0 -0.17578,0.0781 -0.3125,0.25391 -0.48828,0.64453 -1.19141,0.97656 -2.07031,0.97656 -0.35156,0 -0.72266,-0.0586 -1.11328,-0.15625 h -0.0195 c 0.39062,-1.36719 0.58593,-2.55859 0.58593,-3.55469 0,-1.03515 -0.19531,-1.875 -0.5664,-2.53906 -0.13672,-0.21484 -0.29297,-0.41015 -0.42969,-0.58594 -1.36719,-1.1914 -2.65625,-1.77734 -3.88672,-1.77734 z m -3.71093,9.66797 c 0,-1.03516 0.27343,-2.20703 0.80078,-3.51563 0.54687,-1.30859 1.42578,-2.57812 2.5,-3.33984 0.64453,-0.39062 1.23047,-0.58594 1.75781,-0.58594 0.29297,0 0.54688,0.0977 0.78125,0.29297 0.42969,0.41016 0.64453,1.05469 0.64453,1.9336 v 0.2539 c 0,0.625 -0.11719,1.38672 -0.35156,2.28516 -0.15625,-0.17578 -0.29297,-0.39063 -0.39063,-0.60547 -0.0586,-0.25391 -0.15625,-0.39063 -0.3125,-0.39063 -0.33203,0 -0.70312,0.21485 -1.15234,0.66407 -0.41016,0.52734 -0.60547,1.07422 -0.60547,1.64062 v 0.0781 c 0,0.72265 0.35156,1.26953 1.07422,1.62109 v 0.0195 c -0.21484,0.35156 -0.48828,0.74219 -0.82031,1.15235 -0.83985,0.9375 -1.48438,1.40625 -1.9336,1.40625 h -0.0976 c -0.13672,0 -0.3125,-0.0391 -0.52735,-0.13672 -0.91796,-0.44922 -1.36718,-1.36719 -1.36718,-2.77344 z"
         style="font-family:'Bring Heart';-inkscape-font-specification:'Bring Heart';fill:#e6e6e6;fill-opacity:1"
         id="path346" />
      <path
         d="m 285.22243,129.04724 c -0.625,0 -1.01562,0.11719 -1.17187,0.35156 -0.52734,0.60547 -0.9375,1.17188 -1.23047,1.71875 h -0.60547 c -1.07422,0 -1.95312,0.13672 -2.67578,0.39063 -1.42578,0.5664 -2.12891,1.60156 -2.12891,3.125 v 0.46875 c 0,0.0586 0,0.13672 0.0195,0.27344 h 0.0391 c 0,-0.0391 0.0391,-0.13672 0.13672,-0.27344 0.48828,-0.74219 1.36718,-1.11328 2.65625,-1.11328 h 0.11718 c 0.0195,0 0.0586,0 0.0781,-0.0195 0.0195,0.0195 0.0391,0.0195 0.0586,0.0195 h 0.23438 c 0.27344,0 0.48828,0.0195 0.66406,0.0391 -0.72266,1.79687 -1.36719,3.61328 -1.93359,5.46875 -1.23047,4.27734 -1.85547,7.30469 -1.85547,9.12109 v 0.27344 c 0,1.54297 1.07422,2.59766 3.10547,2.59766 1.25,-0.15625 1.85547,-0.46875 3.16406,-1.81641 0.60547,-0.68359 1.07422,-1.34766 1.44531,-1.99219 0.9375,-1.75781 1.40625,-3.08593 1.40625,-4.0039 0,-0.3125 -0.0781,-0.46875 -0.21484,-0.46875 h -0.0195 c -0.13672,0 -0.3711,0.23437 -0.66407,0.68359 -2.05078,2.61719 -3.39843,3.92578 -4.0625,3.92578 h -0.0781 c -0.0586,0 -0.0977,0 -0.13672,-0.0195 -0.19531,-0.0977 -0.29297,-0.37109 -0.29297,-0.80078 0,-0.72266 0.29297,-2.24609 0.87891,-4.58984 0.83984,-2.98829 1.73828,-5.60547 2.71484,-7.8711 1.97266,0.39063 3.35938,0.58594 4.19922,0.58594 0.44922,0 0.82031,-0.0391 1.09375,-0.13672 0.21484,0 0.42969,-0.23437 0.66406,-0.72266 0.52735,-1.34765 0.78125,-2.26562 0.78125,-2.73437 -0.0195,-0.0391 -0.0391,-0.0586 -0.0586,-0.0586 -0.33203,0.21484 -0.82031,0.33203 -1.50391,0.33203 h -0.2539 c -0.6836,0 -1.85547,-0.11719 -3.4961,-0.35157 h -0.0195 c 0.33203,-0.68359 0.70313,-1.36718 1.11328,-2.05078 0,-0.19531 -0.64453,-0.3125 -1.95312,-0.35156 z"
         style="font-family:'Bring Heart';-inkscape-font-specification:'Bring Heart';fill:#e6e6e6;fill-opacity:1"
         id="path348" />
      <path
         d="m 298.67947,136.25427 c -1.85547,0.17578 -3.10547,0.25391 -3.73047,0.25391 h -0.74219 c -1.62109,-0.13672 -2.55859,-0.21485 -2.77344,-0.21485 h -0.19531 c -0.37109,0 -0.70313,0.0391 -1.01563,0.11719 -1.54296,0.48828 -2.30468,1.34766 -2.30468,2.57813 0,0.3125 0.0781,0.66406 0.21484,1.05468 1.23047,-0.72265 2.44141,-1.09375 3.61328,-1.09375 0.21485,0 0.35156,0 0.42969,0.0195 1.30859,0.13671 2.08984,0.19531 2.34375,0.19531 h 0.19531 c 0.25391,0 0.52735,-0.0195 0.83985,-0.0781 h 0.0195 c -0.52735,0.58594 -1.79688,1.875 -3.8086,3.84766 -2.67578,2.57812 -4.98047,4.70703 -6.91406,6.36719 0,0.0195 0.0195,0.0976 0.0781,0.21484 0.5664,1.21094 1.15234,1.81641 1.77734,1.81641 h 0.0195 c 1.50391,-0.33203 2.87109,-0.48828 4.08203,-0.48828 h 0.0391 c 3.02735,0 5.25391,0.95703 6.67969,2.87109 0.17578,0.29297 0.29297,0.44922 0.33203,0.46875 h 0.0195 c 0.0195,0 0.0586,-0.0195 0.0977,-0.0391 0.33203,-0.54688 0.50781,-1.26953 0.50781,-2.16797 0,-0.64453 -0.11718,-1.26953 -0.37109,-1.91406 -0.37109,-0.85938 -1.01563,-1.52344 -1.93359,-1.99219 -1.15235,-0.56641 -2.28516,-0.83985 -3.35938,-0.83985 -0.66406,0 -1.28906,0.0977 -1.89453,0.27344 h -0.0195 c 1.36719,-1.30859 3.18359,-3.02734 5.46875,-5.15625 1.99219,-1.8164 2.98828,-3.0664 2.98828,-3.71094 v -0.0391 c 0,-0.37109 -0.0586,-1.07422 -0.17578,-2.1289 0,-0.13672 -0.0781,-0.21485 -0.25391,-0.21485 z"
         style="font-family:'Bring Heart';-inkscape-font-specification:'Bring Heart';fill:#e6e6e6;fill-opacity:1"
         id="path350" />
      <path
         d="m 306.15993,129.12537 c -0.21484,0 -0.37109,0 -0.42968,0.0195 -0.48828,0 -0.82032,0.13672 -0.9961,0.39062 -1.28906,1.40625 -2.69531,4.4336 -4.21875,9.10156 -1.44531,4.70704 -2.16797,8.125 -2.16797,10.25391 0,0.64453 0.0977,1.11328 0.3125,1.40625 0.60547,0.83984 1.5625,1.26953 2.85157,1.26953 0.44922,-0.0195 0.68359,-0.0586 0.70312,-0.11719 -0.37109,-0.76171 -0.54687,-1.60156 -0.54687,-2.51953 v -0.23437 c 0,-1.26953 0.29297,-2.75391 0.8789,-4.41406 0.23438,-0.64454 0.54688,-1.32813 0.9375,-2.07032 1.07422,-1.85547 2.07032,-2.79297 2.98828,-2.79297 0.13672,0 0.27344,0.0195 0.39063,0.0586 0.56641,0.33203 0.85937,0.72265 0.85937,1.13281 0,1.09375 -1.85546,2.30469 -4.49218,3.49609 -0.0977,0 -0.15625,0.3711 -0.17578,1.13282 0,1.15234 0.27343,2.38281 0.82031,3.6914 0.99609,2.16797 2.14844,3.24219 3.45703,3.24219 0.17578,0 0.46875,-0.0977 0.87891,-0.3125 0.41015,-0.21484 0.97656,-0.70312 1.69921,-1.46484 1.34766,-1.64063 3.1836,-4.55078 3.1836,-6.5625 v -0.0195 c 0,-0.3125 -0.0781,-0.48829 -0.25391,-0.52735 -0.0977,0 -0.19531,0.0586 -0.33203,0.19531 -0.64453,0.85938 -1.05469,1.40625 -1.23047,1.64063 -1.69922,2.20703 -3.08594,3.30078 -4.14062,3.30078 -0.52735,0 -1.01563,-0.21484 -1.42578,-0.66406 -0.58594,-0.72266 -0.87891,-1.54297 -0.87891,-2.42188 0,-0.19531 0,-0.3125 0,-0.33203 0.0195,-0.0976 0.35156,-0.29297 1.01562,-0.625 3.02735,-1.44531 4.55079,-3.08594 4.55079,-4.92187 0,-0.89844 -0.41016,-1.67969 -1.21094,-2.34375 -0.70313,-0.54688 -1.32813,-0.82032 -1.89453,-0.82032 -0.9961,0 -1.75782,0.46875 -3.1836,2.20704 l 0.3125,-0.89844 c 1.26953,-3.45703 2.5,-6.15235 3.69141,-8.08594 v -0.0586 l -0.0586,-0.0586 c -0.39063,-0.17578 -1.01563,-0.27343 -1.89454,-0.27343 z"
         style="font-family:'Bring Heart';-inkscape-font-specification:'Bring Heart';fill:#e6e6e6;fill-opacity:1"
         id="path352" />
      <path
         d="m 322.54665,136.0199 c -0.60547,0 -1.23047,0.27343 -1.85547,0.82031 -0.5664,1.58203 -1.15234,3.35937 -1.75781,5.3125 -0.3125,1.28906 -0.9375,2.53906 -1.875,3.73047 -1.07422,1.26953 -1.91406,1.89453 -2.51953,1.89453 h -0.11719 c -0.35156,-0.0977 -0.52734,-0.41016 -0.52734,-0.95703 v -0.15625 c 0,-0.52735 0.29297,-1.9336 0.87891,-4.23828 0.68359,-2.36328 1.34765,-4.33594 1.97265,-5.89844 v -0.0195 c -0.52734,-0.21485 -1.03515,-0.33203 -1.5039,-0.33203 -0.95704,0 -1.69922,0.58593 -2.22657,1.73828 -0.68359,1.64062 -2.57812,7.28515 -2.57812,10.03906 0,1.97266 0.82031,3.45703 2.30469,3.45703 h 0.13671 c 0.33204,0 0.70313,-0.0781 1.09375,-0.21484 0.44922,-0.17578 1.13282,-0.6836 2.03125,-1.52344 0.56641,-0.58594 0.95704,-1.03516 1.17188,-1.34766 -0.33203,1.23047 -0.50781,1.875 -0.52734,1.89454 -0.91797,3.57421 -1.69922,6.13281 -2.34375,7.69531 -1.17188,2.7539 -2.28516,4.14062 -3.33985,4.14062 -0.2539,0 -0.50781,-0.11718 -0.76172,-0.33203 -0.52734,-0.58594 -0.80078,-1.38672 -0.80078,-2.42187 v -0.21485 c 0,-2.57812 1.71875,-3.86718 5.17578,-3.86718 h 0.0391 c -0.0586,-0.50782 -0.33204,-1.05469 -0.80079,-1.6211 -0.8789,-0.83984 -1.91406,-1.25 -3.0664,-1.25 -1.11328,0 -1.875,0.44922 -2.94922,1.48438 -1.23047,1.40625 -1.83594,3.08593 -1.83594,5.01953 0,1.30859 0.29297,2.46094 0.87891,3.4375 0.13672,0.29297 0.42969,0.60547 0.85937,0.97656 1.13282,0.68359 2.20703,1.03516 3.20313,1.03516 h 0.21484 c 1.58203,0 3.06641,-0.80078 4.45313,-2.40235 0.625,-0.80078 1.15234,-1.66015 1.5625,-2.57812 0.66406,-1.6211 1.40625,-3.8086 2.22656,-6.5625 0.58594,-2.05078 1.26953,-4.58985 2.05078,-7.57813 0.80078,-3.33984 1.69922,-6.25 2.67578,-8.6914 v -0.0195 c -0.48828,-0.29297 -0.95703,-0.44922 -1.40625,-0.44922 z"
         style="font-family:'Bring Heart';-inkscape-font-specification:'Bring Heart';fill:#e6e6e6;fill-opacity:1"
         id="path354" />
    </g>
  </g>
</svg>
